<?xml version="1.0" encoding="UTF-8"?>
<svg width="28px" height="28px" viewBox="0 0 28 28" version="1.1" xmlns="http://www.w3.org/2000/svg" xmlns:xlink="http://www.w3.org/1999/xlink">
    <!-- Generator: Sketch 52.5 (67469) - http://www.bohemiancoding.com/sketch -->
    <title>info icon</title>
    <desc>Created with Sketch.</desc>
    <g id="Design" stroke="none" stroke-width="1" fill="none" fill-rule="evenodd">
        <g id="Immediate-Need-Timeline" transform="translate(-270.000000, -2119.000000)" fill="#212121" fill-rule="nonzero">
            <path d="M284,2147 C276.268014,2147 270,2140.73199 270,2133 C270,2125.26801 276.268014,2119 284,2119 C291.731986,2119 298,2125.26801 298,2133 C298,2140.73199 291.731986,2147 284,2147 Z M282.1424,2137.18588 L282.1424,2138.13176 L286.0448,2138.13176 L286.0448,2137.18588 L285.3752,2137.06588 L285.3752,2131.17882 L284.9432,2130.88941 L284.9072,2130.88941 L282.02,2131.22824 L282.02,2132.32941 L282.8552,2132.57647 L282.8552,2137.06588 L282.1424,2137.18588 Z M283.4528,2130.13412 C283.61385,2130.19401 283.784554,2130.22509 283.9568,2130.22588 C284.17762,2130.23018 284.397338,2130.19428 284.6048,2130.12 C284.779839,2130.0569 284.939317,2129.95828 285.0728,2129.83059 C285.197391,2129.70892 285.293243,2129.56193 285.3536,2129.4 C285.416479,2129.2279 285.448156,2129.04634 285.4472,2128.86353 C285.448361,2128.70889 285.419023,2128.55549 285.3608,2128.41176 C285.304897,2128.27297 285.218915,2128.14773 285.1088,2128.04471 C284.988655,2127.93476 284.846421,2127.85061 284.6912,2127.79765 C284.506143,2127.7343 284.311194,2127.70325 284.1152,2127.70588 C283.910854,2127.70252 283.707819,2127.73849 283.5176,2127.81176 C283.349169,2127.87539 283.196854,2127.97414 283.0712,2128.10118 C282.948315,2128.2269 282.852781,2128.37579 282.7904,2128.53882 C282.723077,2128.70995 282.688893,2128.89188 282.6896,2129.07529 C282.688252,2129.38544 282.818692,2129.68212 283.0496,2129.89412 C283.166404,2129.99958 283.303473,2130.08117 283.4528,2130.13412 Z" id="info-icon"></path>
        </g>
    </g>
</svg>