<?xml version="1.0" encoding="UTF-8"?>
<svg width="32px" height="32px" viewBox="0 0 32 32" version="1.1" xmlns="http://www.w3.org/2000/svg" xmlns:xlink="http://www.w3.org/1999/xlink">
    <!-- Generator: Sketch 60.1 (88133) - https://sketch.com -->
    <title>Facebook Logo</title>
    <desc>Created with Sketch.</desc>
    <g id="Navigation" stroke="none" stroke-width="1" fill="none" fill-rule="evenodd">
        <g id="Footer" transform="translate(-1013.000000, -1646.000000)">
            <g id="Facebook-Logo" transform="translate(1013.000000, 1646.000000)">
                <rect id="Rectangle-2" stroke="#4267B2" x="0.5" y="0.5" width="31" height="31" rx="15.5"></rect>
                <path d="M21.1761755,10.1818182 L10.8238245,10.1818182 C10.4692542,10.1818182 10.1818182,10.4692542 10.1818182,10.8238245 L10.1818182,21.1761755 C10.1818182,21.5307458 10.4692542,21.8181818 10.8238245,21.8181818 L16.4012539,21.8181818 L16.4012539,17.3181191 L14.8865204,17.3181191 L14.8865204,15.5566144 L16.4012539,15.5566144 L16.4012539,14.2605643 C16.4012539,12.7578683 17.3201254,11.9393103 18.6603135,11.9393103 C19.1119396,11.9383254 19.5633049,11.9610946 20.0125392,12.0075235 L20.0125392,13.5784326 L19.0896552,13.5784326 C18.359373,13.5784326 18.2169279,13.923511 18.2169279,14.4331034 L18.2169279,15.5546082 L19.9623824,15.5546082 L19.735674,17.3161129 L18.2068966,17.3161129 L18.2068966,21.8181818 L21.1761755,21.8181818 C21.5307458,21.8181818 21.8181818,21.5307458 21.8181818,21.1761755 L21.8181818,10.8238245 C21.8181818,10.4692542 21.5307458,10.1818182 21.1761755,10.1818182 Z" id="Shape-Copy" fill="#4267B2" fill-rule="nonzero"></path>
            </g>
        </g>
    </g>
</svg>