<?xml version="1.0" encoding="UTF-8"?>
<svg width="32px" height="32px" viewBox="0 0 32 32" version="1.1" xmlns="http://www.w3.org/2000/svg" xmlns:xlink="http://www.w3.org/1999/xlink">
    <!-- Generator: Sketch 60.1 (88133) - https://sketch.com -->
    <title>Twitter Logo</title>
    <desc>Created with Sketch.</desc>
    <g id="Navigation" stroke="none" stroke-width="1" fill="none" fill-rule="evenodd">
        <g id="Footer" transform="translate(-1061.000000, -1646.000000)">
            <g id="Twitter-Logo" transform="translate(1061.000000, 1646.000000)">
                <rect id="Rectangle-2-Copy" stroke="#1DA1F2" x="0.5" y="0.5" width="31" height="31" rx="15.5"></rect>
                <path d="M13.4616467,22.0088855 C18.2752728,22.0088855 20.9092399,18.0170981 20.9092399,14.5612923 C20.9092399,14.4489914 20.9092399,14.3366905 20.9041353,14.2243895 C21.4145941,13.8568592 21.8586932,13.3923418 22.2109098,12.8665692 C21.7412877,13.0758573 21.2359335,13.2136812 20.7050564,13.2800408 C21.2461427,12.9584518 21.6596143,12.4428885 21.8586932,11.830338 C21.353339,12.1315086 20.7918344,12.3459013 20.1945977,12.4633068 C19.7147664,11.9528481 19.0358563,11.6363636 18.2854819,11.6363636 C16.8408836,11.6363636 15.6668285,12.8104188 15.6668285,14.2550171 C15.6668285,14.4592006 15.6923514,14.6582795 15.7331881,14.8522538 C13.5586338,14.7450575 11.6290998,13.698617 10.3376391,12.1161949 C10.1130372,12.5041435 9.98542256,12.9533472 9.98542256,13.4331785 C9.98542256,14.341795 10.44994,15.1432153 11.1492685,15.6128373 C10.7204832,15.5975236 10.3172208,15.4801181 9.96500421,15.2861437 C9.96500421,15.2963529 9.96500421,15.3065621 9.96500421,15.3218759 C9.96500421,16.5878136 10.8685162,17.6495678 12.0629897,17.8894834 C11.8434924,17.9507384 11.613786,17.981366 11.3738704,17.981366 C11.205419,17.981366 11.0420722,17.9660522 10.88383,17.9354247 C11.2156282,18.9767605 12.1854998,19.7322395 13.3289274,19.7526579 C12.43052,20.4570909 11.3024061,20.8756671 10.0773051,20.8756671 C9.86801705,20.8756671 9.65872896,20.8654579 9.45454545,20.839935 C10.6081822,21.5749956 11.9864209,22.0088855 13.4616467,22.0088855" id="Shape-Copy-2" fill="#1DA1F2" fill-rule="nonzero"></path>
            </g>
        </g>
    </g>
</svg>