<?xml version="1.0" encoding="UTF-8"?>
<svg width="16px" height="16px" viewBox="0 0 16 16" version="1.1" xmlns="http://www.w3.org/2000/svg" xmlns:xlink="http://www.w3.org/1999/xlink">
    <!-- Generator: sketchtool 57.1 (101010) - https://sketch.com -->
    <title>E3EC5541-C158-4F59-A21E-9E8ECCD3CF74</title>
    <desc>Created with sketchtool.</desc>
    <defs>
        <path d="M15.6817156,6.13639018 C15.4695724,5.92424705 15.2119601,5.81824522 14.9088785,5.81824522 L10.1816153,5.81824522 L10.1816153,1.09084252 C10.1816153,0.787900449 10.075474,0.530288105 9.86347034,0.318144968 C9.6513272,0.106141307 9.39385433,0 9.09063331,0 L6.90894826,0 C6.60600619,0 6.34839385,0.106001831 6.13625071,0.318144968 C5.92410757,0.530288105 5.81810574,0.787900449 5.81810574,1.09084252 L5.81810574,5.81824522 L1.09084252,5.81824522 C0.787900449,5.81824522 0.530288105,5.92424705 0.318144968,6.13639018 C0.106001831,6.34853332 0,6.60600619 0,6.90908774 L0,9.09105174 C0,9.39413329 0.106001831,9.65160615 0.318144968,9.86360982 C0.530288105,10.075753 0.787900449,10.1817548 1.09084252,10.1817548 L5.81810574,10.1817548 L5.81810574,14.909297 C5.81810574,15.212239 5.92410757,15.4699908 6.13625071,15.6819945 C6.34839385,15.8939982 6.60600619,16 6.90894826,16 L9.09077278,16 C9.39399381,16 9.65146668,15.8939982 9.86360982,15.6819945 C10.075753,15.4698514 10.1817548,15.212239 10.1817548,14.909297 L10.1817548,10.1817548 L14.909018,10.1817548 C15.2120996,10.1817548 15.4697119,10.075753 15.681855,9.86360982 C15.8938587,9.65160615 16,9.39413329 16,9.09105174 L16,6.90908774 C15.9998605,6.60600619 15.8939982,6.34839385 15.6817156,6.13639018 L15.6817156,6.13639018 Z" id="path-1"></path>
    </defs>
    <g id="UI-Components" stroke="none" stroke-width="1" fill="none" fill-rule="evenodd">
        <g id="Icons" transform="translate(-497.000000, -948.000000)">
            <g id="Icons/plus" transform="translate(497.000000, 948.000000)">
                <g>
                    <mask id="mask-2" fill="white">
                        <use xlink:href="#path-1"></use>
                    </mask>
                    <g id="shape"></g>
                    <polygon id="fill" fill="#212121" mask="url(#mask-2)" points="0 0 16 0 16 16 0 16"></polygon>
                </g>
            </g>
        </g>
    </g>
</svg>