<?xml version="1.0" encoding="UTF-8"?>
<svg width="75px" height="75px" viewBox="0 0 75 75" version="1.1" xmlns="http://www.w3.org/2000/svg" xmlns:xlink="http://www.w3.org/1999/xlink">
    <!-- Generator: sketchtool 57.1 (101010) - https://sketch.com -->
    <title>1EA1A0EE-6ACC-4CBD-917C-BA8CB133C227</title>
    <desc>Created with sketchtool.</desc>
    <g id="UI-Components" stroke="none" stroke-width="1" fill="none" fill-rule="evenodd">
        <g id="Icons" transform="translate(-456.000000, -2799.000000)" fill="#212121" fill-rule="nonzero">
            <g id="barn" transform="translate(456.000000, 2799.000000)">
                <path d="M70.6796296,35.67375 C70.6768519,35.6690625 70.6759259,35.6634375 70.6740741,35.65875 L62.5277778,21.1546875 C62.4314815,20.9840625 62.2861111,20.848125 62.1111111,20.7665625 L42.6851852,11.694375 C42.4388889,11.58 42.1555556,11.58 41.9092593,11.694375 L23.9407407,20.0859375 L23.9407407,12.099375 C23.9398148,5.428125 18.5787037,0 11.9898148,0 C5.40092593,0 0.0407407407,5.428125 0.0407407407,12.099375 L0.0407407407,66.8803125 C0.0407407407,67.3978125 0.45462963,67.8178125 0.966666667,67.8178125 L13.7972222,67.8178125 L13.7972222,74.0625 C13.7972222,74.58 14.2111111,75 14.7231481,75 L69.8694444,75 C70.3814815,75 70.7953704,74.58 70.7953704,74.0625 L70.7953704,39.88125 L72.4462963,43.02375 C72.612963,43.340625 72.9324074,43.520625 73.2648148,43.520625 C73.4111111,43.520625 73.5601852,43.485 73.6990741,43.4109375 C74.15,43.168125 74.3222222,42.6 74.0814815,42.1425 L70.687037,35.6821875 C70.6851852,35.6784375 70.6814815,35.6775 70.6796296,35.67375 Z M42.2972222,13.5778125 L61.0657407,22.3434375 L68.9444444,36.3703125 L68.9444444,43.4325 L15.6490741,43.4325 L15.6490741,36.099375 L23.5231481,22.3453125 L42.2972222,13.5778125 Z M14.0324074,35.1853125 L1.89259259,35.1853125 L1.89259259,21.7078125 L21.7481481,21.7078125 L14.0324074,35.1853125 Z M1.89259259,37.0603125 L12.9444444,37.0603125 L10.012037,42.1078125 C9.7537037,42.5540625 9.9,43.12875 10.3407407,43.39125 C10.487963,43.479375 10.65,43.520625 10.8092593,43.520625 C11.1268519,43.520625 11.4361111,43.355625 11.6083333,43.0584375 L13.7962963,39.2915625 L13.7962963,51.2690625 L1.89259259,51.2690625 L1.89259259,37.0603125 Z M11.9898148,1.875 C17.5583333,1.875 22.087963,6.4621875 22.087963,12.099375 L22.087963,19.8328125 L1.89259259,19.8328125 L1.89259259,12.099375 C1.89259259,6.4621875 6.42222222,1.875 11.9898148,1.875 Z M1.89259259,65.9428125 L1.89259259,53.143125 L13.7972222,53.143125 L13.7972222,65.9428125 L1.89259259,65.9428125 L1.89259259,65.9428125 Z M43.2231481,56.0503125 L46.6435185,62.9625 L43.2231481,69.658125 L43.2231481,56.0503125 Z M41.3712963,69.7396875 L37.8407407,62.9896875 L41.3712963,56.0653125 L41.3712963,69.7396875 Z M41.0462963,73.125 L32.6722222,73.125 L36.8064815,65.0184375 L41.0462963,73.125 Z M47.6694444,65.03625 L51.6712963,73.125 L43.537963,73.125 L47.6694444,65.03625 Z M52.5166667,70.64625 L48.7212963,62.9765625 L52.5166667,55.546875 L52.5166667,70.64625 Z M47.6953704,60.901875 L43.8564815,53.143125 L51.6583333,53.143125 L47.6953704,60.901875 Z M36.7842593,60.97125 L32.6898148,53.143125 L40.7768519,53.143125 L36.7842593,60.97125 Z M35.75,63 L32.0768519,70.201875 L32.0768519,55.9790625 L35.75,63 Z M54.3685185,73.125 L54.3685185,52.205625 C54.3685185,51.688125 53.9546296,51.268125 53.4425926,51.268125 L31.1518519,51.268125 C31.1388889,51.268125 31.1277778,51.275625 31.1138889,51.275625 C31.0509259,51.2784375 30.9916667,51.2971875 30.9296296,51.313125 C30.8703704,51.328125 30.8101852,51.339375 30.7564815,51.365625 C30.7444444,51.37125 30.7305556,51.3703125 30.7194444,51.376875 C30.6805556,51.3975 30.6564815,51.4321875 30.6222222,51.4575 C30.5685185,51.496875 30.5148148,51.5334375 30.4703704,51.583125 C30.4305556,51.628125 30.4037037,51.6778125 30.3731481,51.729375 C30.3425926,51.7809375 30.3101852,51.8296875 30.2898148,51.886875 C30.2675926,51.9496875 30.2601852,52.0134375 30.2509259,52.08 C30.2453704,52.123125 30.2259259,52.160625 30.2259259,52.205625 L30.2259259,73.125 L15.6490741,73.125 L15.6490741,45.3075 L68.9435185,45.3075 L68.9435185,73.125 L54.3685185,73.125 Z" id="Shape"></path>
                <path d="M31.1518519,37.0603125 L53.4425926,37.0603125 C53.9546296,37.0603125 54.3685185,36.6403125 54.3685185,36.1228125 L54.3685185,27.96375 C54.3685185,27.44625 53.9546296,27.02625 53.4425926,27.02625 L31.1518519,27.02625 C30.6398148,27.02625 30.2259259,27.44625 30.2259259,27.96375 L30.2259259,36.1228125 C30.2259259,36.6403125 30.6398148,37.0603125 31.1518519,37.0603125 Z M32.0777778,28.90125 L52.5166667,28.90125 L52.5166667,35.1853125 L32.0777778,35.1853125 L32.0777778,28.90125 Z" id="Shape"></path>
            </g>
        </g>
    </g>
</svg>