<?xml version="1.0" encoding="UTF-8"?>
<svg width="16px" height="10px" viewBox="0 0 16 10" version="1.1" xmlns="http://www.w3.org/2000/svg" xmlns:xlink="http://www.w3.org/1999/xlink">
    <!-- Generator: sketchtool 57.1 (101010) - https://sketch.com -->
    <title>FC528A8F-B064-45E1-B29C-77BB62C7F629</title>
    <desc>Created with sketchtool.</desc>
    <defs>
        <path d="M15.8410342,0.942252993 C15.9482882,1.04736488 16,1.16749275 16,1.30263661 C16,1.44153446 15.9482882,1.55978533 15.8410342,1.66489722 L8.36964328,8.9870664 C8.26238927,9.09217829 8.13981326,9.14285723 8,9.14285723 C7.86210199,9.14285723 7.73952598,9.09217829 7.63227197,8.9870664 L0.160881015,1.66489722 C0.0555422552,1.55978533 0,1.44153446 0,1.30263661 C0,1.16749275 0.0555422552,1.04736488 0.160881015,0.942252993 L0.96145559,0.157667832 C1.0687096,0.0525559439 1.19320086,3.01980663e-14 1.33109887,3.01980663e-14 C1.47091214,3.01980663e-14 1.59348815,0.0525559439 1.70074216,0.157667832 L8,6.33111424 L14.3011731,0.157667832 C14.4084271,0.0525559439 14.5310031,3.01980663e-14 14.6708164,3.01980663e-14 C14.8087144,3.01980663e-14 14.9312904,0.0525559439 15.0385444,0.157667832 L15.8410342,0.942252993 Z" id="path-1"></path>
    </defs>
    <g id="UI-Components" stroke="none" stroke-width="1" fill="none" fill-rule="evenodd">
        <g id="Icons" transform="translate(-497.000000, -728.000000)">
            <g id="Icons/caret-down" transform="translate(497.000000, 724.000000)">
                <g transform="translate(0.000000, 4.000000)">
                    <mask id="mask-2" fill="white">
                        <use xlink:href="#path-1"></use>
                    </mask>
                    <g id="shape"></g>
                    <rect id="fill" fill="#212121" mask="url(#mask-2)" x="0" y="0" width="16" height="9.14285723"></rect>
                </g>
            </g>
        </g>
    </g>
</svg>