<svg id="Layer_1" data-name="Layer 1" xmlns="http://www.w3.org/2000/svg" viewBox="0 0 60 60"><defs><style>.cls-1{fill:#212121;}</style></defs><title>citrus-1</title><path class="cls-1" d="M52.34,16.43L52,16.09h0A25.56,25.56,0,0,0,15.89,52.25h0l0.34,0.34a0.47,0.47,0,0,0,.69,0L52.34,17.16A0.53,0.53,0,0,0,52.34,16.43ZM19.46,48.63a0.26,0.26,0,0,1-.15.1,2.08,2.08,0,0,1-1.22.15,1.51,1.51,0,0,1-.69-0.34,21.79,21.79,0,0,1-3.52-5.82,1.85,1.85,0,0,1,.49-2.1,4.61,4.61,0,0,1,2.25-.93l4.31-1.17,9.74-2.64c0.39-.1.83-0.24,1.22-0.34,0.1,0,.15,0,0.24,0a0.49,0.49,0,0,1,.2.29Zm-6.61-10a1.53,1.53,0,0,1-.24-0.49,21.58,21.58,0,0,1,0-7.1A2.64,2.64,0,0,1,13,30.37a2.32,2.32,0,0,1,2.15-.64c5.48,1.47,11,2.94,16.44,4.36a1,1,0,0,1,.54.15c-0.1.59,0.15,0.59-.39,0.73-1.13.29-2.3,0.64-3.43,0.93-3.38.93-6.75,1.81-10.13,2.74-0.78.2-1.61,0.44-2.4,0.64a5.48,5.48,0,0,1-1.57,0A1.9,1.9,0,0,1,12.85,38.6Zm19.53-5.19c-0.15.2-.1,0.39-0.29,0.29a7.82,7.82,0,0,0-1-.24c-1.42-.39-2.79-0.73-4.21-1.13-3.23-.88-6.51-1.71-9.74-2.59a14.86,14.86,0,0,1-1.76-.59,2.31,2.31,0,0,1-1.66-2.25,0.18,0.18,0,0,1,0-.15,11.54,11.54,0,0,1,.59-1.37v0h0a21,21,0,0,1,2.2-3.77,0,0,0,0,1,0,0,10.75,10.75,0,0,1,.69-0.88c0.93-.88,2.25-0.44,3.13.44,4,4,8.07,8,12.09,12C32.52,33.26,32.52,33.21,32.38,33.41Zm0.49-.64C29,28.86,25,24.94,21.07,21a3.54,3.54,0,0,1-1.17-2.45,1.63,1.63,0,0,1,.44-1,21.17,21.17,0,0,1,6.36-3.62,1.2,1.2,0,0,1,.59,0,2.23,2.23,0,0,1,1.32,1.08,8.15,8.15,0,0,1,.69,2.1C30.18,20.44,31.06,23.77,32,27c0.39,1.42.78,2.84,1.13,4.26,0.1,0.34.2,0.73,0.29,1.08,0,0,0,.1,0,0.15A1.26,1.26,0,0,1,32.87,32.77Zm1.27-.44c-0.29,0-.24-0.2-0.34-0.49-1.42-5.33-2.89-10.67-4.31-16a4.3,4.3,0,0,1,0-1.76,1.82,1.82,0,0,1,1.08-1.22,22.33,22.33,0,0,1,7.44,0s0.1,0,.15,0a2.22,2.22,0,0,1,.93,1.91v0.2c-0.29,1-.54,2.1-0.83,3.13-0.93,3.43-1.81,6.8-2.74,10.23-0.29,1.17-.64,2.3-0.93,3.47C34.53,32.38,34.63,32.33,34.14,32.33ZM48.38,19.66a0.26,0.26,0,0,1-.1.15L35.41,32.67a3.8,3.8,0,0,0-.34-0.2c0-.1,0-0.15,0-0.24A11.43,11.43,0,0,1,35.46,31c0.88-3.28,1.76-6.56,2.59-9.84,0.39-1.37.73-2.79,1.13-4.16a8,8,0,0,1,.69-1.91,2.81,2.81,0,0,1,1-1,1.38,1.38,0,0,1,.73-0.2,0.29,0.29,0,0,1,.2,0,21.85,21.85,0,0,1,6.7,4,0.7,0.7,0,0,1,.1.29A1.9,1.9,0,0,1,48.38,19.66ZM50,18a22.79,22.79,0,0,0-32.2,32.25l-0.39.39a23.34,23.34,0,0,1,33-33Z"/><path class="cls-1" d="M44.37,33a0.66,0.66,0,0,0-.73.78c0,4.5-4.6,6.75-4.6,12.33a6.85,6.85,0,1,0,13.7,0C52.78,38.5,46.57,33,44.37,33Zm1.52,19A5.89,5.89,0,0,1,40,46.13c0-2.69,1.13-4.45,2.35-6.36,1.08-1.71,2.2-3.47,2.25-5.77,1.76,0.44,7.19,5.14,7.19,12.14A5.9,5.9,0,0,1,45.88,52Z"/></svg>