<?xml version="1.0" encoding="UTF-8"?>
<svg width="12px" height="12px" viewBox="0 0 12 12" version="1.1" xmlns="http://www.w3.org/2000/svg" xmlns:xlink="http://www.w3.org/1999/xlink">
    <title>Icons/plus</title>
    <defs>
        <path d="M11.7174223,8.97008296 C11.9054722,9.15813291 12,9.38741306 12,9.65691779 C12,9.92642253 11.9054722,10.1557027 11.7174223,10.3437526 L10.3437526,11.7174223 C10.1546971,11.9064778 9.92541691,12.0010056 9.65591218,12.0010056 C9.38741306,12.0010056 9.15813291,11.9064778 8.97008296,11.7174223 L5.99949719,8.74784212 L3.02991704,11.7174223 C2.84186709,11.9064778 2.61258694,12.0010056 2.34308221,12.0010056 C2.07357747,12.0010056 1.84530294,11.9064778 1.65624738,11.7174223 L0.282577726,10.3437526 C0.0935221654,10.1557027 0,9.92642253 0,9.65691779 C0,9.38741306 0.0935221654,9.15813291 0.282577726,8.97008296 L3.25215788,6.00050281 L0.282577726,3.03092265 C0.0935221654,2.84186709 0,2.61359256 0,2.34308221 C0,2.07458309 0.0935221654,1.84530294 0.282577726,1.657253 L1.65624738,0.282577726 C1.84530294,0.0945277801 2.07357747,0 2.34308221,0 C2.61258694,0 2.84186709,0.0945277801 3.02991704,0.282577726 L5.99949719,3.25215788 L8.97008296,0.282577726 C9.15813291,0.0945277801 9.38741306,0 9.65591218,0 C9.92541691,0 10.1546971,0.0945277801 10.3437526,0.282577726 L11.7174223,1.657253 C11.9054722,1.84530294 12,2.07458309 12,2.34308221 C12,2.61359256 11.9054722,2.84186709 11.7174223,3.03092265 L8.74784212,6.00050281 L11.7174223,8.97008296 Z" id="path-1"></path>
    </defs>
    <g id="Mobile" stroke="none" stroke-width="1" fill="none" fill-rule="evenodd">
        <g id="Mobile-Mega-Menu---Full" transform="translate(-288.000000, -24.000000)">
            <g id="Group" transform="translate(288.000000, 24.000000)">
                <g id="Icons/close" transform="translate(0.000000, -0.000000)">
                    <mask id="mask-2" fill="white">
                        <use xlink:href="#path-1"></use>
                    </mask>
                    <g id="shape"></g>
                    <polygon id="fill" fill="#FFFFFF" mask="url(#mask-2)" points="0 0 12 0 12 12 0 12"></polygon>
                </g>
            </g>
        </g>
    </g>
</svg>