<?xml version="1.0" encoding="UTF-8"?>
<svg width="26px" height="20px" viewBox="0 0 26 20" version="1.1" xmlns="http://www.w3.org/2000/svg" xmlns:xlink="http://www.w3.org/1999/xlink">
    <!-- Generator: Sketch 52.5 (67469) - http://www.bohemiancoding.com/sketch -->
    <title>SCL-mail icon</title>
    <desc>Created with Sketch.</desc>
    <g id="Program-Page-Layout" stroke="none" stroke-width="1" fill="none" fill-rule="evenodd">
        <g id="Service-Center-Locator-Copy-7" transform="translate(-783.000000, -1738.000000)" fill="#707070">
            <g id="SCL-mail-icon" transform="translate(783.000000, 1738.000000)">
                <path d="M13.0074134,0 C16.3510006,0 19.6920325,0 23.0343421,0.00638820639 C23.4263992,0.00733274709 23.8172333,0.0501638825 24.2001898,0.134152334 C24.9565534,0.302162162 25.477831,0.782555283 25.7972414,1.4795086 C26.065546,2.05444717 25.9799441,2.3834398 25.4439735,2.7239312 C24.4563568,3.35189189 23.4591578,3.96324324 22.4715411,4.59056511 C19.5706566,6.43100737 16.6646615,8.26378378 13.7797475,10.1285012 C13.1971431,10.5060442 12.7391087,10.5022113 12.153949,10.1285012 C8.29036175,7.64348894 4.40505463,5.19041769 0.526135711,2.72776413 C-0.0488028642,2.3617199 -0.112684928,2.17710074 0.142843327,1.5414742 C0.533162738,0.554496314 1.358519,0.0153316953 2.56525119,0.0121375921 C6.04618485,0.00255528256 9.52839615,0.0121375921 13.0074134,0.0121375921 L13.0074134,0 Z" id="Path"></path>
                <path d="M12.9374417,19.916532 C9.53125005,19.916532 6.12569722,19.9267531 2.71631147,19.9050332 C2.24102086,19.8973567 1.77050946,19.8087847 1.32496012,19.6431168 C0.646532602,19.3920602 0.255574371,18.8311757 0.0492353051,18.1457212 C-0.0657524099,17.7573182 0.01410017,17.5477851 0.358424494,17.3312249 C3.46266692,15.3760078 6.56839992,13.4227073 9.67562351,11.4713231 C10.0180314,11.2554018 10.3668274,11.2732888 10.6977365,11.4713231 C11.262454,11.8120275 11.821422,12.1610365 12.3746407,12.5183502 C12.879309,12.846704 13.0562623,12.8518145 13.5622083,12.5247384 C14.1697267,12.1318637 14.7829945,11.7485713 15.3924294,11.3595295 C15.707368,11.158301 15.9948373,11.2426254 16.2829454,11.4272445 C17.5546243,12.2419538 18.8280068,13.0538948 20.1030928,13.8630676 C21.8649601,14.9771708 23.6289568,16.0874411 25.395083,17.1938784 C25.9885473,17.5675885 26.0862869,17.8627236 25.7917906,18.5015443 C25.3363115,19.4878833 24.4905129,19.891618 23.471594,19.9012003 C20.5662378,19.9286696 17.6583262,19.9139767 14.7548864,19.9152544 L12.9374417,19.9152544 L12.9374417,19.916532 Z" id="Path"></path>
                <polygon id="Path" points="8.38068796 10.0192629 0.0638820639 15.3125307 0.0638820639 4.72727273"></polygon>
                <polygon id="Path" points="17.6314496 10.0084029 25.925258 4.72727273 25.925258 15.2863391"></polygon>
            </g>
        </g>
    </g>
</svg>