<?xml version="1.0" encoding="UTF-8"?>
<svg width="16px" height="15px" viewBox="0 0 16 15" version="1.1" xmlns="http://www.w3.org/2000/svg" xmlns:xlink="http://www.w3.org/1999/xlink">

    <defs>
        <path d="M12.5714289,8.45833333 L12.5714289,11.375 C12.5714289,12.8242187 11.4196432,14 10.0000003,14 L2.57142865,14 C1.15178575,14 0,12.8242187 0,11.375 L0,3.79166667 C0,2.34244792 1.15178575,1.16666667 2.57142865,1.16666667 L8.85714311,1.16666667 C9.0178574,1.16666667 9.14285741,1.29427083 9.14285741,1.45833333 L9.14285741,2.04166667 C9.14285741,2.20572917 9.0178574,2.33333333 8.85714311,2.33333333 L2.57142865,2.33333333 C1.78571434,2.33333333 1.14285718,2.98958333 1.14285718,3.79166667 L1.14285718,11.375 C1.14285718,12.1770833 1.78571434,12.8333333 2.57142865,12.8333333 L10.0000003,12.8333333 C10.7857146,12.8333333 11.4285718,12.1770833 11.4285718,11.375 L11.4285718,8.45833333 C11.4285718,8.29427083 11.5535718,8.16666667 11.7142861,8.16666667 L12.2857146,8.16666667 C12.4464289,8.16666667 12.5714289,8.29427083 12.5714289,8.45833333 Z M16,0.583333333 L16,5.25 C16,5.56901042 15.7410714,5.83333333 15.4285714,5.83333333 C15.2767857,5.83333333 15.1339286,5.76953125 15.0267857,5.66015625 L13.4553572,4.05598958 L7.6339288,9.99869792 C7.58035737,10.0533854 7.50000023,10.0898438 7.42857166,10.0898438 C7.3571431,10.0898438 7.27678595,10.0533854 7.22321453,9.99869792 L6.20535741,8.95963542 C6.15178599,8.90494792 6.1160717,8.82291667 6.1160717,8.75 C6.1160717,8.67708333 6.15178599,8.59505208 6.20535741,8.54036458 L12.0267858,2.59765625 L10.4553573,0.993489583 C10.3482144,0.884114583 10.2857144,0.73828125 10.2857144,0.583333333 C10.2857144,0.264322917 10.544643,0 10.857143,0 L15.4285714,0 C15.7410714,0 16,0.264322917 16,0.583333333 Z" id="path-1">
        </path>
    </defs>
    <g id="UI-Components" stroke="none" stroke-width="1" fill="none" fill-rule="evenodd">
        <g id="Icons" transform="translate(-497.000000, -837.000000)">
            <g id="Icons/external-link" transform="translate(497.000000, 836.000000)">
                <g transform="translate(0.000000, 1.333333)">
                    <mask id="mask-2" fill="white">
                        <use xlink:href="#path-1"></use>
                    </mask>
                    <g id="shape"></g>
                    <polygon id="fill" fill="#006546" mask="url(#mask-2)" points="0 0 16 0 16 14 0 14"></polygon>
                </g>
            </g>
        </g>
    </g>
</svg>
