<?xml version="1.0" encoding="UTF-8"?>
<svg width="68px" height="68px" viewBox="0 0 68 68" version="1.1" xmlns="http://www.w3.org/2000/svg" xmlns:xlink="http://www.w3.org/1999/xlink">
    <!-- Generator: sketchtool 57.1 (101010) - https://sketch.com -->
    <title>E30413AE-6AA0-4F68-8ADB-04108C27B23C</title>
    <desc>Created with sketchtool.</desc>
    <g id="UI-Components" stroke="none" stroke-width="1" fill="none" fill-rule="evenodd">
        <g id="Icons" transform="translate(-583.000000, -2806.000000)" fill="#212121" fill-rule="nonzero">
            <path d="M610.174607,2806.00794 C609.674867,2806.02451 609.215618,2806.07157 608.709422,2806.14081 C602.613194,2806.97451 597.886141,2811.47697 596.388545,2817.16884 C594.7256,2817.29267 593.186378,2817.46664 591.793191,2817.63387 C589.360136,2817.92593 587.377413,2818.22027 585.932449,2818.63038 C585.209969,2818.83459 584.561141,2819.07165 584.067668,2819.36116 C583.574195,2819.65066 583.068678,2820.1057 583.068678,2820.88914 C583.068678,2821.67257 583.574195,2822.12761 584.067668,2822.41712 C584.561141,2822.70662 585.209969,2822.8764 585.932449,2823.08146 C587.377413,2823.49157 589.360136,2823.85234 591.793191,2824.1444 C593.00972,2824.29043 594.297803,2824.42331 595.722552,2824.543 L595.722552,2824.94161 C593.302344,2825.37262 591.460194,2827.48224 591.460194,2829.99058 C591.460194,2832.52009 593.338998,2834.56712 595.789151,2834.97313 C596.067317,2840.06112 598.353456,2844.32386 602.116088,2846.8648 C602.059419,2847.01292 602.036664,2847.17181 602.049489,2847.32984 L602.049489,2851.78091 C591.907875,2854.70665 584.04524,2862.71934 583.002079,2872.77403 C582.983701,2873.06725 583.087798,2873.35499 583.289658,2873.56893 C583.491518,2873.78288 583.773139,2873.90344 584.067668,2873.90344 L637.147338,2873.90344 C637.454606,2873.90577 637.747946,2873.77573 637.95209,2873.54664 C638.156234,2873.31755 638.251312,2873.01171 638.212928,2872.70759 C637.176169,2862.79006 629.504722,2854.73019 619.232117,2851.78091 L619.232117,2846.79836 C622.90998,2844.26011 625.200406,2840.04717 625.492455,2835.03956 C627.865533,2834.58661 629.688213,2832.53136 629.688213,2830.05702 C629.688213,2827.60423 627.901552,2825.55142 625.559054,2825.07447 L625.559054,2824.543 C627.007122,2824.42202 628.320953,2824.29253 629.555014,2824.1444 C631.988072,2823.85234 633.970795,2823.49157 635.415756,2823.08146 C636.138236,2822.87725 636.720467,2822.70662 637.213938,2822.41712 C637.707408,2822.12761 638.279527,2821.67257 638.279527,2820.88914 C638.279527,2820.1057 637.707408,2819.65066 637.213938,2819.36116 C636.720467,2819.07165 636.138236,2818.83544 635.415756,2818.63038 C633.970795,2818.22027 631.988072,2817.92593 629.555014,2817.63387 C628.144289,2817.46453 626.58004,2817.29366 624.893061,2817.16884 C623.11976,2810.46071 617.032566,2805.78053 610.174607,2806.00794 Z M610.307806,2808.20026 C615.964197,2808.01194 621.012374,2811.64745 622.761882,2817.03597 C619.108967,2816.81874 615.013871,2816.7038 610.640803,2816.7038 C606.294257,2816.7038 602.289429,2816.82127 598.652922,2817.03597 C600.131918,2812.48642 604.055168,2808.94881 609.042419,2808.26669 C609.477987,2808.20712 609.877947,2808.21457 610.307806,2808.20026 Z M610.640803,2818.69682 C615.207983,2818.69682 619.495117,2818.8539 623.228077,2819.09542 C623.242505,2819.18931 623.282179,2819.2665 623.294677,2819.36116 C623.43543,2820.42734 623.420079,2821.5525 623.294677,2822.61642 C619.546263,2822.86063 615.23507,2823.01502 610.640803,2823.01502 C606.073623,2823.01502 601.853088,2822.85794 598.120128,2822.61642 C597.97913,2821.4038 598.007897,2820.24576 598.186727,2819.09542 C601.904135,2818.85658 606.100712,2818.69682 610.640803,2818.69682 Z M595.92235,2819.22829 C595.943122,2819.22662 595.968134,2819.22995 595.988949,2819.22829 C595.860814,2820.28955 595.820134,2821.37908 595.92235,2822.48355 C594.52566,2822.3712 593.242386,2822.22694 592.059588,2822.08495 C589.693993,2821.80097 587.770557,2821.44006 586.531843,2821.08844 C586.213002,2820.99697 586.086837,2820.97422 585.86585,2820.88914 C586.091179,2820.7998 586.200175,2820.71742 586.531843,2820.6234 C587.770557,2820.27178 589.693993,2819.91087 592.059588,2819.62689 C593.242386,2819.4849 594.52566,2819.34064 595.92235,2819.22829 Z M625.359256,2819.22829 C626.779669,2819.34184 628.088228,2819.48279 629.288617,2819.62689 C631.654212,2819.91087 633.511049,2820.27178 634.749762,2820.6234 C635.065251,2820.71274 635.195965,2820.80362 635.415756,2820.88914 C635.200321,2820.9721 635.05363,2821.00335 634.749762,2821.08844 C633.511049,2821.44006 631.654212,2821.80097 629.288617,2822.08495 C628.088228,2822.22905 626.779669,2822.37 625.359256,2822.48355 C625.459253,2821.39788 625.492476,2820.31184 625.359256,2819.22829 Z M597.85373,2825.20734 L599.984909,2825.20734 L623.427875,2825.20734 L623.427875,2825.80525 C623.421536,2825.87153 623.421536,2825.93826 623.427875,2826.00455 L623.427875,2830.05702 L623.427875,2833.97662 L623.427875,2834.10949 C623.416587,2834.19771 623.416587,2834.287 623.427875,2834.37522 C623.319155,2839.13288 621.312629,2842.99118 617.96673,2845.20395 C617.667423,2845.24819 617.40108,2845.41726 617.234137,2845.66899 C615.373518,2846.70594 613.164907,2847.2634 610.640803,2847.2634 C602.827963,2847.2634 597.85373,2841.80438 597.85373,2833.97662 L597.85373,2825.20734 Z M595.589353,2827.39966 L595.589353,2829.99058 L595.589353,2832.51507 C594.477386,2832.06901 593.591373,2831.25795 593.591373,2829.99058 C593.591373,2828.72322 594.477386,2827.84551 595.589353,2827.39966 Z M625.625653,2827.53253 C626.692447,2827.98944 627.557034,2828.82475 627.557034,2830.05702 C627.557034,2831.28928 626.692447,2832.12438 625.625653,2832.58151 L625.625653,2830.05702 L625.625653,2827.53253 Z M632.751782,2833.51158 C632.728612,2833.53274 632.70639,2833.5549 632.685183,2833.57802 C632.228765,2833.72718 631.928767,2834.16245 631.95259,2834.64096 L631.95259,2845.80186 C631.95259,2847.21791 633.129992,2848.39278 634.549964,2848.39278 L640.344106,2848.39278 L640.344106,2872.97333 C640.364043,2873.54602 640.835235,2874 641.409696,2874 C641.984157,2874 642.455348,2873.54602 642.475285,2872.97333 L642.475285,2848.39278 L648.402626,2848.39278 C649.822598,2848.39278 651,2847.21791 651,2845.80186 L651,2834.70739 C650.980063,2834.1347 650.508872,2833.68072 649.934411,2833.68072 C649.35995,2833.68072 648.888758,2834.1347 648.868821,2834.70739 L648.868821,2845.80186 C648.868821,2846.07711 648.678418,2846.26689 648.402626,2846.26689 L646.737643,2846.26689 L646.737643,2834.64096 C646.743305,2834.32087 646.604053,2834.01528 646.358565,2833.80907 C646.113077,2833.60285 645.787498,2833.51798 645.472255,2833.57802 C644.962816,2833.67498 644.597325,2834.1237 644.606464,2834.64096 L644.606464,2846.26689 L642.475285,2846.26689 L642.475285,2834.64096 C642.480947,2834.32087 642.341696,2834.01528 642.096208,2833.80907 C641.85072,2833.60285 641.52514,2833.51798 641.209898,2833.57802 C640.700459,2833.67498 640.334967,2834.1237 640.344106,2834.64096 L640.344106,2846.26689 L638.279527,2846.26689 L638.279527,2834.64096 C638.285189,2834.32087 638.145938,2834.01528 637.90045,2833.80907 C637.654962,2833.60285 637.329382,2833.51798 637.01414,2833.57802 C636.504701,2833.67498 636.139209,2834.1237 636.148348,2834.64096 L636.148348,2846.26689 L634.549964,2846.26689 C634.274177,2846.26689 634.083769,2846.07775 634.083769,2845.80186 L634.083769,2834.64096 C634.11697,2834.29502 633.978567,2833.95474 633.71312,2833.72967 C633.447673,2833.5046 633.088701,2833.42316 632.751782,2833.51158 Z M604.180667,2847.99418 C606.09645,2848.86964 608.257734,2849.38929 610.640803,2849.38929 C613.02387,2849.38929 615.185156,2848.86928 617.100938,2847.99418 L617.100938,2853.04315 C617.100938,2856.53596 614.177066,2859.68655 610.640803,2859.68655 C607.056991,2859.68655 604.180667,2856.8726 604.180667,2853.37532 L604.180667,2852.71098 C604.197971,2852.60093 604.197971,2852.48886 604.180667,2852.37881 L604.180667,2847.99418 Z M602.116088,2853.97323 C602.444262,2858.34425 606.134892,2861.81243 610.640803,2861.81243 C615.085319,2861.81243 618.62893,2858.23989 619.098918,2853.97323 C619.856932,2854.20525 620.576352,2854.47954 621.296696,2854.77044 L621.296696,2865.4663 L599.984909,2865.4663 L599.984909,2854.704 C600.6718,2854.42754 601.397009,2854.1957 602.116088,2853.97323 Z M597.85373,2855.70051 L597.85373,2865.99777 L593.458174,2871.77752 L585.466254,2871.77752 C586.63519,2864.84469 591.314163,2859.0309 597.85373,2855.70051 Z M623.427875,2855.76694 C629.9835,2859.12665 634.593498,2864.9457 635.748752,2871.77752 L627.623633,2871.77752 L623.427875,2866.13064 L623.427875,2855.76694 Z M599.318916,2867.52575 L621.829491,2867.52575 L625.159458,2871.77752 L595.92235,2871.77752 L599.318916,2867.52575 Z" id="farmer"></path>
        </g>
    </g>
</svg>