<?xml version="1.0" encoding="UTF-8"?>
<svg width="409px" height="241px" viewBox="0 0 409 241" version="1.1" xmlns="http://www.w3.org/2000/svg" xmlns:xlink="http://www.w3.org/1999/xlink">
    <!-- Generator: sketchtool 49.1 (51147) - http://www.bohemiancoding.com/sketch -->
    <title>71BD3A83-AD3A-443F-8BC4-0933C016B54B</title>
    <desc>Created with sketchtool.</desc>
    <defs>
        <polygon id="path-1" points="0 1.08313187 7.6635514 1.08313187 7.6635514 34.7322572 0 34.7322572"></polygon>
        <polygon id="path-3" points="1.18283787 1.08313187 6.47953271 1.08313187 6.47953271 34.1749974 1.18283787 34.1749974"></polygon>
        <polygon id="path-5" points="0.292619938 0.938542772 41.1251713 0.938542772 41.1251713 46.0904771 0.292619938 46.0904771"></polygon>
    </defs>
    <g id="Playbook" stroke="none" stroke-width="1" fill="none" fill-rule="evenodd">
        <g id="Playbook-Landing-v1.1" transform="translate(-515.000000, -319.000000)">
            <g id="Page-1" transform="translate(515.000000, 317.727273)">
                <path d="M307.075822,168.394847 C306.771835,167.88544 306.259654,167.517536 305.661897,167.376034 C297.228159,165.384718 288.508315,164.374909 279.747598,164.374909 C265.112769,164.374909 250.928813,167.130335 237.592956,172.561431 C225.392583,177.533289 214.408159,184.523478 204.911741,193.358335 C201.59981,190.281314 198.078408,187.40111 194.356477,184.740876 C185.285386,178.260094 175.258907,173.220058 164.552925,169.762268 C153.481648,166.187419 141.882863,164.374909 130.078439,164.374909 C121.315168,164.374909 112.596601,165.384718 104.162863,167.376034 C103.565106,167.517536 103.054202,167.88544 102.748938,168.394847 C102.44495,168.904253 102.373424,169.508852 102.553517,170.068427 C105.84629,180.362039 110.835262,190.05877 117.382489,198.889768 C123.841586,207.601133 131.664794,215.266671 140.633704,221.675415 C149.704794,228.157484 159.731274,233.19752 170.437255,236.654023 C173.473299,237.634244 176.551492,238.476823 179.66034,239.192051 C179.987318,239.267947 180.314296,239.343843 180.642551,239.415881 C181.000184,239.49435 181.357816,239.56896 181.715449,239.644856 C181.969623,239.697598 182.223798,239.751626 182.479249,239.803081 C182.853486,239.877691 183.227723,239.952301 183.60196,240.024338 C183.819093,240.066789 184.036227,240.10538 184.254639,240.145258 C185.089966,240.30091 185.925293,240.447557 186.764452,240.583914 C186.843642,240.596777 186.921555,240.610928 187.000745,240.622505 C187.417131,240.689397 187.834794,240.752429 188.251181,240.814176 C188.45171,240.843762 188.65224,240.873349 188.852769,240.901649 C189.264047,240.960823 189.674047,241.017424 190.086601,241.071452 C190.273081,241.097179 190.458283,241.119048 190.644763,241.143489 C191.406009,241.238681 192.168533,241.327441 192.932333,241.408483 C193.132863,241.429065 193.332115,241.45222 193.532645,241.472802 C193.899218,241.508821 194.267069,241.542267 194.634919,241.575712 C194.91847,241.60144 195.203299,241.627168 195.48685,241.650323 C195.826601,241.678623 196.165075,241.705637 196.503548,241.731364 C196.888003,241.758378 197.272458,241.784106 197.656913,241.808547 C198.00305,241.830416 198.349187,241.852284 198.695324,241.87158 C199.207505,241.89988 199.719685,241.924321 200.231866,241.944904 C200.469436,241.955195 200.707006,241.961626 200.944576,241.970631 C201.398003,241.987354 201.85143,242.000218 202.304857,242.010509 C202.516882,242.014368 202.728907,242.019514 202.940931,242.023373 C203.597442,242.03495 204.255231,242.042668 204.913019,242.042668 C205.56953,242.042668 206.227318,242.03495 206.883829,242.023373 C207.095854,242.019514 207.307879,242.014368 207.519903,242.010509 C207.97333,242.000218 208.426757,241.987354 208.880184,241.970631 C209.117754,241.961626 209.355324,241.955195 209.592894,241.944904 C210.106352,241.924321 210.618533,241.89988 211.130713,241.870293 C211.475573,241.852284 211.820433,241.830416 212.165293,241.808547 C212.551025,241.784106 212.936757,241.758378 213.322489,241.731364 C213.659685,241.705637 213.998159,241.678623 214.336632,241.650323 C214.621461,241.627168 214.90629,241.60144 215.192396,241.575712 C215.558969,241.542267 215.925542,241.508821 216.292115,241.472802 C216.493922,241.45222 216.695729,241.429065 216.898813,241.407197 C217.658782,241.326155 218.418751,241.238681 219.176165,241.143489 C219.363922,241.119048 219.551679,241.097179 219.739436,241.071452 C220.149436,241.017424 220.560713,240.960823 220.969436,240.901649 C221.171243,240.873349 221.37305,240.843762 221.576134,240.814176 C221.991243,240.751143 222.407629,240.689397 222.822738,240.622505 C222.90576,240.609641 222.988782,240.595491 223.070526,240.581341 C223.905854,240.446271 224.737349,240.299624 225.568844,240.146544 C225.785978,240.10538 226.004389,240.066789 226.222801,240.024338 C226.597037,239.952301 226.971274,239.877691 227.344234,239.803081 C227.599685,239.751626 227.855137,239.697598 228.110589,239.644856 C228.468221,239.56896 228.824576,239.49435 229.182209,239.415881 C229.509187,239.343843 229.834888,239.267947 230.160589,239.193337 C233.271991,238.47811 236.350184,237.635531 239.387505,236.654023 C250.093486,233.19752 260.119966,228.157484 269.191056,221.675415 C278.159966,215.266671 285.981897,207.601133 292.440994,198.889768 C298.989498,190.05877 303.97847,180.362039 307.271243,170.068427 C307.451336,169.508852 307.37981,168.904253 307.075822,168.394847 M226.447598,235.617201 C225.996726,235.708534 225.545854,235.796008 225.092427,235.883481 C224.847193,235.929791 224.600682,235.976101 224.352894,236.019838 C224.014421,236.08287 223.673393,236.14333 223.333642,236.202504 C223.117785,236.239809 222.899374,236.275827 222.68224,236.31056 C222.080651,236.410897 221.479062,236.504803 220.877474,236.59485 C220.66034,236.627009 220.443206,236.659169 220.224794,236.690042 C219.870994,236.74021 219.515916,236.790379 219.160838,236.836689 C218.93604,236.867562 218.709966,236.89329 218.485168,236.92159 C217.912956,236.993627 217.339467,237.061805 216.765978,237.124838 C216.505417,237.153138 216.243579,237.181439 215.983019,237.207166 C215.662427,237.240612 215.343112,237.272772 215.02252,237.301072 C214.664888,237.335804 214.305978,237.365391 213.948346,237.396264 C213.563891,237.427137 213.179436,237.45801 212.796259,237.485024 C212.413081,237.512038 212.031181,237.539052 211.648003,237.563494 C211.404047,237.577644 211.157536,237.591794 210.912302,237.605944 C210.378408,237.634244 209.843237,237.661258 209.308065,237.683127 C209.176508,237.688272 209.042396,237.692132 208.910838,237.697277 C208.374389,237.717859 207.836664,237.732009 207.300215,237.743587 C207.125231,237.747446 206.951523,237.751305 206.777816,237.753878 C206.155791,237.765455 205.535044,237.773174 204.913019,237.773174 C204.28333,237.773174 203.652364,237.765455 203.023953,237.753878 C202.820869,237.750019 202.616508,237.744873 202.413424,237.741014 C201.979156,237.730723 201.544888,237.719146 201.111897,237.703709 C200.883268,237.694704 200.655916,237.688272 200.427287,237.677981 C199.936819,237.658686 199.445075,237.634244 198.954607,237.608517 C198.623798,237.589221 198.292988,237.568639 197.962178,237.548057 C197.59305,237.523616 197.225199,237.500461 196.857349,237.473447 C196.531648,237.450292 196.207224,237.421992 195.881523,237.396264 C195.609467,237.373109 195.336134,237.349955 195.064078,237.324227 C194.712832,237.293354 194.360308,237.261194 194.009062,237.225176 C193.814919,237.20588 193.620776,237.184012 193.426632,237.163429 C192.698595,237.086247 191.970558,237.002632 191.243798,236.910013 C191.064981,236.886858 190.886165,236.866276 190.707349,236.841834 C190.312676,236.790379 189.920558,236.735065 189.527162,236.679751 C189.334296,236.652737 189.14143,236.62315 188.947287,236.59485 C188.548782,236.535676 188.150277,236.476503 187.75305,236.412184 C187.672583,236.39932 187.59467,236.38517 187.514202,236.372306 C186.713361,236.242381 185.915075,236.103452 185.118065,235.955519 C184.91115,235.915641 184.704234,235.878336 184.497318,235.839745 C184.137131,235.77028 183.776944,235.698243 183.419312,235.626205 C183.176632,235.577323 182.935231,235.527154 182.693829,235.475699 C182.347692,235.403662 182.002832,235.330338 181.657972,235.255728 C181.361648,235.190123 181.066601,235.120658 180.771555,235.05248 C180.542925,235.001025 180.313019,234.94957 180.084389,234.896828 C180.07928,234.894255 180.072894,234.894255 180.067785,234.892969 C177.311461,234.242061 174.583237,233.48181 171.886944,232.610931 C161.634389,229.301076 152.029405,224.473292 143.341492,218.265222 C134.748097,212.122758 127.251866,204.777529 121.063548,196.432783 C115.253299,188.596156 110.72414,180.050735 107.583361,170.997193 C114.932707,169.436814 122.487692,168.644404 130.078439,168.644404 C141.387287,168.644404 152.499436,170.382304 163.103237,173.80536 C173.357069,177.116502 182.960776,181.944286 191.648688,188.152355 C200.243361,194.294819 207.738315,201.640049 213.926632,209.984795 C218.048346,215.543243 221.521212,221.461876 224.315854,227.662228 C224.324794,227.77157 224.340121,227.882198 224.366944,227.992827 C224.455075,228.349154 224.633891,228.664317 224.874016,228.920307 C225.797474,231.054411 226.644296,233.221961 227.406819,235.419098 C227.087505,235.48599 226.76819,235.551595 226.447598,235.617201 M288.759935,196.432783 C282.571617,204.777529 275.076664,212.122758 266.484545,218.265222 C257.795355,224.473292 248.190371,229.301076 237.937816,232.610931 C235.905698,233.268271 233.855698,233.861292 231.789093,234.392567 C231.158128,232.556903 230.470963,230.743107 229.733984,228.948607 C243.108159,225.568001 255.750464,219.376655 266.44495,210.950866 C277.730807,202.058122 286.86576,190.67366 292.858657,178.027259 C293.153704,177.407224 293.116664,176.690711 292.76414,176.097689 C292.41034,175.505955 291.779374,175.10975 291.067941,175.03128 C287.329405,174.61578 283.521897,174.4061 279.747598,174.4061 C266.420682,174.4061 253.515262,176.938982 241.391523,181.933995 C230.442863,186.445329 220.597754,192.760168 212.092489,200.72286 C210.790963,199.248668 209.446009,197.809209 208.061461,196.408342 C217.160651,187.945248 227.68143,181.247068 239.367069,176.486176 C252.140931,171.282769 265.725854,168.644404 279.747598,168.644404 C287.337069,168.644404 294.892053,169.436814 302.241399,170.997193 C299.099343,180.050735 294.570184,188.596156 288.759935,196.432783" id="Fill-1" fill="#FFFFFF"></path>
                <path d="M181.924408,189.44298 C166.200078,179.57516 147.890576,174.360176 128.9731,174.360176 C125.202632,174.360176 121.397679,174.571142 117.662975,174.986643 C116.951542,175.066399 116.321854,175.46389 115.968053,176.056911 C115.61553,176.649932 115.579766,177.366446 115.874813,177.989054 C123.383816,193.874559 135.455187,207.35582 150.78229,216.972797 C163.324969,224.845441 177.512757,229.751694 192.341729,231.417556 C192.369829,231.421416 192.395374,231.427847 192.423474,231.43042 C192.575467,231.447143 192.727461,231.461293 192.880732,231.478016 C193.068489,231.497312 193.256246,231.517894 193.444003,231.53719 C193.797804,231.571922 194.152882,231.605368 194.50796,231.637527 C194.700826,231.65425 194.893692,231.673546 195.087835,231.690269 C195.513162,231.726288 195.939766,231.759733 196.366371,231.78932 C196.614159,231.807329 196.861947,231.824052 197.111012,231.839489 C197.478863,231.86393 197.846713,231.887085 198.214564,231.906381 C198.448302,231.920531 198.68204,231.929536 198.914502,231.941113 C199.223598,231.955263 199.533972,231.969413 199.843069,231.979704 C200.071698,231.988709 200.301604,231.997714 200.530234,232.004146 C200.871262,232.015723 201.213567,232.024728 201.554595,232.029873 C201.746184,232.035019 201.937773,232.040164 202.129361,232.042737 C202.664533,232.051742 203.199704,232.056887 203.733598,232.056887 C207.504065,232.056887 211.310296,231.845921 215.045,231.43042 C215.755156,231.350665 216.384844,230.95446 216.738645,230.361438 C217.091168,229.768417 217.126931,229.050617 216.833162,228.429296 C209.321604,212.542504 197.251511,199.061243 181.924408,189.44298" id="Fill-3" fill="#FFFFFF"></path>
                <polygon id="Fill-5" fill="#FFFFFF" points="27.2681931 117.959621 12.5375701 117.959621 12.5375701 111.069771 29.7447975 111.069771 29.7447975 100.021054 0 100.021054 0 145.512592 12.5375701 145.512592 12.5375701 129.008338 27.2681931 129.008338"></polygon>
                <path d="M39.462053,100.020668 L25.3381277,145.512206 L38.1835171,145.512206 L40.7725202,135.40126 L51.3788754,135.40126 L53.9678785,145.512206 L67.2028318,145.512206 L53.0776293,100.020668 L39.462053,100.020668 Z M46.0897477,114.63523 C46.2021464,115.108618 46.3145452,115.584578 46.4269439,116.060539 C46.9876604,118.453205 47.5777539,120.749393 48.185729,122.888643 L48.6940779,124.939133 L43.487972,124.939133 L44.0282523,122.898934 C44.6323956,120.768689 45.2148255,118.47636 45.760215,116.08498 C45.8700592,115.598728 45.9799034,115.11505 46.0897477,114.63523 Z" id="Fill-7" fill="#FFFFFF"></path>
                <path d="M101.45648,123.302472 C102.973863,121.039729 103.74405,118.159525 103.74405,114.7429 C103.74405,111.993906 103.25486,109.638544 102.289252,107.739848 C101.32109,105.833433 99.9889097,104.279486 98.3284735,103.121744 C96.7114642,101.993589 94.8083489,101.181883 92.6727726,100.708495 C90.6138318,100.25183 88.3888474,100.020282 86.0578505,100.020282 L69.4062305,100.020282 L69.4062305,145.513107 L81.8365109,145.513107 L81.8365109,130.183318 L84.7243925,130.183318 L92.803053,145.513107 L106.863115,145.513107 L96.8187539,127.63114 C98.691215,126.555726 100.246916,125.103404 101.45648,123.302472 M91.5066355,114.7429 C91.5066355,116.372743 91.0417134,117.542062 90.0837695,118.31775 C89.0428037,119.162901 87.4270717,119.589979 85.2825545,119.589979 L81.8365109,119.589979 L81.8365109,110.612334 L85.2825545,110.612334 C87.4909346,110.612334 89.1539252,110.954511 90.2255452,111.628574 C90.5423053,111.827963 91.5066355,112.433848 91.5066355,114.7429" id="Fill-9" fill="#FFFFFF"></path>
                <path d="M130.284589,120.11032 L129.023935,123.860117 L127.772221,120.134761 L120.422875,100.020925 L107.964495,100.020925 L107.964495,145.512464 L119.521131,145.512464 L119.521131,128.442203 C119.521131,127.406667 119.480259,126.246352 119.397237,124.988273 L125.921474,141.793539 L131.678078,141.793539 L138.281505,124.788884 C138.27895,124.819757 138.276396,124.851916 138.275118,124.882789 C138.186988,126.164024 138.142283,127.361643 138.142283,128.442203 L138.142283,145.512464 L149.827922,145.512464 L149.827922,100.020925 L137.423187,100.020925 L130.284589,120.11032 Z" id="Fill-11" fill="#FFFFFF"></path>
                <polygon id="Fill-13" fill="#FFFFFF" points="170.346187 127.637701 185.124069 127.637701 185.124069 116.654589 170.346187 116.654589 170.346187 111.070414 187.722012 111.070414 187.722012 100.020411 157.540393 100.020411 157.540393 145.513236 188.387464 145.513236 188.387464 134.463232 170.346187 134.463232"></polygon>
                <path d="M225.946146,123.302472 C227.46353,121.039729 228.233717,118.159525 228.233717,114.7429 C228.233717,111.993906 227.744526,109.638544 226.778919,107.739848 C225.810757,105.833433 224.478576,104.279486 222.819417,103.121744 C221.201131,101.993589 219.298016,101.181883 217.162439,100.708495 C215.103498,100.25183 212.878514,100.020282 210.547517,100.020282 L193.895897,100.020282 L193.895897,145.513107 L206.327455,145.513107 L206.327455,130.183318 L209.214059,130.183318 L217.29272,145.513107 L231.351505,145.513107 L221.308421,127.63114 C223.180882,126.555726 224.73786,125.103404 225.946146,123.302472 M215.996302,114.7429 C215.996302,116.372743 215.53138,117.542062 214.573436,118.31775 C213.53247,119.162901 211.918016,119.589979 209.772221,119.589979 L206.327455,119.589979 L206.327455,110.612334 L209.772221,110.612334 C211.979324,110.612334 213.643592,110.954511 214.715212,111.628574 C215.031972,111.827963 215.996302,112.433848 215.996302,114.7429" id="Fill-15" fill="#FFFFFF"></path>
                <path d="M255.069941,118.664429 L249.608383,116.420982 C248.700252,116.026064 247.844489,115.659446 247.064084,115.330132 C246.364146,115.034265 245.745953,114.716529 245.229941,114.387216 C244.811,114.118362 244.490408,113.830213 244.277106,113.526628 C244.132776,113.32338 244.063804,113.057099 244.063804,112.713636 C244.063804,111.967535 244.310315,111.477424 244.89019,111.072215 C245.611841,110.567954 246.656639,110.311964 247.995206,110.311964 C249.484489,110.311964 250.847324,110.571813 252.049224,111.086365 C253.311156,111.626645 254.602464,112.416482 255.886109,113.434008 L257.033087,114.342192 L263.671,105.992301 L262.732215,105.039093 C260.7729,103.05035 258.464894,101.514412 255.874614,100.472444 C253.298383,99.4356223 250.646794,98.9107793 247.995206,98.9107793 C245.622059,98.9107793 243.404738,99.2735384 241.408383,99.9874792 C239.396701,100.709138 237.626421,101.725378 236.147355,103.007899 C234.649131,104.307143 233.470221,105.853372 232.645112,107.600275 C231.813617,109.36133 231.392121,111.260026 231.392121,113.242338 C231.392121,115.009824 231.666732,116.626803 232.20829,118.048253 C232.744738,119.461984 233.480439,120.722637 234.389847,121.794191 C235.27371,122.836159 236.292963,123.75978 237.415673,124.53418 C238.51667,125.297004 239.671312,125.926043 240.847667,126.40329 L246.369255,128.774089 C247.281218,129.17158 248.1191,129.535625 248.879069,129.866225 C249.54452,130.155661 250.119287,130.465678 250.584209,130.7847 C250.945673,131.034258 251.213897,131.308257 251.382495,131.597692 C251.530657,131.849823 251.600907,132.1637 251.600907,132.556045 C251.600907,133.366465 251.330128,133.935045 250.722153,134.399428 C250.022215,134.937135 248.785829,135.221425 247.147106,135.221425 C245.57991,135.221425 243.952682,134.841943 242.307573,134.094556 C240.599879,133.321441 239.021187,132.307774 237.614925,131.084427 L236.474333,130.093914 L229.149255,139.030395 L230.162121,139.997753 C232.471405,142.200036 235.12938,143.874902 238.061966,144.973471 C240.975393,146.066893 243.943741,146.621323 246.887822,146.621323 C249.563679,146.621323 252.013461,146.225118 254.166919,145.442999 C256.331872,144.654448 258.190283,143.580321 259.69234,142.250204 C261.216109,140.900792 262.395019,139.304394 263.19586,137.504749 C263.996701,135.708963 264.402869,133.775534 264.402869,131.761063 C264.402869,128.376597 263.533056,125.586439 261.817698,123.467771 C260.166202,121.427573 257.895237,119.810593 255.069941,118.664429" id="Fill-17" fill="#FFFFFF"></path>
                <path d="M274.868598,132.197789 C272.841589,132.197789 271.118567,132.902725 269.749346,134.292015 C268.395452,135.667155 267.708287,137.399909 267.708287,139.441394 C267.708287,141.443001 268.395452,143.153886 269.749346,144.52774 C271.118567,145.91703 272.841589,146.621966 274.868598,146.621966 C276.895607,146.621966 278.618629,145.91703 279.989128,144.52774 C281.343022,143.153886 282.02891,141.443001 282.02891,139.441394 C282.02891,137.399909 281.343022,135.667155 279.989128,134.292015 C278.618629,132.902725 276.895607,132.197789 274.868598,132.197789" id="Fill-19" fill="#FFFFFF"></path>
                <path d="M305.574022,129.491889 L312.556794,129.491889 L312.556794,134.59753 C312.293679,134.7326 311.988414,134.847088 311.643555,134.939707 C310.955112,135.127519 310.232184,135.221425 309.496483,135.221425 C305.961031,135.221425 303.423118,134.200039 301.740969,132.099381 C300.010283,129.939549 299.132807,126.777627 299.132807,122.699803 C299.132807,120.703341 299.380595,118.899836 299.869785,117.338171 C300.34748,115.815097 301.024427,114.519713 301.885299,113.48675 C302.730844,112.47051 303.747542,111.6781 304.906016,111.133961 C306.064489,110.588536 307.36857,110.311964 308.786327,110.311964 C310.35991,110.311964 311.632059,110.548658 312.56829,111.0169 C313.568383,111.519875 314.542931,112.232529 315.465112,113.135568 L316.563555,114.210982 L323.718757,105.988441 L322.768477,104.987638 C321.285579,103.4234 319.362028,102.013528 317.052745,100.796612 C314.675766,99.5449646 311.85047,98.9107793 308.656047,98.9107793 C305.641717,98.9107793 302.752558,99.4574907 300.069037,100.536763 C297.368913,101.623754 294.980439,103.229157 292.970034,105.307946 C290.966016,107.382877 289.359224,109.941487 288.19181,112.914311 C287.02695,115.880703 286.436857,119.284464 286.436857,123.030402 C286.436857,126.820077 287.00396,130.218693 288.121561,133.134916 C289.248103,136.076867 290.830626,138.580162 292.826981,140.572765 C294.819505,142.564081 297.177324,144.089728 299.835299,145.104681 C302.465174,146.11063 305.324956,146.621323 308.3329,146.621323 C311.48262,146.621323 314.407542,146.073325 317.028477,144.99148 C319.641748,143.912207 321.796483,142.565367 323.432651,140.989552 L323.893741,140.545751 L323.893741,118.555087 L305.574022,118.555087 L305.574022,129.491889 Z" id="Fill-21" fill="#FFFFFF"></path>
                <path d="M364.392801,105.223946 C362.54333,103.170884 360.296632,101.586064 357.715293,100.511936 C355.158221,99.4493865 352.303548,98.9103934 349.233019,98.9103934 C346.161212,98.9103934 343.306539,99.4493865 340.74819,100.511936 C338.17196,101.583491 335.927816,103.156733 334.079623,105.184068 C332.239093,107.202398 330.797069,109.715984 329.793143,112.654076 C328.803268,115.553576 328.300028,118.88916 328.300028,122.56692 C328.300028,126.245966 328.803268,129.590554 329.791866,132.510636 C330.79196,135.464164 332.228875,138.016342 334.061741,140.096418 C335.909935,142.197077 338.152801,143.828207 340.729031,144.944784 C343.291212,146.057503 346.153548,146.622224 349.233019,146.622224 C352.311212,146.622224 355.172271,146.057503 357.737006,144.944784 C360.313237,143.828207 362.55738,142.197077 364.404296,140.097705 C366.23333,138.018915 367.670246,135.466737 368.674171,132.510636 C369.662769,129.587981 370.164732,126.243393 370.164732,122.56692 C370.164732,118.936756 369.662769,115.623041 368.671617,112.719682 C367.666414,109.78159 366.226944,107.260285 364.392801,105.223946 M357.266975,122.56692 C357.266975,126.607439 356.490402,129.806666 354.961523,132.077126 C353.536103,134.193221 351.662364,135.221039 349.233019,135.221039 C346.803673,135.221039 344.928657,134.193221 343.504514,132.077126 C341.973081,129.806666 341.199062,126.607439 341.199062,122.56692 C341.199062,118.584287 341.967972,115.472535 343.485355,113.316562 C344.910776,111.294373 346.7909,110.311578 349.233019,110.311578 C351.675137,110.311578 353.555262,111.294373 354.979405,113.316562 C356.496788,115.472535 357.266975,118.584287 357.266975,122.56692" id="Fill-23" fill="#FFFFFF"></path>
                <g id="Group-30" transform="translate(200.529595, 0.203248)">
                    <mask id="mask-2" fill="white">
                        <use xlink:href="#path-1"></use>
                    </mask>
                    <g id="Clip-26"></g>
                    <polygon id="Fill-25" fill="#FFFFFF" mask="url(#mask-2)" points="1.18274143 34.1752547 6.47953271 34.1752547 6.47953271 1.08313187 1.18274143 1.08313187"></polygon>
                    <g id="Group-29" mask="url(#mask-2)">
                        <mask id="mask-4" fill="white">
                            <use xlink:href="#path-3"></use>
                        </mask>
                        <g id="Clip-28"></g>
                        <path d="M3.65704673,34.1749974 L3.62894704,34.1749974 C2.26228037,34.1608472 1.16766978,33.1381752 1.18299688,31.8916731 L1.53168847,3.31603009 C1.54701558,2.07724626 2.65184424,1.0828746 4.00446106,1.0828746 L4.03383801,1.0828746 C5.39922741,1.09702477 6.49511526,2.11969679 6.47978816,3.36619891 L6.13109657,31.9418419 C6.11449221,33.1806257 5.01094081,34.1749974 3.65704673,34.1749974" id="Fill-27" fill="#FFFFFF" mask="url(#mask-4)"></path>
                    </g>
                </g>
                <path d="M174.880199,38.9955774 C173.853283,38.9955774 172.891508,38.421852 172.531321,37.5046631 L162.088455,10.8971814 C161.632474,9.73558033 162.31453,8.46335061 163.612224,8.05556818 C164.909919,7.64649938 166.330231,8.25752983 166.786212,9.41913087 L177.229078,36.027899 C177.685059,37.1882137 177.003003,38.4604434 175.705308,38.8682258 C175.433252,38.9544133 175.153533,38.9955774 174.880199,38.9955774" id="Fill-31" fill="#FFFFFF"></path>
                <path d="M148.403907,53.4196266 C147.673315,53.4196266 146.947832,53.1379094 146.448424,52.5924843 L126.16428,30.483473 C125.280417,29.5186881 125.43752,28.0946656 126.515526,27.3035419 C127.59481,26.5124183 129.188829,26.6526337 130.072692,27.6174186 L150.356835,49.7264299 C151.241975,50.6912148 151.084872,52.1152373 150.005589,52.9076474 C149.535558,53.2523972 148.967178,53.4196266 148.403907,53.4196266" id="Fill-33" fill="#FFFFFF"></path>
                <path d="M127.516131,74.5009489 C127.086972,74.5009489 126.651427,74.3941794 126.255477,74.1703493 L99.2644486,58.9267475 C98.0868162,58.2616891 97.6985296,56.811939 98.3959128,55.687643 C99.093296,54.5646333 100.614511,54.1941559 101.792143,54.8592143 L128.781894,70.1028161 C129.959526,70.7691608 130.34909,72.218911 129.651707,73.3419206 C129.18934,74.0867346 128.362953,74.5009489 127.516131,74.5009489" id="Fill-35" fill="#FFFFFF"></path>
                <path d="M280.077514,76.7200829 C279.220474,76.7200829 278.388978,76.2981503 277.938106,75.5481908 C277.275209,74.4419041 277.692872,73.03975 278.874336,72.4171421 L305.916455,58.1537619 C307.097919,57.531154 308.592312,57.9234999 309.256486,59.0297866 C309.92066,60.1360733 309.50172,61.5382274 308.321533,62.1608352 L281.27686,76.4242155 C280.898791,76.6248908 280.48496,76.7200829 280.077514,76.7200829" id="Fill-37" fill="#FFFFFF"></path>
                <path d="M260.266212,54.5295151 C259.696555,54.5295151 259.121788,54.3468492 258.655589,53.9763718 C257.619732,53.1505159 257.49967,51.7007657 258.389919,50.73984 L278.780075,28.7002932 C279.670324,27.738081 281.232411,27.6274524 282.269545,28.4533083 C283.305402,29.2791642 283.425464,30.7289143 282.535215,31.6898401 L262.145059,53.7293868 C261.654592,54.258089 260.962318,54.5295151 260.266212,54.5295151" id="Fill-39" fill="#FFFFFF"></path>
                <path d="M233.739467,40.1048228 C233.459748,40.1048228 233.176196,40.0585131 232.899031,39.9607483 C231.665199,39.5233791 231.041897,38.2292809 231.506819,37.0689663 L242.154047,10.4910712 C242.618969,9.33204295 243.995854,8.74545372 245.229685,9.18282288 C246.463517,9.61890567 247.086819,10.9142902 246.621897,12.0733185 L235.97467,38.6512135 C235.614483,39.5503931 234.705075,40.1048228 233.739467,40.1048228" id="Fill-41" fill="#FFFFFF"></path>
                <path d="M218.308779,36.7764435 C218.173389,36.7764435 218.035445,36.7648661 217.898779,36.7417112 C216.604916,36.524313 215.738935,35.3318388 215.965009,34.0801912 L221.126411,5.3964923 C221.352486,4.14484466 222.582486,3.30612497 223.875072,3.52480955 C225.168935,3.74220775 226.033639,4.93468192 225.808841,6.18632956 L220.646162,34.8700285 C220.445632,35.9878926 219.441707,36.7764435 218.308779,36.7764435" id="Fill-43" fill="#FFFFFF"></path>
                <path d="M187.137539,36.7764435 C186.021215,36.7764435 185.032617,35.9930381 184.828255,34.8777467 L179.610654,6.19790697 C179.383302,4.94497296 180.232679,3.74992603 181.509938,3.52609593 C182.785919,3.30355221 184.005701,4.13584 184.233053,5.38877402 L189.451931,34.0699002 C189.679283,35.3215478 188.829907,36.5165947 187.552648,36.7404248 C187.413427,36.7648661 187.274206,36.7764435 187.137539,36.7764435" id="Fill-45" fill="#FFFFFF"></path>
                <path d="M158.47228,45.6529793 C157.65228,45.6529793 156.855271,45.2400514 156.415894,44.5003829 L141.335302,19.1702764 C140.677514,18.0652761 141.064523,16.6489718 142.198729,16.0083546 C143.332935,15.3677374 144.786455,15.7433604 145.444243,16.8483607 L160.523558,42.1771808 C161.182623,43.2834675 160.795614,44.6984854 159.661408,45.340389 C159.285894,45.5513553 158.875894,45.6529793 158.47228,45.6529793" id="Fill-47" fill="#FFFFFF"></path>
                <path d="M135.262704,64.5152963 C134.709651,64.5152963 134.152766,64.3390623 133.695508,63.9788759 L109.943607,45.2864897 C108.907751,44.4696384 108.76853,43.0173155 109.635788,42.0409532 C110.501769,41.0645909 112.044698,40.9346665 113.080555,41.7502313 L136.832455,60.443904 C137.869589,61.2594688 138.006255,62.7130781 137.140274,63.6881541 C136.656193,64.2335792 135.961364,64.5152963 135.262704,64.5152963" id="Fill-49" fill="#FFFFFF"></path>
                <path d="M270.162539,63.4054078 C269.463879,63.4054078 268.770327,63.1275497 268.284969,62.5898429 C267.412601,61.6199125 267.544159,60.1727351 268.581293,59.3558839 L292.317866,40.6454883 C293.353723,39.828637 294.90176,39.9521295 295.775405,40.9207736 C296.646495,41.890704 296.514938,43.3378814 295.479081,44.1547326 L271.741231,62.8664146 C271.281417,63.2278873 270.720701,63.4054078 270.162539,63.4054078" id="Fill-51" fill="#FFFFFF"></path>
                <path d="M246.958583,45.6529793 C246.556246,45.6529793 246.146246,45.5539281 245.770732,45.3455345 C244.627586,44.7100628 244.232913,43.2976177 244.890701,42.1926174 L259.94447,16.8547926 C260.602259,15.7485059 262.060888,15.3677374 263.205312,16.0019227 C264.347181,16.6373944 264.741854,18.0498395 264.085343,19.1548398 L249.030296,44.493951 C248.589642,45.2374786 247.784969,45.6529793 246.958583,45.6529793" id="Fill-53" fill="#FFFFFF"></path>
                <path d="M180.948966,82.2675962 C180.172393,82.2675962 179.407315,81.9369966 178.925788,81.3169614 C178.136442,80.3045805 178.403389,78.9037128 179.519713,78.1884855 C186.686411,73.5986821 194.992424,71.1725696 203.539838,71.1725696 C204.906505,71.1725696 206.013888,72.1772323 206.013888,73.4173025 C206.013888,74.6573727 204.906505,75.6620354 203.539838,75.6620354 C196.020617,75.6620354 188.701925,77.8038579 182.374386,81.857241 C181.941396,82.1338127 181.441988,82.2675962 180.948966,82.2675962" id="Fill-55" fill="#FFFFFF"></path>
                <path d="M158.900673,81.1583508 C158.334847,81.1583508 157.76519,80.9718257 157.300268,80.5923436 C156.266966,79.7459057 156.145626,78.2575641 157.029489,77.2670516 C168.684474,64.2270186 185.640081,56.7480059 203.551078,56.7480059 C204.910081,56.7480059 206.013632,57.8041238 206.013632,59.1059403 C206.013632,60.4090431 204.910081,61.4638746 203.551078,61.4638746 C187.082106,61.4638746 171.490611,68.3421479 160.774411,80.3324949 C160.286498,80.87792 159.595502,81.1583508 158.900673,81.1583508" id="Fill-57" fill="#FFFFFF"></path>
                <path d="M140.210165,78.9392168 C139.755461,78.9392168 139.295648,78.8285882 138.883093,78.594467 C137.711847,77.9332678 137.358047,76.5426911 138.09247,75.489146 C145.02543,65.5351383 154.689168,57.2186923 166.037611,51.4389874 C177.744963,45.4753302 191.084651,42.3236995 204.613374,42.3236995 C205.995368,42.3236995 207.115523,43.3335077 207.115523,44.5774371 C207.115523,45.8213664 205.995368,46.8298883 204.613374,46.8298883 C191.945523,46.8298883 179.459044,49.7795574 168.501442,55.3598734 C157.874651,60.77296 148.825274,68.5619902 142.331692,77.8830989 C141.856551,78.5648803 141.042938,78.9392168 140.210165,78.9392168" id="Fill-59" fill="#FFFFFF"></path>
                <path d="M226.67214,82.2675962 C226.177841,82.2675962 225.680988,82.1338127 225.24672,81.857241 C218.919181,77.8038579 211.600489,75.6620354 204.081268,75.6620354 C202.715879,75.6620354 201.607218,74.6573727 201.607218,73.4173025 C201.607218,72.1772323 202.715879,71.1725696 204.081268,71.1725696 C212.628682,71.1725696 220.934695,73.5986821 228.101393,78.1884855 C229.217717,78.9037128 229.484664,80.3045805 228.695318,81.3169614 C228.213791,81.9369966 227.448713,82.2675962 226.67214,82.2675962" id="Fill-61" fill="#FFFFFF"></path>
                <path d="M248.719794,81.1583508 C248.024966,81.1583508 247.333969,80.87792 246.846056,80.3324949 C236.131134,68.3421479 220.539639,61.4638746 204.070667,61.4638746 C202.710386,61.4638746 201.606835,60.4090431 201.606835,59.1059403 C201.606835,57.8041238 202.710386,56.7480059 204.070667,56.7480059 C221.980386,56.7480059 238.937271,64.2270186 250.592255,77.2670516 C251.474841,78.2575641 251.354779,79.7459057 250.320199,80.5923436 C249.856555,80.9718257 249.286897,81.1583508 248.719794,81.1583508" id="Fill-63" fill="#FFFFFF"></path>
                <path d="M268.513598,78.9392168 C267.680826,78.9392168 266.865935,78.5648803 266.390794,77.8830989 C259.898489,68.5619902 250.849112,60.77296 240.221044,55.3598734 C229.26472,49.7795574 216.776963,46.8298883 204.109112,46.8298883 C202.727118,46.8298883 201.606963,45.8213664 201.606963,44.5774371 C201.606963,43.3335077 202.727118,42.3236995 204.109112,42.3236995 C217.637835,42.3236995 230.977523,45.4753302 242.684875,51.4389874 C254.033318,57.2186923 263.697056,65.5351383 270.630016,75.489146 C271.364439,76.5426911 271.010639,77.9332678 269.84067,78.594467 C269.426838,78.8285882 268.967025,78.9392168 268.513598,78.9392168" id="Fill-65" fill="#FFFFFF"></path>
                <g id="Group-69" transform="translate(367.850467, 99.254500)">
                    <mask id="mask-6" fill="white">
                        <use xlink:href="#path-5"></use>
                    </mask>
                    <g id="Clip-68"></g>
                    <path d="M0.292619938,0.938542772 L12.8455171,0.938542772 L17.5356106,20.6664648 C18.7783832,25.4595163 19.6047695,30.1136388 20.8462648,34.9748684 L21.1234299,34.9748684 C22.363648,30.1136388 23.2602835,25.4595163 24.4328069,20.6664648 L28.9862336,0.938542772 L41.1252991,0.938542772 L27.8826822,46.0904771 L13.5352368,46.0904771 L0.292619938,0.938542772 Z" id="Fill-67" fill="#FFFFFF" mask="url(#mask-6)"></path>
                </g>
            </g>
        </g>
    </g>
</svg>