<?xml version="1.0" encoding="UTF-8"?>
<svg width="220px" height="130px" viewBox="0 0 220 130" version="1.1" xmlns="http://www.w3.org/2000/svg" xmlns:xlink="http://www.w3.org/1999/xlink">
    <!-- Generator: Sketch 49.1 (51147) - http://www.bohemiancoding.com/sketch -->
    <title>Page 1</title>
    <desc>Created with Sketch.</desc>
    <defs>
        <polygon id="path-1" points="0 0.581192712 4.11214953 0.581192712 4.11214953 18.6368209 0 18.6368209"></polygon>
        <polygon id="path-3" points="0.634693491 0.581192712 3.47682243 0.581192712 3.47682243 18.3378035 0.634693491 18.3378035"></polygon>
        <polygon id="path-5" points="0.157015576 0.503608317 22.0671651 0.503608317 22.0671651 24.7314755 0.157015576 24.7314755"></polygon>
    </defs>
    <g id="Page-1" stroke="none" stroke-width="1" fill="none" fill-rule="evenodd">
        <g id="Home-v7" transform="translate(-610.000000, -269.000000)">
            <g id="Page-1" transform="translate(610.000000, 269.000000)">
                <path d="M164.772393,90.3582104 C164.609277,90.0848703 164.334449,89.8874581 164.013701,89.8115303 C159.48828,88.7430192 154.80934,88.2011709 150.108467,88.2011709 C142.255632,88.2011709 134.644729,89.679692 127.488903,92.5939386 C120.942361,95.261765 115.04828,99.0125978 109.952642,103.753253 C108.175508,102.102169 106.285975,100.556693 104.288841,99.1292505 C99.4214268,95.6517578 94.0413645,92.947348 88.2966916,91.0919489 C82.3560062,89.1737369 76.1322679,88.2011709 69.7981869,88.2011709 C65.0959439,88.2011709 60.4176885,88.7430192 55.8922679,89.8115303 C55.5715202,89.8874581 55.2973769,90.0848703 55.1335763,90.3582104 C54.9704611,90.6315504 54.932081,90.9559691 55.0287165,91.256229 C56.7955701,96.7796306 59.4725794,101.982755 62.9857259,106.721339 C66.4515826,111.39573 70.6494019,115.508945 75.4619875,118.947784 C80.3294019,122.425967 85.7094642,125.130377 91.4541371,126.985086 C93.0832336,127.511058 94.734947,127.963173 96.403109,128.346954 C96.5785607,128.387679 96.7540125,128.428404 96.9301495,128.467058 C97.1220498,128.509163 97.3139502,128.549198 97.5058505,128.589923 C97.6422368,128.618223 97.7786231,128.647214 97.9156947,128.674824 C98.1165047,128.714859 98.3173146,128.754893 98.5181246,128.793547 C98.6346355,128.816326 98.7511464,128.837033 98.8683427,128.858431 C99.316567,128.941952 99.7647913,129.020641 100.215072,129.093807 C100.257564,129.10071 100.299371,129.108303 100.341863,129.114515 C100.56529,129.150408 100.789402,129.18423 101.012829,129.217363 C101.12043,129.233238 101.228031,129.249114 101.335632,129.2643 C101.556318,129.296051 101.776318,129.326422 101.997688,129.355413 C102.097751,129.369218 102.197128,129.380952 102.29719,129.394067 C102.705664,129.445146 103.114822,129.492773 103.524667,129.536259 C103.632268,129.547303 103.739184,129.559728 103.846785,129.570772 C104.043483,129.590099 104.240866,129.608045 104.438249,129.625992 C104.590399,129.639797 104.743234,129.653602 104.895383,129.666027 C105.077688,129.681212 105.259308,129.695708 105.440928,129.709513 C105.647221,129.724008 105.853514,129.737813 106.059807,129.750928 C106.245539,129.762662 106.431271,129.774396 106.617003,129.78475 C106.891832,129.799936 107.16666,129.813051 107.441489,129.824095 C107.568966,129.829617 107.696442,129.833068 107.823919,129.8379 C108.067221,129.846873 108.310523,129.853775 108.553826,129.859297 C108.667595,129.861368 108.781364,129.864129 108.895134,129.8662 C109.247408,129.872412 109.600368,129.876554 109.953327,129.876554 C110.305601,129.876554 110.658561,129.872412 111.010835,129.8662 C111.124604,129.864129 111.238374,129.861368 111.352143,129.859297 C111.595445,129.853775 111.838748,129.846873 112.08205,129.8379 C112.209526,129.833068 112.337003,129.829617 112.46448,129.824095 C112.739994,129.813051 113.014822,129.799936 113.289651,129.78406 C113.474698,129.774396 113.659745,129.762662 113.844791,129.750928 C114.051769,129.737813 114.258748,129.724008 114.465726,129.709513 C114.64666,129.695708 114.82828,129.681212 115.0099,129.666027 C115.162735,129.653602 115.31557,129.639797 115.46909,129.625992 C115.665788,129.608045 115.862486,129.590099 116.059184,129.570772 C116.16747,129.559728 116.275757,129.547303 116.384729,129.535569 C116.792517,129.492083 117.200305,129.445146 117.606723,129.394067 C117.70747,129.380952 117.808218,129.369218 117.908966,129.355413 C118.128966,129.326422 118.349651,129.296051 118.568966,129.2643 C118.677252,129.249114 118.785539,129.233238 118.894511,129.217363 C119.117252,129.18354 119.340679,129.150408 119.563421,129.114515 C119.607969,129.107612 119.652517,129.10002 119.69638,129.092427 C120.144604,129.01995 120.590773,128.941261 121.036941,128.859121 C121.153452,128.837033 121.270648,128.816326 121.387844,128.793547 C121.588654,128.754893 121.789464,128.714859 121.989589,128.674824 C122.12666,128.647214 122.263732,128.618223 122.400804,128.589923 C122.592704,128.549198 122.783919,128.509163 122.975819,128.467058 C123.151271,128.428404 123.326037,128.387679 123.500804,128.347644 C125.170336,127.963864 126.82205,127.511748 128.451832,126.985086 C134.196505,125.130377 139.576567,122.425967 144.443981,118.947784 C149.256567,115.508945 153.453701,111.39573 156.919558,106.721339 C160.433389,101.982755 163.110399,96.7796306 164.877252,91.256229 C164.973888,90.9559691 164.935508,90.6315504 164.772393,90.3582104 M121.508467,126.428742 C121.266536,126.47775 121.024604,126.524687 120.781302,126.571624 C120.649713,126.596473 120.517439,126.621322 120.38448,126.644791 C120.20286,126.678613 120.019869,126.711055 119.837564,126.742807 C119.721738,126.762824 119.604542,126.782151 119.488031,126.800788 C119.165227,126.854628 118.842424,126.905016 118.51962,126.953334 C118.403109,126.97059 118.286598,126.987847 118.169402,127.004413 C117.979558,127.031332 117.789028,127.058252 117.598498,127.083101 C117.477875,127.099667 117.356567,127.113473 117.235944,127.128658 C116.928903,127.167312 116.621178,127.203896 116.313452,127.237718 C116.173639,127.252904 116.03314,127.268089 115.893327,127.281894 C115.721302,127.299841 115.549963,127.317097 115.377938,127.332283 C115.186037,127.350919 114.993452,127.366795 114.801551,127.383361 C114.595259,127.399927 114.388966,127.416493 114.183358,127.430989 C113.977751,127.445484 113.772829,127.459979 113.567221,127.473094 C113.436318,127.480687 113.304044,127.48828 113.172455,127.495872 C112.885975,127.511058 112.59881,127.525553 112.311645,127.537288 C112.241053,127.540049 112.16909,127.542119 112.098498,127.54488 C111.810648,127.555924 111.522112,127.563517 111.234262,127.569729 C111.140368,127.5718 111.047159,127.573871 110.95395,127.575252 C110.620181,127.581464 110.287097,127.585605 109.953327,127.585605 C109.615445,127.585605 109.276879,127.581464 108.939682,127.575252 C108.83071,127.573181 108.721053,127.57042 108.612081,127.568349 C108.379059,127.562827 108.146037,127.556615 107.913701,127.548332 C107.791022,127.5435 107.669028,127.540049 107.546349,127.534527 C107.283171,127.524173 107.019308,127.511058 106.756131,127.497253 C106.578623,127.486899 106.401115,127.475855 106.223607,127.464811 C106.025539,127.451696 105.828156,127.439272 105.630773,127.424776 C105.456006,127.412352 105.281925,127.397166 105.107159,127.383361 C104.961178,127.370937 104.814511,127.358512 104.66853,127.344707 C104.480056,127.328141 104.290897,127.310885 104.102424,127.291558 C103.998249,127.281204 103.894075,127.26947 103.7899,127.258426 C103.399246,127.21701 103.008592,127.172144 102.618623,127.122446 C102.522673,127.110021 102.426723,127.098977 102.330773,127.085862 C102.118997,127.058252 101.908592,127.028571 101.697502,126.998891 C101.594012,126.984395 101.490523,126.968519 101.386349,126.953334 C101.172517,126.921582 100.958685,126.889831 100.745539,126.855318 C100.702361,126.848415 100.660555,126.840823 100.617377,126.83392 C100.187657,126.764205 99.7593084,126.689657 99.3316449,126.610278 C99.2206168,126.588881 99.1095888,126.568863 98.9985607,126.548156 C98.8052897,126.510882 98.6120187,126.472228 98.4201184,126.433574 C98.2899003,126.407344 98.1603676,126.380424 98.0308349,126.352814 C97.8451028,126.31416 97.6600561,126.274816 97.4750093,126.234781 C97.3160062,126.199578 97.1576885,126.162304 96.9993707,126.125721 C96.8766916,126.098111 96.7533271,126.070501 96.630648,126.0422 C96.6279065,126.04082 96.6244798,126.04082 96.6217383,126.04013 C95.1427352,125.690862 93.67881,125.282923 92.2320187,124.815622 C86.730648,123.039601 81.5767539,120.449083 76.914947,117.117924 C72.3038567,113.821968 68.2814891,109.880625 64.9609283,105.402957 C61.8432336,101.197938 59.4129533,96.6125894 57.7276573,91.7545914 C61.6712087,90.917315 65.7251028,90.4921194 69.7981869,90.4921194 C75.8663489,90.4921194 81.8289657,91.4246507 87.51881,93.2614129 C93.020866,95.0381232 98.1740748,97.6286413 102.835882,100.9598 C107.447657,104.255757 111.46934,108.197099 114.7899,112.674768 C117.001551,115.65735 118.86504,118.833202 120.364604,122.16022 C120.369402,122.218891 120.377626,122.278253 120.392019,122.337615 C120.439308,122.528815 120.535259,122.697926 120.664106,122.835287 C121.15962,123.980416 121.614012,125.143492 122.023171,126.322443 C121.851832,126.358336 121.680492,126.393539 121.508467,126.428742 M154.944355,105.402957 C151.623794,109.880625 147.602112,113.821968 142.991707,117.117924 C138.329215,120.449083 133.175321,123.039601 127.67395,124.815622 C126.583545,125.168341 125.483545,125.486547 124.374636,125.771621 C124.036069,124.786631 123.667346,123.813375 123.271894,122.850472 C130.44828,121.036488 137.231956,117.714302 142.970461,113.193148 C149.026287,108.421431 153.927969,102.312696 157.14367,95.526822 C157.301988,95.1941203 157.282112,94.8096496 157.092953,94.4914431 C156.903109,94.1739269 156.564542,93.9613291 156.182798,93.9192237 C154.176754,93.6962721 152.133701,93.5837609 150.108467,93.5837609 C142.957439,93.5837609 136.032579,94.9428683 129.527159,97.6231193 C123.652268,100.043835 118.369526,103.432285 113.805726,107.704949 C113.107346,106.91392 112.385664,106.141527 111.642735,105.389842 C116.525227,100.84867 122.170523,97.2545244 128.440866,94.6998994 C135.295134,91.9078275 142.584604,90.4921194 150.108467,90.4921194 C154.180866,90.4921194 158.23476,90.917315 162.178312,91.7545914 C160.49233,96.6125894 158.06205,101.197938 154.944355,105.402957" id="Fill-1" fill="#FFFFFF"></path>
                <path d="M97.6179751,101.652331 C89.1805296,96.357403 79.355919,93.5591189 69.2050779,93.5591189 C67.1819003,93.5591189 65.1402181,93.6723203 63.1362305,93.8952719 C62.754486,93.9380676 62.4166044,94.1513556 62.2267601,94.4695621 C62.0376012,94.7877686 62.0184112,95.1722393 62.176729,95.5063215 C66.2059502,104.030251 72.683271,111.264099 80.9075701,116.424427 C87.6377882,120.648773 95.2507477,123.281397 103.207757,124.175274 C103.222835,124.177345 103.236542,124.180796 103.25162,124.182177 C103.333178,124.19115 103.414735,124.198743 103.496978,124.207716 C103.597726,124.21807 103.698474,124.229114 103.799221,124.239468 C103.989065,124.258104 104.179595,124.276051 104.370125,124.293307 C104.473614,124.302281 104.577103,124.312634 104.681277,124.321608 C104.909502,124.340935 105.138411,124.358881 105.367321,124.374757 C105.50028,124.384421 105.63324,124.393394 105.766885,124.401677 C105.964268,124.414792 106.161651,124.427216 106.359034,124.43757 C106.484455,124.445163 106.609875,124.449995 106.734611,124.456207 C106.900467,124.4638 107.067009,124.471393 107.232866,124.476915 C107.355545,124.481746 107.47891,124.486578 107.601589,124.490029 C107.784579,124.496242 107.968255,124.501073 108.151246,124.503834 C108.25405,124.506595 108.356854,124.509356 108.459657,124.510737 C108.746822,124.515569 109.033988,124.51833 109.320467,124.51833 C111.343645,124.51833 113.386012,124.405128 115.39,124.182177 C115.771059,124.139381 116.108941,123.926783 116.298785,123.608577 C116.487944,123.29037 116.507134,122.905209 116.349502,122.571817 C112.31891,114.047197 105.842274,106.81335 97.6179751,101.652331" id="Fill-3" fill="#FFFFFF"></path>
                <polygon id="Fill-5" fill="#FFFFFF" points="14.6317134 63.2954066 6.72747664 63.2954066 6.72747664 59.5984135 15.9606231 59.5984135 15.9606231 53.6698337 0 53.6698337 0 78.0799276 6.72747664 78.0799276 6.72747664 69.2239864 14.6317134 69.2239864"></polygon>
                <path d="M21.1747601,53.6696266 L13.5960685,78.0797205 L20.4887165,78.0797205 L21.8779377,72.6543349 L27.5691526,72.6543349 L28.9583738,78.0797205 L36.0600561,78.0797205 L28.4806791,53.6696266 L21.1747601,53.6696266 Z M24.7310841,61.5115867 C24.7913956,61.7655997 24.8517072,62.0209932 24.9120187,62.2763867 C25.212891,63.5602565 25.5295265,64.7923575 25.855757,65.9402476 L26.1285296,67.0405103 L23.3350093,67.0405103 L23.6249159,65.9457696 C23.9490903,64.8027113 24.2616137,63.5726811 24.5542617,62.2895015 C24.6132025,62.028586 24.6721433,61.769051 24.7310841,61.5115867 Z" id="Fill-7" fill="#FFFFFF"></path>
                <path d="M54.4400623,66.1623019 C55.2542679,64.9481475 55.6675389,63.4026719 55.6675389,61.5693609 C55.6675389,60.094291 55.4050467,58.8304385 54.8869159,57.8116256 C54.3674143,56.7886712 53.6525857,55.954846 52.7616199,55.3336187 C51.8939564,54.7282671 50.8727726,54.2927177 49.7268536,54.0387047 C48.6220561,53.793665 47.428162,53.6694196 46.1773832,53.6694196 L37.2423676,53.6694196 L37.2423676,78.0802037 L43.9122741,78.0802037 L43.9122741,69.8544632 L45.4618692,69.8544632 L49.7967601,78.0802037 L57.3411838,78.0802037 L51.9515265,68.485002 C52.9562617,67.9079508 53.791028,67.1286555 54.4400623,66.1623019 M49.1011215,61.5693609 C49.1011215,62.443911 48.8516511,63.0713506 48.3376324,63.4875729 C47.7790654,63.9410689 46.9120872,64.1702328 45.7613707,64.1702328 L43.9122741,64.1702328 L43.9122741,59.3529597 L45.7613707,59.3529597 C46.9463551,59.3529597 47.8386916,59.5365669 48.4137072,59.8982593 C48.583676,60.0052484 49.1011215,60.3303574 49.1011215,61.5693609" id="Fill-9" fill="#FFFFFF"></path>
                <path d="M69.9088037,64.44944 L69.2323551,66.4615264 L68.560704,64.4625548 L64.6171526,53.6697647 L57.9321682,53.6697647 L57.9321682,78.0798586 L64.1332897,78.0798586 L64.1332897,68.9202062 C64.1332897,68.3645529 64.1113583,67.741945 64.06681,67.0668779 L67.5676199,76.0843383 L70.6565296,76.0843383 L74.1998318,66.9598888 C74.1984611,66.9764548 74.1970903,66.9937112 74.196405,67.0102772 C74.1491153,67.6977688 74.1251277,68.340394 74.1251277,68.9202062 L74.1251277,78.0798586 L80.3954704,78.0798586 L80.3954704,53.6697647 L73.739271,53.6697647 L69.9088037,64.44944 Z" id="Fill-11" fill="#FFFFFF"></path>
                <polygon id="Fill-13" fill="#FFFFFF" points="91.405271 68.4885222 99.334866 68.4885222 99.334866 62.5951453 91.405271 62.5951453 91.405271 59.5987587 100.728885 59.5987587 100.728885 53.6694886 84.5338692 53.6694886 84.5338692 78.0802727 101.085956 78.0802727 101.085956 72.1510027 91.405271 72.1510027"></polygon>
                <path d="M121.239396,66.1623019 C122.053601,64.9481475 122.466872,63.4026719 122.466872,61.5693609 C122.466872,60.094291 122.20438,58.8304385 121.686249,57.8116256 C121.166748,56.7886712 120.451919,55.954846 119.561639,55.3336187 C118.69329,54.7282671 117.672106,54.2927177 116.526187,54.0387047 C115.421389,53.793665 114.227495,53.6694196 112.976717,53.6694196 L104.041701,53.6694196 L104.041701,78.0802037 L110.712293,78.0802037 L110.712293,69.8544632 L112.261202,69.8544632 L116.596093,78.0802037 L124.139832,78.0802037 L118.75086,68.485002 C119.755595,67.9079508 120.591047,67.1286555 121.239396,66.1623019 M115.900455,61.5693609 C115.900455,62.443911 115.650984,63.0713506 115.136966,63.4875729 C114.578399,63.9410689 113.712106,64.1702328 112.560704,64.1702328 L110.712293,64.1702328 L110.712293,59.3529597 L112.560704,59.3529597 C113.745003,59.3529597 114.638025,59.5365669 115.21304,59.8982593 C115.383009,60.0052484 115.900455,60.3303574 115.900455,61.5693609" id="Fill-15" fill="#FFFFFF"></path>
                <path d="M136.866798,63.673596 L133.936206,62.4697954 C133.448916,62.2578879 132.989726,62.0611659 132.570972,61.8844612 C132.195396,61.7257031 131.863682,61.5552107 131.586798,61.378506 C131.362,61.2342432 131.189975,61.0796266 131.07552,60.916727 C130.998075,60.8076671 130.961065,60.6647848 130.961065,60.4804874 C130.961065,60.0801408 131.09334,59.8171546 131.404492,59.599725 C131.79172,59.329146 132.352343,59.1917857 133.070598,59.1917857 C133.869726,59.1917857 134.601003,59.3312167 135.245925,59.6073178 C135.923059,59.8972239 136.615956,60.321039 137.304741,60.8670288 L137.920193,61.3543472 L141.482,56.8739174 L140.978262,56.3624402 C139.926922,55.2953096 138.68848,54.471148 137.298573,53.9120434 C135.916206,53.3556998 134.493402,53.0740767 133.070598,53.0740767 C131.797202,53.0740767 130.607421,53.2687279 129.536206,53.6518181 C128.456766,54.0390499 127.50686,54.5843494 126.713215,55.2725313 C125.90929,55.9696865 125.276704,56.7993701 124.833963,57.7367332 C124.387794,58.681689 124.161626,59.7005019 124.161626,60.7641812 C124.161626,61.7125883 124.308978,62.5802359 124.59957,63.342965 C124.887421,64.1015526 125.282187,64.7780002 125.770162,65.3529807 C126.24443,65.9120853 126.791346,66.4076867 127.393776,66.8232188 C127.984555,67.2325386 128.604118,67.5700721 129.235333,67.8261558 L132.198137,69.0982914 C132.687483,69.3115795 133.137078,69.506921 133.544866,69.6843159 C133.901938,69.8396227 134.210349,70.0059736 134.459819,70.1771563 C134.653776,70.3110653 134.797701,70.4580891 134.888168,70.6133959 C134.96767,70.7486854 135.005364,70.9171071 135.005364,71.1276341 C135.005364,71.5624933 134.860069,71.867585 134.533838,72.1167662 C134.158262,72.4052918 133.494835,72.5578376 132.61552,72.5578376 C131.774586,72.5578376 130.901439,72.3542131 130.018698,71.9531763 C129.102374,71.5383345 128.255271,70.9944154 127.500692,70.3379851 L126.888667,69.8064906 L122.958137,74.6016756 L123.501626,75.1207456 C124.740754,76.3024581 126.166984,77.201167 127.740567,77.7906427 C129.303869,78.3773575 130.896642,78.6748564 132.476393,78.6748564 C133.912218,78.6748564 135.226735,78.4622586 136.382249,78.042585 C137.543931,77.6194601 138.541128,77.0430992 139.347109,76.3293779 C140.164741,75.6053029 140.797327,74.7486994 141.227047,73.783036 C141.656766,72.8194433 141.87471,71.7819936 141.87471,70.701058 C141.87471,68.8850034 141.407981,67.3878454 140.487545,66.2509993 C139.601377,65.1562587 138.38281,64.2886111 136.866798,63.673596" id="Fill-17" fill="#FFFFFF"></path>
                <path d="M147.490467,70.9353988 C146.402804,70.9353988 145.478255,71.3136572 144.743551,72.0591301 C144.017072,72.7970101 143.648349,73.7267804 143.648349,74.8222113 C143.648349,75.8962444 144.017072,76.8142804 144.743551,77.5514702 C145.478255,78.296943 146.402804,78.6752015 147.490467,78.6752015 C148.578131,78.6752015 149.502679,78.296943 150.238069,77.5514702 C150.964548,76.8142804 151.332586,75.8962444 151.332586,74.8222113 C151.332586,73.7267804 150.964548,72.7970101 150.238069,72.0591301 C149.502679,71.3136572 148.578131,70.9353988 147.490467,70.9353988" id="Fill-19" fill="#FFFFFF"></path>
                <path d="M163.966548,69.4834524 L167.713402,69.4834524 L167.713402,72.2230651 C167.572218,72.2955416 167.408417,72.3569741 167.223371,72.4066723 C166.853963,72.5074491 166.46605,72.5578376 166.071283,72.5578376 C164.174212,72.5578376 162.812405,72.009777 161.909788,70.8825945 C160.981128,69.7236603 160.510287,68.0270193 160.510287,65.8389185 C160.510287,64.7676464 160.643246,63.7999123 160.905738,62.9619456 C161.162062,62.1446865 161.525302,61.4496021 161.987234,60.8953292 C162.440941,60.3500296 162.986486,59.924834 163.608106,59.6328571 C164.229726,59.34019 164.929477,59.1917857 165.690224,59.1917857 C166.534586,59.1917857 167.217202,59.3187922 167.71957,59.5700442 C168.256206,59.8399329 168.779134,60.2223329 169.273963,60.7068902 L169.863371,61.2839414 L173.702748,56.8718466 L173.192841,56.3348301 C172.39714,55.4954829 171.364991,54.738966 170.125863,54.085987 C168.850411,53.4143712 167.334399,53.0740767 165.620318,53.0740767 C164.002872,53.0740767 162.452592,53.367434 161.012654,53.946556 C159.563807,54.5298195 158.282187,55.3912548 157.203433,56.506703 C156.128106,57.6200805 155.265925,58.992993 154.639508,60.5881668 C154.014461,62.1798893 153.697826,64.0062978 153.697826,66.0163134 C153.697826,68.0497977 154.002125,69.8734451 154.601813,71.4382478 C155.206299,73.0168556 156.055458,74.3600872 157.126673,75.4292885 C158.195832,76.4977996 159.461003,77.3164392 160.887234,77.8610485 C162.298386,78.4008261 163.832903,78.6748564 165.446922,78.6748564 C167.137016,78.6748564 168.706486,78.3808087 170.112841,77.8003063 C171.515084,77.2211843 172.671283,76.4984898 173.549227,75.6529304 L173.796642,75.4147932 L173.796642,63.6149245 L163.966548,63.6149245 L163.966548,69.4834524 Z" id="Fill-21" fill="#FFFFFF"></path>
                <path d="M195.527844,56.4616295 C194.535445,55.3599863 193.3299,54.5095951 191.944791,53.9332341 C190.572704,53.3630855 189.040928,53.0738696 187.393327,53.0738696 C185.74504,53.0738696 184.213265,53.3630855 182.840492,53.9332341 C181.458125,54.5082146 180.25395,55.3523935 179.262237,56.4402317 C178.274636,57.523238 177.500866,58.8719917 176.962174,60.4485287 C176.431022,62.0043581 176.160991,63.7941832 176.160991,65.7676154 C176.160991,67.7417379 176.431022,69.5363948 176.961489,71.1032682 C177.498125,72.6880883 178.269153,74.0575495 179.252642,75.173688 C180.244355,76.3008705 181.447844,77.1761108 182.830212,77.7752501 C184.20504,78.3723186 185.740928,78.6753395 187.393327,78.6753395 C189.04504,78.6753395 190.580243,78.3723186 191.956442,77.7752501 C193.33881,77.1761108 194.542984,76.3008705 195.534012,75.1743782 C196.515445,74.05893 197.286474,72.6894688 197.825165,71.1032682 C198.355632,69.5350143 198.624978,67.7403574 198.624978,65.7676154 C198.624978,63.8197225 198.355632,62.0416317 197.823794,60.4837316 C197.284417,58.9071946 196.512019,57.5542994 195.527844,56.4616295 M191.704231,65.7676154 C191.704231,67.9356989 191.287533,69.6523572 190.467159,70.8706531 C189.702299,72.0061187 188.696879,72.5576305 187.393327,72.5576305 C186.089776,72.5576305 185.08367,72.0061187 184.319495,70.8706531 C183.497751,69.6523572 183.082424,67.9356989 183.082424,65.7676154 C183.082424,63.6305933 183.495009,61.9608722 184.309215,60.8040088 C185.074075,59.7189316 186.082922,59.1915786 187.393327,59.1915786 C188.703732,59.1915786 189.712579,59.7189316 190.476754,60.8040088 C191.29096,61.9608722 191.704231,63.6305933 191.704231,65.7676154" id="Fill-23" fill="#FFFFFF"></path>
                <g id="Group-30" transform="translate(107.601246, 0.109060)">
                    <mask id="mask-2" fill="white">
                        <use xlink:href="#path-1"></use>
                    </mask>
                    <g id="Clip-26"></g>
                    <polygon id="Fill-25" fill="#FFFFFF" mask="url(#mask-2)" points="0.634641745 18.3379415 3.47682243 18.3379415 3.47682243 0.581192712 0.634641745 0.581192712"></polygon>
                    <g id="Group-29" mask="url(#mask-2)">
                        <mask id="mask-4" fill="white">
                            <use xlink:href="#path-3"></use>
                        </mask>
                        <g id="Clip-28"></g>
                        <path d="M1.96231776,18.3378035 L1.94723988,18.3378035 C1.21390654,18.3302107 0.626554517,17.7814599 0.634778816,17.1126051 L0.82188162,1.77933322 C0.830105919,1.11461994 1.42294081,0.581054661 2.1487352,0.581054661 L2.16449844,0.581054661 C2.89714642,0.58864744 3.4851838,1.13739828 3.4769595,1.80625307 L3.2898567,17.1395249 C3.28094704,17.8042382 2.68879751,18.3378035 1.96231776,18.3378035" id="Fill-27" fill="#FFFFFF" mask="url(#mask-4)"></path>
                    </g>
                </g>
                <path d="M93.8381558,20.9244562 C93.2871277,20.9244562 92.771053,20.6166035 92.5777819,20.1244534 L86.9742928,5.84726805 C86.7296199,5.22396993 87.0956012,4.54131008 87.7919252,4.3225 C88.4882492,4.10299966 89.2503676,4.43086966 89.4950405,5.05416778 L95.0985296,19.3320434 C95.3432025,19.9546512 94.9772212,20.6373111 94.2808972,20.8561212 C94.1349159,20.9023681 93.9848224,20.9244562 93.8381558,20.9244562" id="Fill-31" fill="#FFFFFF"></path>
                <path d="M79.6313645,28.6641899 C79.2393396,28.6641899 78.8500561,28.5130245 78.582081,28.2203574 L67.6979065,16.3569855 C67.2236386,15.8392961 67.3079377,15.0751864 67.8863801,14.650681 C68.4655078,14.2261757 69.3208349,14.3014132 69.7951028,14.8191027 L80.6792773,26.6824746 C81.1542305,27.200164 81.0699315,27.9642737 80.4908037,28.3894693 C80.2385919,28.574457 79.9336075,28.6641899 79.6313645,28.6641899" id="Fill-33" fill="#FFFFFF"></path>
                <path d="M68.4232897,39.9761189 C68.1930093,39.9761189 67.9593022,39.918828 67.7468411,39.798724 L53.2638505,31.6192304 C52.6319502,31.2623698 52.4236012,30.4844551 52.7978069,29.8811743 C53.1720125,29.2785837 53.9882741,29.079791 54.6201745,29.4366516 L69.1024798,37.6161452 C69.7343801,37.9736961 69.9434143,38.7516108 69.5692087,39.3542013 C69.321109,39.7538576 68.8776822,39.9761189 68.4232897,39.9761189" id="Fill-35" fill="#FFFFFF"></path>
                <path d="M150.285495,41.1668737 C149.82562,41.1668737 149.379452,40.9404709 149.13752,40.5380536 C148.781819,39.9444363 149.005931,39.192061 149.639888,38.8579787 L164.150293,31.2044576 C164.784249,30.8703753 165.586118,31.0809024 165.942505,31.6745196 C166.298891,32.2681369 166.074093,33.0205122 165.440822,33.3545945 L150.929047,41.0081156 C150.726181,41.115795 150.504125,41.1668737 150.285495,41.1668737" id="Fill-37" fill="#FFFFFF"></path>
                <path d="M139.65504,29.2597398 C139.349371,29.2597398 139.04096,29.161724 138.790804,28.9629312 C138.234978,28.519789 138.170555,27.7418743 138.648249,27.2262556 L149.589308,15.4001573 C150.067003,14.8838484 150.905196,14.8244866 151.461707,15.2676288 C152.017533,15.710771 152.081956,16.4886857 151.604262,17.0043044 L140.663202,28.8304027 C140.400025,29.1140965 140.028561,29.2597398 139.65504,29.2597398" id="Fill-39" fill="#FFFFFF"></path>
                <path d="M125.421178,21.519661 C125.271084,21.519661 125.118935,21.4948119 124.970212,21.4423527 C124.308156,21.2076668 123.973701,20.5132727 124.223171,19.8906648 L129.936318,5.6293553 C130.185788,5.00743768 130.924604,4.69268248 131.58666,4.92736838 C132.248717,5.16136402 132.583171,5.85644841 132.333701,6.47836603 L126.620555,20.7396756 C126.427283,21.2221621 125.939308,21.519661 125.421178,21.519661" id="Fill-41" fill="#FFFFFF"></path>
                <path d="M117.141296,19.7337014 C117.068648,19.7337014 116.994629,19.7274891 116.921296,19.7150646 C116.227028,19.5984119 115.762355,18.9585477 115.883664,18.2869319 L118.653196,2.89567879 C118.774505,2.22406299 119.434505,1.77401828 120.128087,1.89136122 C120.822355,2.00801392 121.286343,2.6478781 121.16572,3.31949391 L118.395502,18.710747 C118.2879,19.3105765 117.749209,19.7337014 117.141296,19.7337014" id="Fill-43" fill="#FFFFFF"></path>
                <path d="M100.415265,19.7337014 C99.8162617,19.7337014 99.2857944,19.3133375 99.1761371,18.7148885 L96.3764486,3.32570618 C96.2544548,2.65340012 96.7102181,2.01215543 97.3955763,1.89205148 C98.0802492,1.77263777 98.7347664,2.21923122 98.8567601,2.89153728 L101.657134,18.2814098 C101.779128,18.9530257 101.323364,19.5942703 100.638006,19.7143743 C100.563302,19.7274891 100.488598,19.7337014 100.415265,19.7337014" id="Fill-45" fill="#FFFFFF"></path>
                <path d="M85.0339065,24.4967206 C84.5939065,24.4967206 84.166243,24.2751495 83.9304798,23.8782542 L75.8384548,10.2864898 C75.4854953,9.69356277 75.6931589,8.93359462 76.301757,8.58984882 C76.9103551,8.24610301 77.6902928,8.44765677 78.0432523,9.04058378 L86.1345919,22.631658 C86.4882368,23.2252753 86.2805732,23.9845532 85.6719751,24.3289892 C85.4704798,24.4421906 85.2504798,24.4967206 85.0339065,24.4967206" id="Fill-47" fill="#FFFFFF"></path>
                <path d="M72.5799875,34.6179639 C72.2832274,34.6179639 71.9844112,34.5233993 71.739053,34.3301285 L58.9941308,24.3000676 C58.4383053,23.8617572 58.3636012,23.082462 58.8289595,22.5585603 C59.2936324,22.0346585 60.1215452,21.964943 60.6773707,22.4025632 L73.4222928,32.4333143 C73.9788037,32.8709345 74.0521371,33.65092 73.5874642,34.1741315 C73.3277134,34.4667986 72.9548785,34.6179639 72.5799875,34.6179639" id="Fill-49" fill="#FFFFFF"></path>
                <path d="M144.965265,34.0224139 C144.590374,34.0224139 144.218224,33.8733194 143.957788,33.5847938 C143.489688,33.0643433 143.56028,32.2878091 144.116791,31.8494987 L156.853489,21.8097742 C157.409315,21.3714638 158.239969,21.437728 158.708754,21.9574883 C159.176168,22.4779387 159.105576,23.2544729 158.549751,23.6927834 L145.812368,33.7331981 C145.565639,33.9271591 145.264766,34.0224139 144.965265,34.0224139" id="Fill-51" fill="#FFFFFF"></path>
                <path d="M132.514361,24.4967206 C132.298474,24.4967206 132.078474,24.4435711 131.876978,24.3317502 C131.263583,23.9907654 131.051807,23.232868 131.404766,22.639941 L139.482399,9.04403504 C139.835358,8.45041778 140.618037,8.24610301 141.232118,8.58639755 C141.844829,8.92738235 142.056604,9.68527973 141.70433,10.2782067 L133.626012,23.874803 C133.389564,24.273769 132.957788,24.4967206 132.514361,24.4967206" id="Fill-53" fill="#FFFFFF"></path>
                <path d="M97.094567,44.1435882 C96.6778692,44.1435882 96.2673396,43.9661933 96.0089595,43.6334915 C95.5854081,43.0902627 95.728648,42.3385776 96.3276511,41.9547971 C100.173196,39.4919757 104.630081,38.1901593 109.216498,38.1901593 C109.949832,38.1901593 110.544037,38.7292466 110.544037,39.3946501 C110.544037,40.0600537 109.949832,40.599141 109.216498,40.599141 C105.181794,40.599141 101.254692,41.7484116 97.8594268,43.9233976 C97.6270903,44.0718019 97.3591153,44.1435882 97.094567,44.1435882" id="Fill-55" fill="#FFFFFF"></path>
                <path d="M85.2637757,43.5483834 C84.960162,43.5483834 84.6544922,43.4482967 84.4050218,43.2446722 C83.850567,42.790486 83.7854579,41.9918637 84.2597259,41.4603692 C90.5136199,34.4632783 99.6117508,30.4501495 109.22253,30.4501495 C109.951751,30.4501495 110.5439,31.0168469 110.5439,31.7153826 C110.5439,32.4146085 109.951751,32.9806156 109.22253,32.9806156 C100.38552,32.9806156 92.019352,36.6713964 86.2691963,43.1052412 C86.0073894,43.3979083 85.6366106,43.5483834 85.2637757,43.5483834" id="Fill-57" fill="#FFFFFF"></path>
                <path d="M75.2347227,42.3576285 C74.9907352,42.3576285 74.7440062,42.2982668 74.5226355,42.1726408 C73.894162,41.817851 73.7043178,41.0716879 74.0983988,40.506371 C77.8185234,35.1651962 83.0039439,30.7027129 89.093352,27.6014079 C95.3753458,24.4013967 102.533227,22.7102778 109.792542,22.7102778 C110.5341,22.7102778 111.135159,23.2521261 111.135159,23.9196004 C111.135159,24.5870747 110.5341,25.1282327 109.792542,25.1282327 C102.995159,25.1282327 96.2950966,26.710982 90.4154081,29.7052979 C84.7132274,32.609881 79.8574642,36.7893606 76.3731028,41.7909311 C76.1181495,42.156765 75.6815763,42.3576285 75.2347227,42.3576285" id="Fill-59" fill="#FFFFFF"></path>
                <path d="M121.628953,44.1435882 C121.36372,44.1435882 121.097115,44.0718019 120.864093,43.9233976 C117.468829,41.7484116 113.541726,40.599141 109.507022,40.599141 C108.774374,40.599141 108.179483,40.0600537 108.179483,39.3946501 C108.179483,38.7292466 108.774374,38.1901593 109.507022,38.1901593 C114.093439,38.1901593 118.550324,39.4919757 122.395869,41.9547971 C122.994872,42.3385776 123.138112,43.0902627 122.714561,43.6334915 C122.456181,43.9661933 122.045651,44.1435882 121.628953,44.1435882" id="Fill-61" fill="#FFFFFF"></path>
                <path d="M133.459402,43.5483834 C133.086567,43.5483834 132.715788,43.3979083 132.453981,43.1052412 C126.704511,36.6713964 118.338343,32.9806156 109.501333,32.9806156 C108.771427,32.9806156 108.179277,32.4146085 108.179277,31.7153826 C108.179277,31.0168469 108.771427,30.4501495 109.501333,30.4501495 C119.111427,30.4501495 128.210243,34.4632783 134.464137,41.4603692 C134.93772,41.9918637 134.873296,42.790486 134.318156,43.2446722 C134.069371,43.4482967 133.763701,43.5483834 133.459402,43.5483834" id="Fill-63" fill="#FFFFFF"></path>
                <path d="M144.080467,42.3576285 C143.633614,42.3576285 143.196355,42.156765 142.941402,41.7909311 C139.457726,36.7893606 134.601963,32.609881 128.899097,29.7052979 C123.020093,26.710982 116.319346,25.1282327 109.521963,25.1282327 C108.780405,25.1282327 108.179346,24.5870747 108.179346,23.9196004 C108.179346,23.2521261 108.780405,22.7102778 109.521963,22.7102778 C116.781277,22.7102778 123.939159,24.4013967 130.221153,27.6014079 C136.310561,30.7027129 141.495981,35.1651962 145.216106,40.506371 C145.610187,41.0716879 145.420343,41.817851 144.792555,42.1726408 C144.570498,42.2982668 144.323769,42.3576285 144.080467,42.3576285" id="Fill-65" fill="#FFFFFF"></path>
                <g id="Group-69" transform="translate(197.383178, 53.258512)">
                    <mask id="mask-6" fill="white">
                        <use xlink:href="#path-5"></use>
                    </mask>
                    <g id="Clip-68"></g>
                    <path d="M0.157015576,0.503608317 L6.89271651,0.503608317 L9.40935202,11.0893226 C10.0762056,13.6612039 10.5196324,16.1585379 11.1858006,18.7670026 L11.3345234,18.7670026 C12.0000062,16.1585379 12.4811277,13.6612039 13.1102866,11.0893226 L15.5535888,0.503608317 L22.0672336,0.503608317 L14.9614393,24.7314755 L7.26280997,24.7314755 L0.157015576,0.503608317 Z" id="Fill-67" fill="#FFFFFF" mask="url(#mask-6)"></path>
                </g>
            </g>
        </g>
    </g>
</svg>