<?xml version="1.0" encoding="UTF-8"?>
<svg width="24px" height="24px" viewBox="0 0 24 24" version="1.1" xmlns="http://www.w3.org/2000/svg" xmlns:xlink="http://www.w3.org/1999/xlink">
    <title>79CB3149-C707-4DAB-9746-EE1ACB09D654</title>
    <g id="Designs" stroke="none" stroke-width="1" fill="none" fill-rule="evenodd">
        <g id="ML-Callout-for-Priority-Pages-Pros-and-Cons" transform="translate(-104.000000, -230.000000)" fill="#000000" fill-rule="nonzero">
            <g id="Group" transform="translate(104.000000, 228.000000)">
                <g id="Group-6" transform="translate(0.000000, 0.000000)">
                    <path d="M12.0003515,2 C16.7695455,2.00245707 21.0846097,4.82891832 22.9922869,9.19995771 C24.3368417,12.2587016 24.3368417,15.7411575 22.9922869,18.7999013 C21.1256569,23.0619296 16.9693617,25.8511481 12.3384681,25.980983 C12.2266792,25.9935421 12.1138819,25.999859 12.0003515,25.999859 C11.8868211,25.999859 11.7740238,25.9935421 11.6620429,25.9810745 C7.03138127,25.8511749 2.87505506,23.0619501 1.00841606,18.7999013 C-0.336138688,15.7411575 -0.336138688,12.2587016 1.00841606,9.19995771 C2.9160933,4.82891832 7.23115746,2.00245707 12.0003515,2 Z M15.2827174,18.8001314 L8.71798557,18.8001314 C9.44466334,21.7257259 10.7441849,23.5710005 11.774881,23.8127556 L12.0123514,23.8155071 C12.0829382,23.8155071 12.1534041,23.8147517 12.2237397,23.8132471 C13.2543642,23.5740577 14.5554376,21.7281499 15.2827174,18.8001314 Z M20.5817586,18.7997758 L17.5005825,18.799507 C17.1490923,20.4071733 16.6264952,21.8314407 15.9789261,22.9800396 C17.9005904,22.1315589 19.5280708,20.6773577 20.5817586,18.7997758 Z M6.50012051,18.799507 L3.44294423,18.7997758 C4.49077342,20.666918 6.10603212,22.1153747 8.01372474,22.9654931 C7.36992541,21.8197588 6.8501696,20.4005819 6.50012051,18.799507 Z M6.14636324,11.3589767 L2.52051118,11.3594335 C2.51758884,11.3697991 2.51468402,11.3801693 2.51179674,11.3905441 C2.32908336,12.0572974 2.21761826,12.7381889 2.17749022,13.422244 C2.17397277,13.45133 2.17246254,13.4803542 2.17108393,13.5093898 L2.17749022,13.422244 C2.16439619,13.6454555 2.15889783,13.8690039 2.16099514,14.0924983 C2.17098641,14.9567567 2.29749159,15.8132612 2.53555726,16.6396205 L6.1462512,16.6398857 C6.05077397,15.7903573 6.00038674,14.9068404 6.00038674,13.9999295 C6.00038674,13.0926639 6.05081339,12.2088107 6.14636324,11.3589767 Z M15.6799866,11.3593627 L8.32071638,11.3593627 C8.21787432,12.1850568 8.16037405,13.0677651 8.16037405,13.9999295 C8.16037405,14.9317149 8.21782756,15.8140843 8.32059093,16.639489 L15.6801121,16.639489 C15.7828754,15.8140843 15.8403289,14.9317149 15.8403289,13.9999295 C15.8403289,13.0677651 15.7828287,12.1850568 15.6799866,11.3593627 Z M21.4767027,11.3591363 L17.8543398,11.3589767 C17.9498896,12.2088107 18.0003163,13.0926639 18.0003163,13.9999295 C18.0003163,14.9068404 17.949929,15.7903573 17.8544518,16.6398857 L21.4804746,16.6394224 C21.484715,16.6243751 21.4889186,16.6093181 21.4930852,16.5942515 C21.7333042,15.7125093 21.8489547,14.8049447 21.8396192,13.8983543 C21.8396255,13.8437935 21.8387062,13.7887838 21.8373151,13.7338078 L21.8396192,13.8983543 C21.8382247,13.7629243 21.834041,13.627516 21.8270681,13.4922164 L21.8373151,13.7338078 C21.8346265,13.6275581 21.830176,13.521434 21.8239724,13.4154784 L21.8270681,13.4922164 C21.805673,13.0770683 21.7580186,12.6629436 21.684105,12.2523543 C21.6293174,11.9513297 21.5600724,11.6533594 21.4767027,11.3591363 Z M8.03659081,4.99363043 L8.00640974,5.00730888 C6.08797178,5.86067699 4.46495969,7.31887722 3.41655268,9.19901204 L6.50033784,9.19935815 C6.85450296,7.57985817 7.38230988,6.14650373 8.03659081,4.99363043 Z M12.0003515,4.15998649 L11.9098149,4.16449867 C10.8602184,4.26794065 9.47706201,6.14449936 8.71823304,9.19873143 L15.28247,9.19873143 C14.5016137,6.05584096 13.0596579,4.15998731 12.0003515,4.15998731 L12.0003515,4.15998649 Z M15.9636514,4.99367792 L16.0118157,5.07858637 C16.6440665,6.21661651 17.1548484,7.61940452 17.5003652,9.19935815 L20.5799158,9.19927541 C19.5278388,7.30922152 17.8944635,5.84524136 15.9636514,4.99367792 Z" id="globe"></path>
                </g>
            </g>
        </g>
    </g>
</svg>