<?xml version="1.0" encoding="UTF-8"?>
<svg width="75px" height="62px" viewBox="0 0 75 62" version="1.1" xmlns="http://www.w3.org/2000/svg" xmlns:xlink="http://www.w3.org/1999/xlink">
    <!-- Generator: Sketch 49.1 (51147) - http://www.bohemiancoding.com/sketch -->
    <title>Disaster Tool Icon</title>
    <desc>Created with Sketch.</desc>
    <defs></defs>
    <g id="Landing-page-v2" stroke="none" stroke-width="1" fill="none" fill-rule="evenodd">
        <g id="WHIP-v3" transform="translate(-229.000000, -2856.000000)">
            <g id="Disaster-Tool-Icon" transform="translate(229.000000, 2856.000000)">
                <path d="M64.7889551,47.1876556 L42.3651024,47.1876556 C40.6153487,39.6925834 40.2588022,32.1628671 40.4429868,25.913788 C41.4255121,26.2172225 43.3694063,26.7183673 45.4900181,26.7183673 C47.1402126,26.7183673 48.894322,26.4143355 50.378377,25.4753609 C54.5051076,22.8645097 54.7577392,16.4798407 54.7664506,16.2092583 C54.7745398,15.9565953 54.6164895,15.7266302 54.3719471,15.6346441 C54.1099819,15.534893 47.8974851,13.2394226 43.7707545,15.8508711 C42.4291937,16.6990543 41.4995592,17.9468392 40.8518019,19.2531608 C41.1934146,15.6179194 41.6389422,12.9252364 41.8691729,11.6696864 C42.9269899,12.0274764 44.9934664,12.6116476 47.2167488,12.6116476 C48.7468499,12.6116476 50.3485092,12.3338975 51.7404719,11.5143853 C55.9530723,9.03315082 56.4203785,2.65923345 56.4378014,2.38924838 C56.454602,2.13718268 56.3046409,1.90303634 56.0625875,1.80328522 C55.8037335,1.69636635 49.6727508,-0.790841215 45.4601504,1.69099054 C41.2475499,4.17222499 40.7802437,10.545545 40.7628208,10.8155301 C40.6725953,11.2886013 40.4255639,12.5931309 40.1505315,14.5469388 C39.718071,12.3786959 38.6565206,9.23743156 36.0567799,7.59303136 C31.9306715,4.98337481 25.718797,7.27765057 25.4562095,7.37680438 C25.2116671,7.46879044 25.0536168,7.6987556 25.061706,7.95141862 C25.0704174,8.22140368 25.323049,14.60667 29.4497796,17.2175212 C30.9344568,18.1564958 32.687944,18.4605276 34.3381384,18.4605276 C36.7972518,18.4605276 39.0192896,17.7867596 39.7778066,17.5293181 C39.0130672,24.5142857 38.4984703,35.8739671 41.0919886,47.1876556 L16.2538242,47.1876556 C15.9103448,47.1876556 15.6315789,47.4546541 15.6315789,47.7849676 C15.6315789,48.1152812 15.9103448,48.3822797 16.2538242,48.3822797 L41.8293492,48.3822797 C41.8650246,48.3862618 49.5182266,48.3862618 64.7889551,48.3822797 C65.1324345,48.3822797 65.4112004,48.1152812 65.4112004,47.7849676 C65.4112004,47.4546541 65.1324345,47.1876556 64.7889551,47.1876556 Z M44.4564688,16.8489796 C47.4768473,14.9387755 52.0802178,16.1596814 53.4920923,16.6040816 C53.362043,18.0250871 52.7136635,22.5676456 49.6939072,24.478447 C46.6735286,26.3874564 42.0701582,25.1677451 40.6582836,24.7227476 C40.7889551,23.3017422 41.4367125,18.7591837 44.4564688,16.8489796 Z M30.1361162,16.2194126 C27.1157376,14.3086112 26.4679803,9.76485814 26.337931,8.34444998 C27.7479388,7.89766053 32.3469536,6.67496267 35.3735546,8.58994525 C38.3939331,10.5001493 39.0416904,15.0439024 39.1717397,16.4643106 C37.7611097,16.9111 33.1627171,18.1332006 30.1361162,16.2194126 Z M46.1122634,2.70940767 C49.1967332,0.892384271 53.7571688,2.25604778 55.1516204,2.74464908 C54.975525,4.16027875 54.1796733,8.67715281 51.0902256,10.4971628 C48.0082447,12.3129915 43.4471869,10.9499253 42.0514908,10.461324 C42.2294529,9.04569438 43.0296604,4.52523644 46.1122634,2.70940767 Z" id="Shape" stroke="#212121" stroke-width="0.7" fill="#212121" fill-rule="nonzero"></path>
                <path d="M13.2109182,37.5043873 L23.5208711,40.8924107 L23.5208711,39.1714286 L33.9745917,39.1714286 L44.4283122,39.1714286 L44.4283122,37.4571429 L54.8820327,37.4571429 L64.4646098,37.4571429 L64.4646098,35.7428571 L74.9183303,35.7428571 L74.9183303,58.8857143 L64.4646098,58.8857143 L64.4646098,55.4571429 L54.8820327,55.4571429 L44.4283122,55.4571429 L44.4283122,57.1714286 L33.9745917,57.1714286 L23.5208711,53.4632812 L23.5208711,52.319029 L14.7888132,47.3568345 L14.9872391,48.5958147 L1.16634528,36.6066964 L2.61343013,33.1714286 L13.0671506,36.6066964 L13.2109182,37.5043873 Z" id="Combined-Shape" fill="#FFFFFF"></path>
                <path d="M4.71393348,32.3149533 C5.48594074,32.329439 6.3126558,32.5150104 7.15966851,32.9157247 C7.15966851,32.9157247 7.15966851,32.9157247 7.15966851,32.9157247 L24.3979407,41.066639 C24.7192184,39.1908676 26.4919952,37.7452961 28.5707175,37.8118961 L37.9499698,38.0859247 C40.3941367,38.0850676 42.2448809,37.5061533 44.4266594,36.8854104 C46.6098318,36.264239 49.1025241,35.6170961 52.6074824,35.6170961 C55.7389815,35.6170961 60.3898417,36.7224676 63.7327673,37.9522961 L63.7327673,34.7256676 C63.7328154,34.2523002 64.1228114,33.868572 64.6039107,33.8685247 L74.0477147,33.8685247 C74.528814,33.868572 74.91881,34.2523002 74.9188581,34.7256676 L74.9188581,60.2275361 C74.91881,60.7009035 74.528814,61.0846317 74.0477147,61.084679 L64.6039107,61.084679 C64.1228114,61.0846317 63.7328154,60.7009035 63.7327673,60.2275361 L63.7327673,57.3285076 C51.618996,55.0119076 44.5686558,58.5899647 34.2336721,58.5815647 C34.2336721,58.5815647 34.232801,58.5815647 34.232801,58.5815647 C32.4646413,58.5815647 30.2123001,57.6303076 27.4512112,56.2211647 C24.6897738,54.8118504 21.499124,52.9016218 18.2677048,50.8485076 C11.8050406,46.742279 5.17468121,42.0574104 1.69367931,39.7385818 C0.705105808,39.079439 0.145483304,38.0887533 0.0265722331,37.0846961 C-0.092425952,36.0805533 0.193570418,35.069039 0.77784628,34.2311818 C1.58130182,33.0790961 3.0152039,32.2833247 4.71384637,32.3152104 L4.71393348,32.3149533 Z M4.49963221,33.9832104 C3.44493893,33.9892104 2.68826379,34.5214961 2.21453594,35.2008676 C1.85362123,35.7184104 1.69211125,36.3363247 1.75718566,36.8861818 C1.82234719,37.4359533 2.07837623,37.923839 2.67084092,38.3189818 C2.67084092,38.3189818 2.67084092,38.3189818 2.67084092,38.3189818 C6.20306597,40.6719247 12.8017157,45.334679 19.2129825,49.4082504 C22.4187901,51.445079 25.5768591,53.3331076 28.2535342,54.6992218 C30.9302965,56.0653361 33.2054616,56.8670218 34.2336721,56.8670218 C34.2339625,56.8670217 34.2342529,56.8670217 34.2345433,56.8670218 C44.060605,56.8755933 51.3774279,53.3069647 63.7327673,55.5834504 L63.7327673,53.0867647 C63.7283242,52.7776482 63.8933846,52.4901235 64.1647437,52.3342895 C64.4361027,52.1784555 64.7717187,52.1784555 65.0430777,52.3342895 C65.3144367,52.4901235 65.4794971,52.7776482 65.4750541,53.0867647 L65.4750541,59.3701361 L73.1765713,59.3701361 L73.1765713,35.5825533 L65.4750541,35.5825533 L65.4750541,41.8659247 C65.4794971,42.1750412 65.3144367,42.4625659 65.0430777,42.6183999 C64.7717187,42.7742339 64.4361027,42.7742339 64.1647437,42.6183999 C63.8933846,42.4625659 63.7283242,42.1750412 63.7327673,41.8659247 L63.7327673,39.7882104 C60.5863717,38.5557247 55.4732827,37.3311247 52.6074824,37.3311247 C49.3169996,37.3311247 47.0660496,37.9186961 44.9106667,38.5318961 C42.7552838,39.1451818 40.6733382,39.7999533 37.9450043,39.7999533 C37.9364095,39.8000784 37.9278132,39.8000784 37.9192184,39.7999533 L28.5189716,39.5256676 C28.5178972,39.5256695 28.5168228,39.5256695 28.5157484,39.5256676 C27.1575487,39.4810961 26.0879589,40.5327247 26.0879589,41.6778676 C26.0879589,42.8230961 27.1431749,43.7697247 28.5821295,43.8304104 L46.4678355,44.5846961 C46.7825102,44.5927069 47.0683224,44.7671092 47.2154744,45.0409045 C47.3626265,45.3146998 47.3482316,45.6453046 47.1778199,45.9057137 C47.0074081,46.1661229 46.7074837,46.3158348 46.3932656,46.2973361 L28.5075596,45.5430504 C26.8008155,45.4710504 25.2597629,44.5036961 24.6377665,43.0774961 C24.6085678,43.0671216 24.5799534,43.0552189 24.552046,43.041839 L6.40473566,34.4613247 C5.68647795,34.1213818 5.05211134,33.9804676 4.49963221,33.9837247 L4.49963221,33.9832104 Z" id="Shape" fill="#000000"></path>
            </g>
        </g>
    </g>
</svg>