<svg id="Layer_1" data-name="Layer 1" xmlns="http://www.w3.org/2000/svg" viewBox="0 0 60 60"><defs><style>.cls-1{fill:#212121;}</style></defs><title>hurricane-2</title><path class="cls-1" d="M16.82,50.5a11.63,11.63,0,0,0,1.64-.13A15.1,15.1,0,0,0,44.38,39.84a9.87,9.87,0,0,0-.09-1.18,11.61,11.61,0,0,0,9-11.26C53.27,21.23,42.82,9.51,42.37,9l-0.66-.74L41,9a90.71,90.71,0,0,0-5.93,7.51c-2.74-5.15-5.07-9.1-5.09-9.14l-0.77-1.3L28.5,7.38c0,0.08-4.66,7.93-8.6,16.06-1.38-1.7-2.37-2.81-2.42-2.86l-0.66-.74-0.66.74c-0.45.5-10.89,12.21-10.89,18.37A11.57,11.57,0,0,0,16.82,50.5ZM41.71,11c3.25,3.76,9.78,12.19,9.78,16.43A9.83,9.83,0,0,1,44,36.91c0-.2-0.1-0.41-0.16-0.63l0-.16c-0.08-.28-0.16-0.57-0.25-0.87l0-.07a7.94,7.94,0,0,0,6.21-7.79H47.93a6.18,6.18,0,0,1-5,6.1l-0.06-.16-0.16-.45-0.22-.59-0.19-.49-0.24-.62-0.21-.51L41.61,30l-0.22-.54-0.29-.69-0.24-.55-0.33-.74-0.25-.56-0.37-.8-0.25-.54-0.46-1L39,24.2l-0.7-1.46-0.09-.19-0.66-1.33-0.25-.5-0.54-1.07-0.31-.6-0.39-.76A86.63,86.63,0,0,1,41.71,11ZM29.27,9.61c1,1.77,2.92,5.14,5,9q0.88,1.69,1.67,3.27c0.44,0.88.85,1.72,1.25,2.55,2.93,6.06,4.69,10.64,5.25,13.64a9.48,9.48,0,0,1,.19,1.73,13.33,13.33,0,1,1-26.67,0A8.08,8.08,0,0,1,16,38.76c0.37-2.76,2-7.31,4.88-13.28l0-.05C24,18.92,27.7,12.35,29.27,9.61ZM16.82,22.52c0.52,0.61,1.32,1.55,2.23,2.7L19,25.37q-0.54,1.15-1,2.22l-0.12.27c-0.31.71-.61,1.39-0.88,2.05l-0.1.24c-0.27.66-.52,1.29-0.75,1.9l-0.08.2c-0.23.61-.44,1.19-0.62,1.74l-0.05.16c-0.18.56-.35,1.09-0.49,1.59l0,0.12c-0.14.51-.26,1-0.36,1.44l0,0.08c-0.1.46-.17,0.89-0.22,1.28v0a9.31,9.31,0,0,0-.08,1.12c0,0.44,0,.88.06,1.31,0,0.14,0,.28,0,0.42,0,0.3.07,0.59,0.12,0.88s0.06,0.32.1,0.48,0.12,0.54.19,0.8,0.09,0.32.14,0.48S15,44.74,15.07,45s0.11,0.3.16,0.45,0.25,0.58.38,0.86l0.15,0.33c0.19,0.39.4,0.77,0.63,1.13L16.54,48c0.16,0.25.32,0.5,0.5,0.74A9.78,9.78,0,0,1,7,38.95C7,34.71,13.57,26.27,16.82,22.52Z"/><path class="cls-1" d="M19.71,42.71a11,11,0,0,0,13.59,7.58l-0.55-1.92a9,9,0,0,1-11.12-6.2Z"/></svg>