<svg id="Layer_1" data-name="Layer 1" xmlns="http://www.w3.org/2000/svg" viewBox="0 0 20.33 20.17"><defs><style>.cls-1{fill:#fff;}.cls-2{fill:#212121;}</style></defs><title>left-arrow-v3</title><ellipse class="cls-1" cx="10.27" cy="9.93" rx="9" ry="9.04"/><path class="cls-2" d="M10.27,20a10,10,0,1,1,10-10A10,10,0,0,1,10.27,20Zm0-18.08a8,8,0,1,0,8,8,8,8,0,0,0-8-8h0v0Z"/><path class="cls-2" d="M12.42,5.61l1.14,1.65L9.65,10l3.84,2.65-1.14,1.65L7.49,10.93a1.13,1.13,0,0,1,0-1.87ZM8.63,9.25h0Z"/></svg>