<?xml version="1.0" encoding="UTF-8"?>
<svg width="80px" height="79px" viewBox="0 0 80 79" version="1.1" xmlns="http://www.w3.org/2000/svg" xmlns:xlink="http://www.w3.org/1999/xlink">
    <!-- Generator: Sketch 49.1 (51147) - http://www.bohemiancoding.com/sketch -->
    <title>noun_744451_cc</title>
    <desc>Created with Sketch.</desc>
    <defs></defs>
    <g id="Page-1" stroke="none" stroke-width="1" fill="none" fill-rule="evenodd">
        <g id="Home-v7" transform="translate(-170.000000, -1368.000000)" fill="#000000" fill-rule="nonzero">
            <g id="noun_744451_cc" transform="translate(170.000000, 1368.000000)">
                <path d="M20.9,63.877551 L10,63.877551 C9.4,63.877551 9,64.2857143 9,64.8979592 L9,72.755102 C9,73.3673469 9.4,73.7755102 10,73.7755102 L20.9,73.7755102 C21.5,73.7755102 21.9,73.3673469 21.9,72.755102 L21.9,64.8979592 C21.9,64.2857143 21.5,63.877551 20.9,63.877551 Z M19.9,71.7346939 L11,71.7346939 L11,65.9183673 L19.9,65.9183673 L19.9,71.7346939 Z" id="Shape"></path>
                <path d="M35.6,63.877551 L24.7,63.877551 C24.1,63.877551 23.7,64.2857143 23.7,64.8979592 L23.7,72.755102 C23.7,73.3673469 24.1,73.7755102 24.7,73.7755102 L35.6,73.7755102 C36.2,73.7755102 36.6,73.3673469 36.6,72.755102 L36.6,64.8979592 C36.6,64.2857143 36.1,63.877551 35.6,63.877551 Z M34.6,71.7346939 L25.7,71.7346939 L25.7,65.9183673 L34.6,65.9183673 L34.6,71.7346939 Z" id="Shape"></path>
                <path d="M50.1,63.877551 L39.2,63.877551 C38.6,63.877551 38.2,64.2857143 38.2,64.8979592 L38.2,72.755102 C38.2,73.3673469 38.6,73.7755102 39.2,73.7755102 L50.1,73.7755102 C50.7,73.7755102 51.1,73.3673469 51.1,72.755102 L51.1,64.8979592 C51.1,64.2857143 50.7,63.877551 50.1,63.877551 Z M49.1,71.7346939 L40.2,71.7346939 L40.2,65.9183673 L49.1,65.9183673 L49.1,71.7346939 Z" id="Shape"></path>
                <path d="M78.6,0.714285714 L1.8,0.714285714 C1.2,0.714285714 0.8,1.12244898 0.8,1.73469388 L0.8,8.26530612 C0.8,8.87755102 1.2,9.28571429 1.8,9.28571429 L4.4,9.28571429 L4.4,77.4489796 C4.4,78.0612245 4.8,78.4693878 5.4,78.4693878 L74.9,78.4693878 C75.5,78.4693878 75.9,78.0612245 75.9,77.4489796 L75.9,9.28571429 L78.5,9.28571429 C79.1,9.28571429 79.5,8.87755102 79.5,8.26530612 L79.5,1.73469388 C79.6,1.2244898 79.1,0.714285714 78.6,0.714285714 Z M55.7,21.8367347 L73.9,21.8367347 L73.9,30.5102041 L55.7,30.5102041 L55.7,21.8367347 Z M6.4,32.5510204 L53.7,32.5510204 L53.7,59.0816327 L6.4,59.0816327 L6.4,32.5510204 Z M55.7,32.5510204 L73.9,32.5510204 L73.9,71.3265306 L55.7,71.3265306 L55.7,32.5510204 Z M53.7,30.5102041 L6.4,30.5102041 L6.4,21.8367347 L53.7,21.8367347 L53.7,30.5102041 Z M6.4,61.122449 L53.7,61.122449 L53.7,76.3265306 L6.4,76.3265306 L6.4,61.122449 Z M55.7,76.4285714 L55.7,73.4693878 L73.9,73.4693878 L73.9,76.4285714 L55.7,76.4285714 Z M74,19.7959184 L54.7,19.7959184 L6.4,19.7959184 L6.4,9.28571429 L74,9.28571429 L74,19.7959184 Z M77.6,7.24489796 L2.8,7.24489796 L2.8,2.75510204 L77.6,2.75510204 L77.6,7.24489796 Z" id="Shape"></path>
                <path d="M11.6,49.8979592 C11.2,49.4897959 10.6,49.4897959 10.2,49.8979592 C9.8,50.3061224 9.8,50.9183673 10.2,51.3265306 L13.9,55.1020408 C14.1,55.3061224 14.4,55.4081633 14.6,55.4081633 C14.8,55.4081633 15.1,55.3061224 15.3,55.1020408 C15.7,54.6938776 15.7,54.0816327 15.3,53.6734694 L11.6,49.8979592 Z" id="Shape"></path>
                <path d="M12.4,45.3061224 C12,44.8979592 11.4,44.8979592 11,45.3061224 C10.6,45.7142857 10.6,46.3265306 11,46.7346939 L18.5,54.3877551 C18.7,54.5918367 19,54.6938776 19.2,54.6938776 C19.4,54.6938776 19.7,54.5918367 19.9,54.3877551 C20.3,53.9795918 20.3,53.3673469 19.9,52.9591837 L12.4,45.3061224 Z" id="Shape"></path>
            </g>
        </g>
    </g>
</svg>