<?xml version="1.0" encoding="UTF-8"?>
<svg width="111px" height="110px" viewBox="0 0 111 110" version="1.1" xmlns="http://www.w3.org/2000/svg" xmlns:xlink="http://www.w3.org/1999/xlink">
    <!-- Generator: Sketch 49.1 (51147) - http://www.bohemiancoding.com/sketch -->
    <title>CORN</title>
    <desc>Created with Sketch.</desc>
    <defs></defs>
    <g id="Page-1" stroke="none" stroke-width="1" fill="none" fill-rule="evenodd">
        <g id="USDA_Home_Carousel-Cards" transform="translate(-249.000000, -590.000000)" fill="#000000" fill-rule="nonzero">
            <g id="CORN" transform="translate(249.000000, 590.000000)">
                <path d="M108.885519,7.83988889 C105.566481,7.83988889 102.624296,9.45555556 100.781148,11.9345556 C100.038407,8.29622222 98.8201481,4.49618519 97.5114444,2.62562963 C96.3425185,0.956518519 94.5158148,0 92.4986296,0 C90.4814444,0 88.6547407,0.956518519 87.4871852,2.62562963 C86.1784815,4.49618519 84.9588519,8.29622222 84.2161111,11.9345556 C82.372963,9.45555556 79.4307778,7.83988889 76.1103704,7.83988889 C75.3539259,7.83988889 74.74,8.45244444 74.74,9.21025926 C74.74,9.96807407 75.3539259,10.5806296 76.1103704,10.5806296 C80.1721481,10.5806296 83.4761111,13.8845926 83.4761111,17.9463704 C83.4761111,17.9491111 83.4774815,17.9518519 83.4774815,17.9545926 C83.4774815,17.9751481 83.4761111,17.9998148 83.4761111,18.0203704 C83.4761111,27.0031481 87.2144815,30.7963333 91.1268889,31.4938519 L91.1268889,42.5116296 C89.281,40.5424074 86.6663333,39.3035926 83.7611481,39.3035926 C83.0047037,39.3035926 82.3907778,39.9161481 82.3907778,40.673963 C82.3907778,41.4317778 83.0047037,42.0443333 83.7611481,42.0443333 C87.8229259,42.0443333 91.1268889,45.3482963 91.1268889,49.4100741 L91.1268889,56.990963 C89.281,55.0217407 86.6663333,53.7829259 83.7611481,53.7829259 C83.0047037,53.7829259 82.3907778,54.3954815 82.3907778,55.1532963 C82.3907778,55.9111111 83.0047037,56.5236667 83.7611481,56.5236667 C87.8229259,56.5236667 91.1268889,59.8276296 91.1268889,63.8894074 L91.1268889,71.4702963 C89.281,69.5010741 86.6663333,68.2622593 83.7611481,68.2622593 C83.0047037,68.2622593 82.3907778,68.8748148 82.3907778,69.6326296 C82.3907778,70.3904444 83.0047037,71.003 83.7611481,71.003 C87.8229259,71.003 91.1268889,74.306963 91.1268889,78.3687407 L91.1268889,85.9496296 C89.281,83.9804074 86.6663333,82.7415926 83.7611481,82.7415926 C83.0047037,82.7415926 82.3907778,83.3541481 82.3907778,84.111963 C82.3907778,84.8697778 83.0047037,85.4823333 83.7611481,85.4823333 C87.8229259,85.4823333 91.1268889,88.7862963 91.1268889,92.8480741 L91.1268889,106.888889 L56.4976296,106.888889 L56.4976296,103.602741 C56.4976296,99.540963 59.8015926,96.237 63.8633704,96.237 C64.6198148,96.237 65.2337407,95.6244444 65.2337407,94.8666296 C65.2337407,94.1088148 64.6198148,93.4962593 63.8633704,93.4962593 C60.9581852,93.4962593 58.3435185,94.7350741 56.4976296,96.7042963 L56.4976296,89.1234074 C56.4976296,85.0616296 59.8015926,81.7576667 63.8633704,81.7576667 C64.6198148,81.7576667 65.2337407,81.1451111 65.2337407,80.3872963 C65.2337407,79.6294815 64.6198148,79.0169259 63.8633704,79.0169259 C60.9581852,79.0169259 58.3435185,80.2557407 56.4976296,82.224963 L56.4976296,74.6440741 C56.4976296,70.5822963 59.8015926,67.2783333 63.8633704,67.2783333 C64.6198148,67.2783333 65.2337407,66.6657778 65.2337407,65.907963 C65.2337407,65.1501481 64.6198148,64.5375926 63.8633704,64.5375926 C60.9581852,64.5375926 58.3435185,65.7764074 56.4976296,67.7456296 L56.4976296,50.1281481 C60.4114074,49.432 64.1484074,45.6374444 64.1484074,36.6546667 C64.1484074,36.6341111 64.147037,36.6108148 64.147037,36.5902593 C64.147037,36.5875185 64.1484074,36.5847778 64.1484074,36.582037 C64.1484074,32.5202593 67.4523704,29.2162963 71.5141481,29.2162963 C72.2705926,29.2162963 72.8845185,28.6037407 72.8845185,27.8459259 C72.8845185,27.0881111 72.2705926,26.4755556 71.5141481,26.4755556 C68.1951111,26.4755556 65.2529259,28.0912222 63.4097778,30.5702222 C62.667037,26.9318889 61.4487778,23.1304815 60.1387037,21.2599259 C58.9711481,19.5908148 57.1444444,18.6342963 55.1272593,18.6342963 C53.1100741,18.6342963 51.2833704,19.5908148 50.1158148,21.2599259 C48.8057407,23.1304815 47.5874815,26.9318889 46.8447407,30.5702222 C45.0015926,28.0912222 42.0594074,26.4755556 38.7403704,26.4755556 C37.9839259,26.4755556 37.37,27.0881111 37.37,27.8459259 C37.37,28.6037407 37.9839259,29.2162963 38.7403704,29.2162963 C42.8021481,29.2162963 46.1061111,32.5202593 46.1061111,36.582037 C46.1061111,36.5847778 46.1074815,36.5875185 46.1074815,36.5902593 C46.1074815,36.6108148 46.1061111,36.6341111 46.1061111,36.6546667 C46.1061111,45.6374444 49.8444815,49.4306296 53.7568889,50.1281481 L53.7568889,61.1459259 C51.911,59.1767037 49.2963333,57.9378889 46.3911481,57.9378889 C45.6347037,57.9378889 45.0207778,58.5504444 45.0207778,59.3082593 C45.0207778,60.0660741 45.6347037,60.6786296 46.3911481,60.6786296 C50.4529259,60.6786296 53.7568889,63.9825926 53.7568889,68.0443704 L53.7568889,75.6252593 C51.911,73.656037 49.2963333,72.4172222 46.3911481,72.4172222 C45.6347037,72.4172222 45.0207778,73.0297778 45.0207778,73.7875926 C45.0207778,74.5454074 45.6347037,75.157963 46.3911481,75.157963 C50.4529259,75.157963 53.7568889,78.4619259 53.7568889,82.5237037 L53.7568889,90.105963 C51.911,88.1367407 49.2963333,86.8979259 46.3911481,86.8979259 C45.6347037,86.8979259 45.0207778,87.5104815 45.0207778,88.2682963 C45.0207778,89.0261111 45.6347037,89.6386667 46.3911481,89.6386667 C50.4529259,89.6386667 53.7568889,92.9426296 53.7568889,97.0044074 L53.7568889,106.888889 L19.1262593,106.888889 L19.1262593,99.445037 C19.1262593,95.3832593 22.4302222,92.0792963 26.492,92.0792963 C27.2484444,92.0792963 27.8623704,91.4667407 27.8623704,90.7089259 C27.8623704,89.9511111 27.2484444,89.3385556 26.492,89.3385556 C23.5868148,89.3385556 20.9721481,90.5773704 19.1262593,92.5465926 L19.1262593,84.9657037 C19.1262593,80.9039259 22.4302222,77.599963 26.492,77.599963 C27.2484444,77.599963 27.8623704,76.9874074 27.8623704,76.2295926 C27.8623704,75.4717778 27.2484444,74.8592222 26.492,74.8592222 C23.5868148,74.8592222 20.9721481,76.098037 19.1262593,78.0672593 L19.1262593,70.4863704 C19.1262593,66.4245926 22.4302222,63.1206296 26.492,63.1206296 C27.2484444,63.1206296 27.8623704,62.5080741 27.8623704,61.7502593 C27.8623704,60.9924444 27.2484444,60.3798889 26.492,60.3798889 C23.5868148,60.3798889 20.9721481,61.6187037 19.1262593,63.5879259 L19.1262593,56.0056667 C19.1262593,51.9438889 22.4302222,48.6399259 26.492,48.6399259 C27.2484444,48.6399259 27.8623704,48.0273704 27.8623704,47.2695556 C27.8623704,46.5117407 27.2484444,45.8991852 26.492,45.8991852 C23.5868148,45.8991852 20.9721481,47.138 19.1262593,49.1072222 L19.1262593,31.4924815 C23.040037,30.7963333 26.777037,27.0017778 26.777037,18.019 C26.777037,17.9984444 26.7756667,17.9751481 26.7756667,17.9532222 C26.7756667,17.9504815 26.777037,17.9477407 26.777037,17.945 C26.777037,13.8832222 30.081,10.5792593 34.1427778,10.5792593 C34.8992222,10.5792593 35.5131481,9.9667037 35.5131481,9.20888889 C35.5131481,8.45107407 34.8992222,7.83851852 34.1427778,7.83851852 C30.8237407,7.83851852 27.8815556,9.45418519 26.037037,11.9331852 C25.2942963,8.29485185 24.076037,4.49481481 22.765963,2.62425926 C21.5997778,0.956518519 19.7730741,0 17.7558889,0 C15.7387037,0 13.912,0.956518519 12.7444444,2.62562963 C11.4357407,4.49618519 10.2174815,8.29622222 9.47474074,11.9345556 C7.63159259,9.45555556 4.68940741,7.83988889 1.37037037,7.83988889 C0.613925926,7.83988889 0,8.45244444 0,9.21025926 C0,9.96807407 0.613925926,10.5806296 1.37037037,10.5806296 C5.43214815,10.5806296 8.73611111,13.8845926 8.73611111,17.9463704 C8.73611111,17.9491111 8.73748148,17.9518519 8.73748148,17.9545926 C8.73748148,17.9751481 8.73611111,17.9998148 8.73611111,18.0203704 C8.73611111,27.0031481 12.4731111,30.7963333 16.3868889,31.4938519 L16.3868889,42.5116296 C14.541,40.5424074 11.9263333,39.3035926 9.02114815,39.3035926 C8.2647037,39.3035926 7.65077778,39.9161481 7.65077778,40.673963 C7.65077778,41.4317778 8.2647037,42.0443333 9.02114815,42.0443333 C13.0829259,42.0443333 16.3868889,45.3482963 16.3868889,49.4100741 L16.3868889,56.990963 C14.541,55.0217407 11.9263333,53.7829259 9.02114815,53.7829259 C8.2647037,53.7829259 7.65077778,54.3954815 7.65077778,55.1532963 C7.65077778,55.9111111 8.2647037,56.5236667 9.02114815,56.5236667 C13.0829259,56.5236667 16.3868889,59.8276296 16.3868889,63.8894074 L16.3868889,71.4702963 C14.541,69.5010741 11.9263333,68.2622593 9.02114815,68.2622593 C8.2647037,68.2622593 7.65077778,68.8748148 7.65077778,69.6326296 C7.65077778,70.3904444 8.2647037,71.003 9.02114815,71.003 C13.0829259,71.003 16.3868889,74.306963 16.3868889,78.3687407 L16.3868889,85.9496296 C14.541,83.9804074 11.9263333,82.7415926 9.02114815,82.7415926 C8.2647037,82.7415926 7.65077778,83.3541481 7.65077778,84.111963 C7.65077778,84.8697778 8.2647037,85.4823333 9.02114815,85.4823333 C13.0829259,85.4823333 16.3868889,88.7862963 16.3868889,92.8480741 L16.3868889,106.888889 L1.68281481,106.888889 C0.92637037,106.888889 0.312444444,107.501444 0.312444444,108.259259 C0.312444444,109.017074 0.92637037,109.62963 1.68281481,109.62963 L108.571704,109.62963 C109.328148,109.62963 109.942074,109.017074 109.942074,108.259259 C109.942074,107.501444 109.328148,106.888889 108.571704,106.888889 L93.869,106.888889 L93.869,99.445037 C93.869,95.3832593 97.172963,92.0792963 101.234741,92.0792963 C101.991185,92.0792963 102.605111,91.4667407 102.605111,90.7089259 C102.605111,89.9511111 101.991185,89.3385556 101.234741,89.3385556 C98.3295556,89.3385556 95.7148889,90.5773704 93.869,92.5465926 L93.869,84.9657037 C93.869,80.9039259 97.172963,77.599963 101.234741,77.599963 C101.991185,77.599963 102.605111,76.9874074 102.605111,76.2295926 C102.605111,75.4717778 101.991185,74.8592222 101.234741,74.8592222 C98.3295556,74.8592222 95.7148889,76.098037 93.869,78.0672593 L93.869,70.4863704 C93.869,66.4245926 97.172963,63.1206296 101.234741,63.1206296 C101.991185,63.1206296 102.605111,62.5080741 102.605111,61.7502593 C102.605111,60.9924444 101.991185,60.3798889 101.234741,60.3798889 C98.3295556,60.3798889 95.7148889,61.6187037 93.869,63.5879259 L93.869,56.0056667 C93.869,51.9438889 97.172963,48.6399259 101.234741,48.6399259 C101.991185,48.6399259 102.605111,48.0273704 102.605111,47.2695556 C102.605111,46.5117407 101.991185,45.8991852 101.234741,45.8991852 C98.3295556,45.8991852 95.7148889,47.138 93.869,49.1072222 L93.869,31.4924815 C97.7827778,30.7963333 101.519778,27.0017778 101.519778,18.019 C101.519778,17.9984444 101.518407,17.9751481 101.518407,17.9532222 C101.518407,17.9504815 101.519778,17.9477407 101.519778,17.945 C101.519778,13.8832222 104.823741,10.5792593 108.885519,10.5792593 C109.641963,10.5792593 110.255889,9.9667037 110.255889,9.20888889 C110.255889,8.45107407 109.641963,7.83988889 108.885519,7.83988889 Z M48.8468519,36.6546667 C48.8468519,32.6244074 50.7516667,25.1312222 52.3618519,22.8317407 C53.010037,21.9067407 54.0172593,21.3764074 55.1286296,21.3764074 C56.24,21.3764074 57.2472222,21.9081111 57.8954074,22.8317407 C59.5055926,25.1312222 61.4104074,32.6244074 61.4104074,36.6546667 C61.4104074,43.3557778 59.004037,47.5175926 55.13,47.5175926 C51.255963,47.5175926 48.8468519,43.3557778 48.8468519,36.6546667 Z M11.4754815,18.019 C11.4754815,13.9887407 13.3802963,6.49555556 14.9891111,4.19607407 C15.6372963,3.27244444 16.6458889,2.74074074 17.7558889,2.74074074 C18.8658889,2.74074074 19.8744815,3.27244444 20.5226667,4.19607407 C22.1328519,6.49555556 24.0376667,13.9887407 24.0376667,18.019 C24.0376667,24.7201111 21.6312963,28.8819259 17.7572593,28.8819259 C13.8818519,28.8819259 11.4754815,24.7201111 11.4754815,18.019 Z M92.4986296,28.8819259 C88.6245926,28.8819259 86.2182222,24.7201111 86.2182222,18.019 C86.2182222,13.9887407 88.123037,6.49555556 89.7332222,4.19607407 C90.380037,3.27244444 91.3886296,2.74074074 92.4986296,2.74074074 C93.6086296,2.74074074 94.6172222,3.27244444 95.2654074,4.19607407 C96.8742222,6.49555556 98.779037,13.9887407 98.779037,18.019 C98.779037,24.7201111 96.3726667,28.8819259 92.4986296,28.8819259 Z" id="Shape"></path>
            </g>
        </g>
    </g>
</svg>