<?xml version="1.0" encoding="UTF-8"?>
<svg width="119px" height="115px" viewBox="0 0 119 115" version="1.1" xmlns="http://www.w3.org/2000/svg" xmlns:xlink="http://www.w3.org/1999/xlink">
    <!-- Generator: Sketch 49.1 (51147) - http://www.bohemiancoding.com/sketch -->
    <title>BARN</title>
    <desc>Created with Sketch.</desc>
    <defs></defs>
    <g id="Page-1" stroke="none" stroke-width="1" fill="none" fill-rule="evenodd">
        <g id="USDA_Home_Carousel-Cards" transform="translate(-244.000000, -218.000000)" fill="#000000" fill-rule="nonzero">
            <g id="BARN" transform="translate(244.000000, 217.000000)">
                <path d="M1.2,58.5 C1.5,58.65 1.65,58.65 1.95,58.65 C2.4,58.65 3,58.35 3.3,57.9 L7.65,50.4 L7.65,114.45 C7.65,115.35 8.25,115.95 9.15,115.95 L110.7,115.95 C111.6,115.95 112.2,115.35 112.2,114.45 L112.2,51.45 L115.65,57.9 C115.95,58.35 116.4,58.65 117,58.65 C117.3,58.65 117.45,58.65 117.75,58.5 C118.5,58.05 118.8,57.15 118.35,56.4 L112.05,44.7 C112.05,44.7 112.05,44.7 112.05,44.7 C112.05,44.7 112.05,44.7 112.05,44.7 L97.05,18.3 C96.9,18 96.6,17.85 96.3,17.7 L60.6,1.2 C60.15,1.05 59.7,1.05 59.4,1.2 L23.7,17.7 C23.4,17.85 23.25,18 23.1,18.3 L8.1,44.25 C8.1,44.25 8.1,44.25 8.1,44.25 L0.9,56.55 C0.3,57.15 0.6,58.05 1.2,58.5 Z M61.5,80.85 L68.25,94.35 L61.5,107.25 L61.5,80.85 Z M58.5,107.4 L51.6,94.35 L58.5,80.85 L58.5,107.4 Z M58.05,112.95 L41.85,112.95 L49.8,97.5 L58.05,112.95 Z M69.9,97.5 L77.55,112.8 L61.95,112.8 L69.9,97.5 Z M79.05,109.05 L71.7,94.2 L79.05,79.8 L79.05,109.05 Z M69.9,90.9 L62.55,76.2 L77.55,76.2 L69.9,90.9 Z M49.8,91.05 L42,76.2 L57.6,76.2 L49.8,91.05 Z M48.15,94.35 L40.95,108.3 L40.95,80.7 L48.15,94.35 Z M82.05,112.95 L82.05,74.7 C82.05,73.8 81.45,73.2 80.55,73.2 L39.45,73.2 C39.45,73.2 39.45,73.2 39.45,73.2 C39.3,73.2 39.3,73.2 39.15,73.2 C39,73.2 39,73.2 38.85,73.35 C38.85,73.35 38.85,73.35 38.85,73.35 C38.85,73.35 38.7,73.5 38.7,73.5 C38.55,73.5 38.55,73.65 38.4,73.65 C38.4,73.65 38.25,73.8 38.25,73.95 C38.25,74.1 38.1,74.1 38.1,74.25 C38.1,74.4 38.1,74.4 38.1,74.55 C38.1,74.55 38.1,74.7 38.1,74.7 L38.1,112.95 L10.65,112.95 L10.65,61.95 L109.2,61.95 L109.2,112.95 L82.05,112.95 Z M25.2,20.25 L60,4.2 L94.65,20.25 L109.2,45.9 L109.2,58.95 L10.65,58.95 L10.65,45.3 L25.2,20.25 Z" id="Shape"></path>
                <path d="M37.95,43.95 L37.95,45.45 C37.95,46.35 38.55,46.95 39.45,46.95 L80.55,46.95 C81.45,46.95 82.05,46.35 82.05,45.45 L82.05,26.7 C82.05,25.8 81.45,25.2 80.55,25.2 L39.45,25.2 C38.55,25.2 37.95,25.8 37.95,26.7 L37.95,43.95 C37.95,43.95 37.95,43.95 37.95,43.95 Z M40.95,29.55 L55.8,35.7 L40.95,41.7 L40.95,29.55 Z M79.05,42.15 L63.75,35.85 L79.05,29.7 L79.05,42.15 Z M75.6,43.95 L43.5,43.95 L59.85,37.35 L75.6,43.95 Z M59.85,34.05 L45.6,28.05 L74.7,28.05 L59.85,34.05 Z" id="Shape"></path>
            </g>
        </g>
    </g>
</svg>