<?xml version="1.0" encoding="UTF-8"?>
<svg width="46px" height="46px" viewBox="0 0 46 46" version="1.1" xmlns="http://www.w3.org/2000/svg" xmlns:xlink="http://www.w3.org/1999/xlink">
    <!-- Generator: Sketch 49.1 (51147) - http://www.bohemiancoding.com/sketch -->
    <title>icon-arrow-right</title>
    <desc>Created with Sketch.</desc>
    <defs></defs>
    <g id="icon-arrow-right" stroke="none" stroke-width="1" fill="none" fill-rule="evenodd">
        <path d="M23,5 L23,5 C32.9411255,5 41,13.0588745 41,23 L41,23 C41,32.9411255 32.9411255,41 23,41 L23,41 C13.0588745,41 5,32.9411255 5,23 L5,23 C5,13.0588745 13.0588745,5 23,5 Z" id="Rectangle-2-Copy" stroke="#212121" stroke-width="2" fill="#FFFFFF"></path>
        <path d="M14.6916054,18.0026301 C14.4101391,18.0027018 14.1567803,18.6732952 14.0508663,18.9340571 C13.9449524,19.194819 14.0076038,19.4937501 14.2093105,19.6900476 L22.5095932,27.9897972 C22.7797219,28.2598112 23.2175837,28.2598112 23.4877124,27.9897972 L31.7879951,19.6900476 C31.9682933,19.5164811 32.0407755,19.2590708 31.9775315,19.0169359 C31.9142875,18.774801 31.7251813,18.085707 31.4830309,18.0224671 C31.2408805,17.9592272 30.9834536,18.0317047 30.809876,18.2119913 L22.9986182,26.0227473 L15.1873605,18.2119913 C15.0571342,18.0781357 14.8783148,18.5026188 14.691557,18.5026093 L14.6916054,18.0026301 Z" id="Shape" fill="#000000" transform="translate(23.000000, 23.096154) rotate(-90.000000) translate(-23.000000, -23.096154) "></path>
    </g>
</svg>