<?xml version="1.0" encoding="UTF-8"?>
<svg width="112px" height="108px" viewBox="0 0 112 108" version="1.1" xmlns="http://www.w3.org/2000/svg" xmlns:xlink="http://www.w3.org/1999/xlink">
    <!-- Generator: Sketch 49.1 (51147) - http://www.bohemiancoding.com/sketch -->
    <title>RISK</title>
    <desc>Created with Sketch.</desc>
    <defs></defs>
    <g id="Page-1" stroke="none" stroke-width="1" fill="none" fill-rule="evenodd" stroke-linecap="round" stroke-linejoin="round">
        <g id="USDA_Home_Carousel-Cards" transform="translate(-248.000000, -952.000000)" stroke="#000000" stroke-width="2">
            <g id="RISK" transform="translate(249.000000, 953.000000)">
                <g id="Group">
                    <g transform="translate(8.555556, 70.888889)" id="Shape">
                        <path d="M6.68188889,0.596444444 L0.651444444,6.62688889"></path>
                        <path d="M6.68188889,17.1856667 L0.651444444,23.2161111"></path>
                        <path d="M18.9041111,0.596444444 L12.8736667,6.62688889"></path>
                        <path d="M18.9041111,17.1856667 L12.8736667,23.2161111"></path>
                        <path d="M80.0152222,0.596444444 L73.9847778,6.62688889"></path>
                        <path d="M80.0152222,17.1856667 L73.9847778,23.2161111"></path>
                        <path d="M92.2374444,0.596444444 L86.207,6.62688889"></path>
                        <path d="M92.2374444,17.1856667 L86.207,23.2161111"></path>
                    </g>
                    <path d="M95.6266667,26.8668889 C95.5521111,26.8668889 95.4812222,26.8766667 95.4078889,26.8778889 C95.4078889,26.8742222 95.4091111,26.8705556 95.4091111,26.8668889 C95.4091111,12.0291111 83.3812222,0 68.5422222,0 C57.7072222,0 48.3926667,6.42888889 44.1442222,15.6676667 C41.3184444,14.1765556 38.104,13.3234444 34.6854444,13.3234444 C25.8243333,13.3234444 18.3076667,19.0092222 15.5307778,26.9243333 C15.1494444,26.8925556 14.7644444,26.8668889 14.3733333,26.8668889 C6.89333333,26.8668889 0.831111111,32.9291111 0.831111111,40.4091111 C0.831111111,47.8878889 6.89333333,53.9513333 14.3733333,53.9513333 L95.6266667,53.9513333 C103.106667,53.9513333 109.168889,47.8878889 109.168889,40.4091111 C109.168889,32.9291111 103.106667,26.8668889 95.6266667,26.8668889 Z" id="Shape"></path>
                    <polygon id="Shape" points="51.7586667 62.931 61.6171111 62.931 55.9447778 77.9227778 64.8584444 77.9227778 45.1415556 106.014333 53.4245556 83.5841111 45.8162222 83.5841111"></polygon>
                </g>
            </g>
        </g>
    </g>
</svg>