<svg xmlns="http://www.w3.org/2000/svg" width="32" height="32" viewBox="0 0 32 32">
  <g fill="none" fill-rule="evenodd" transform="translate(-2 -2)">
    <path fill="#FFF" stroke="#212121" stroke-width="2" d="M18,3.91304348 L18,3.91304348 C25.7800113,3.91304348 32.0869565,10.2199887 32.0869565,18 L32.0869565,18 C32.0869565,25.7800113 25.7800113,32.0869565 18,32.0869565 L18,32.0869565 C10.2199887,32.0869565 3.91304348,25.7800113 3.91304348,18 L3.91304348,18 C3.91304348,10.2199887 10.2199887,3.91304348 18,3.91304348 Z"/>
    <path fill="#000" d="M11.4977781,14.0890149 C11.2775002,14.089071 11.0792194,14.6138832 10.9963302,14.8179577 C10.913441,15.0220322 10.9624726,15.2559783 11.12033,15.4096025 L17.6162034,21.9050587 C17.8276085,22.116374 18.1702829,22.116374 18.381688,21.9050587 L24.8775614,15.4096025 C25.0186643,15.2737678 25.0753895,15.0723163 25.0258942,14.8828194 C24.9763989,14.6933225 24.8284028,14.1540316 24.6388937,14.1045395 C24.4493847,14.0550473 24.2479202,14.1117689 24.1120768,14.2528627 L17.9989186,20.3656283 L11.8857604,14.2528627 C11.7838442,14.1481062 11.6438986,14.4803104 11.4977402,14.480303 L11.4977781,14.0890149 Z" transform="rotate(90 18 18.075)"/>
  </g>
</svg>
