<?xml version="1.0" encoding="UTF-8"?>
<svg width="24px" height="24px" viewBox="0 0 24 24" version="1.1" xmlns="http://www.w3.org/2000/svg" xmlns:xlink="http://www.w3.org/1999/xlink">
    <!-- Generator: sketchtool 57.1 (101010) - https://sketch.com -->
    <title>C8F1832E-7AAB-4738-A50B-FA81E0086D96</title>
    <desc>Created with sketchtool.</desc>
    <g id="UI-Components" stroke="none" stroke-width="1" fill="none" fill-rule="evenodd">
        <g id="Icons" transform="translate(-456.000000, -1972.000000)" fill="#212121" fill-rule="nonzero">
            <path d="M468,1972 C474.627417,1972 480,1977.37258 480,1984 C480,1990.62742 474.627417,1996 468,1996 C461.372583,1996 456,1990.62742 456,1984 C456,1977.37258 461.372583,1972 468,1972 Z M468.808457,1982.19092 L468.7776,1982.19092 L466.302857,1982.48134 L466.302857,1983.42521 L467.018743,1983.63697 L467.018743,1987.48504 L466.407771,1987.5879 L466.407771,1988.39866 L469.752686,1988.39866 L469.752686,1987.5879 L469.178743,1987.48504 L469.178743,1982.43899 L468.808457,1982.19092 Z M468.098743,1979.46218 L467.967742,1979.46632 C467.837261,1979.47672 467.708798,1979.50584 467.586514,1979.55294 C467.442145,1979.60747 467.311589,1979.69212 467.203886,1979.80101 C467.098556,1979.90877 467.016669,1980.03639 466.9632,1980.17613 C466.905495,1980.32281 466.876194,1980.47876 466.876791,1980.63597 C466.875645,1980.9018 466.98745,1981.15611 467.185371,1981.33782 C467.285489,1981.42821 467.402976,1981.49815 467.530971,1981.54353 C467.669014,1981.59487 467.815332,1981.62151 467.962971,1981.62218 L467.962971,1981.62218 L468.104601,1981.61851 C468.245754,1981.60843 468.385032,1981.57918 468.5184,1981.53143 C468.668434,1981.47734 468.805129,1981.39281 468.919543,1981.28336 C469.026335,1981.17907 469.108494,1981.05309 469.160229,1980.91429 C469.214125,1980.76677 469.241277,1980.61115 469.240457,1980.45445 C469.241452,1980.32191 469.216305,1980.19042 469.1664,1980.06723 C469.118483,1979.94826 469.044785,1979.84091 468.9504,1979.75261 C468.847418,1979.65836 468.725503,1979.58624 468.592457,1979.54084 C468.433836,1979.48655 468.266738,1979.45992 468.098743,1979.46218 L468.098743,1979.46218 Z" id="info"></path>
        </g>
    </g>
</svg>