<?xml version="1.0" encoding="UTF-8"?>
<svg width="77px" height="75px" viewBox="0 0 77 75" version="1.1" xmlns="http://www.w3.org/2000/svg" xmlns:xlink="http://www.w3.org/1999/xlink">
    <!-- Generator: sketchtool 57.1 (101010) - https://sketch.com -->
    <title>7D521883-7526-4229-AE5E-1EB5AF5C5665</title>
    <desc>Created with sketchtool.</desc>
    <g id="UI-Components" stroke="none" stroke-width="1" fill="none" fill-rule="evenodd">
        <g id="Icons" transform="translate(-691.000000, -2799.000000)" fill="#212121">
            <g id="land" transform="translate(691.000000, 2799.000000)">
                <polygon id="Path" points="35.0719178 42.4130664 0 42.4130664 0 44.5205479 33.7534247 44.5205479"></polygon>
                <polygon id="Path" points="30.1671233 50.1053741 0 50.1053741 0 52.2128556 28.8486301 52.2128556"></polygon>
                <polygon id="Path" points="23.8383562 60.0632244 0 60.0632244 0 62.170706 22.519863 62.170706"></polygon>
                <path d="M0,74.4467861 L7.54178082,74.4467861 L14.7671233,74.4467861 C14.819863,74.288725 14.9253425,74.0779768 15.0308219,73.9199157 L16.0328767,72.3393045 L0,72.3393045 L0,74.4467861 Z" id="Path"></path>
                <rect id="Rectangle" x="64.9226027" y="42.4130664" width="12.0246575" height="2.10748156"></rect>
                <rect id="Rectangle" x="64.9226027" y="50.1053741" width="12.0246575" height="2.10748156"></rect>
                <rect id="Rectangle" x="64.9226027" y="60.0632244" width="12.0246575" height="2.10748156"></rect>
                <polygon id="Path" points="64.9226027 74.4467861 70.8294521 74.4467861 77 74.4467861 77 72.3393045 64.9226027 72.3393045"></polygon>
                <polygon id="Path" points="46.7273973 36.0906217 46.7273973 36.0906217 0 36.0906217 0 38.1981033 39.660274 38.1981033 16.560274 74.4467861 19.0390411 74.4467861 42.1390411 38.1981033 45.1452055 38.1981033 29.5869863 74.4467861 31.8547945 74.4467861 47.4657534 38.1981033 50.5773973 38.1981033 40.7678082 74.4467861 42.930137 74.4467861 52.739726 38.1981033 55.9041096 38.1981033 50.9465753 74.4467861 53.1089041 74.4467861 58.0664384 38.1981033 61.2308219 38.1981033 61.2308219 74.4467861 63.340411 74.4467861 63.340411 38.1981033 77 38.1981033 77 36.0906217"></polygon>
                <rect id="Rectangle" x="15.8746575" y="19.5468915" width="3.00616438" height="2.10748156"></rect>
                <path d="M7.43630137,25.3424658 C7.43630137,19.8630137 11.8664384,15.4373024 17.2986301,15.4373024 C22.7308219,15.4373024 27.1609589,19.8630137 27.1609589,25.3424658 L27.1609589,34.5100105 L29.2705479,34.5100105 L29.2705479,26.3962065 L40.5568493,26.3962065 L40.5568493,34.5100105 L42.6664384,34.5100105 L42.6664384,25.3424658 C42.6664384,18.7038988 37.2869863,13.3298209 30.6945205,13.3298209 L17.2986301,13.3298209 C10.7061644,13.3298209 5.32671233,18.7038988 5.32671233,25.3424658 L5.32671233,34.5100105 L7.43630137,34.5100105 L7.43630137,25.3424658 Z M30.6417808,15.4373024 C35.7047945,15.4373024 39.9239726,19.3361433 40.4513699,24.288725 L29.1650685,24.288725 C28.8486301,20.6006322 26.8972603,17.4394099 23.9965753,15.4373024 L30.6417808,15.4373024 Z" id="Shape" fill-rule="nonzero"></path>
                <path d="M56.6952055,26.7650158 C58.330137,26.7650158 59.9123288,26.2908325 61.2308219,25.3951528 L61.2308219,34.5100105 L63.340411,34.5100105 L63.340411,25.3951528 C64.6589041,26.2908325 66.2410959,26.7650158 67.8760274,26.7650158 C72.4116438,26.7650158 76.1034247,23.0769231 76.1034247,18.4931507 C76.1034247,14.857745 73.6773973,11.6438356 70.3020548,10.5900948 C70.460274,9.95785037 70.5130137,9.3256059 70.5130137,8.64067439 C70.5130137,4.056902 66.8212329,0.368809273 62.2856164,0.368809273 C57.75,0.368809273 54.0582192,4.10958904 54.0582192,8.64067439 C54.0582192,9.3256059 54.1636986,9.95785037 54.2691781,10.5900948 C50.8938356,11.6438356 48.4678082,14.857745 48.4678082,18.4931507 C48.4678082,23.024236 52.159589,26.7650158 56.6952055,26.7650158 Z M55.7986301,12.3814542 L57.1171233,12.170706 L56.6424658,10.9589041 C56.3260274,10.2212856 56.1678082,9.43097998 56.1678082,8.64067439 C56.1678082,5.21601686 58.910274,2.47629083 62.2856164,2.47629083 C65.6609589,2.47629083 68.4034247,5.2687039 68.4034247,8.64067439 C68.4034247,9.43097998 68.2452055,10.2212856 67.9815068,10.9589041 L67.5068493,12.170706 L68.8253425,12.3814542 C71.7787671,12.8029505 74.0465753,15.4373024 74.0465753,18.4931507 C74.0465753,21.9178082 71.3041096,24.6575342 67.9287671,24.6575342 C66.0828767,24.6575342 64.3424658,23.8145416 63.1821918,22.3919916 L62.3910959,21.3909378 L61.5472603,22.3919916 C60.3869863,23.8672287 58.6465753,24.6575342 56.8006849,24.6575342 C53.4253425,24.6575342 50.6828767,21.8651212 50.6828767,18.4931507 C50.5773973,15.4373024 52.8452055,12.8029505 55.7986301,12.3814542 Z" id="Shape" fill-rule="nonzero"></path>
                <path d="M12.0246575,34.5100105 L14.1342466,34.5100105 L14.1342466,29.6101159 L18.9335616,34.5100105 L22.519863,34.5100105 L22.519863,26.1854584 L12.0246575,26.1854584 L12.0246575,34.5100105 Z M20.410274,28.2929399 L20.410274,32.9820864 L15.8219178,28.2929399 L20.410274,28.2929399 Z" id="Shape" fill-rule="nonzero"></path>
            </g>
        </g>
    </g>
</svg>