<?xml version="1.0" encoding="UTF-8"?>
<svg viewBox="0 0 18 14" version="1.1" xmlns="http://www.w3.org/2000/svg" xmlns:xlink="http://www.w3.org/1999/xlink">
    <!-- Generator: sketchtool 52.5 (67469) - http://www.bohemiancoding.com/sketch -->
    <title>9FE227CA-D268-46EE-989A-7E8FFD0861C2</title>
    <desc>Created with sketchtool.</desc>
    <g id="Landing-Page" stroke="none" stroke-width="1" fill="none" fill-rule="evenodd">
        <g id="Fund-Landing-Page" transform="translate(-180.000000, -745.000000)" fill="#49A564">
            <g id="UI-Component/Icons/Leaves" transform="translate(180.000000, 745.000000)">
                <g id="UI-Components/Icons/Leaves">
                    <path d="M7.33807059,13.5942059 C7.33807059,13.5942059 2.25571765,13.9030294 0.455717647,8.65302941 C0.455717647,8.65302941 -0.179576471,6.38832353 0.455717647,1.85891176 C0.455717647,1.85891176 6.40588235,1.85891176 9.13807059,6.59441176 C9.13807059,6.59441176 10.5496941,9.81997059 8.50277647,12.9767647 C8.50277647,12.9767647 7.16167059,9.13335294 4.19696471,7.34917647 C4.19696471,7.34938235 7.44395294,11.3982647 7.33807059,13.5942059 Z" id="Shape" fill-rule="nonzero"></path>
                    <path d="M10.3381412,8.65344118 C10.3381412,8.65344118 10.4823529,6.07352941 7.83529412,4.22058824 C7.83529412,4.22058824 10.4086588,-0.1995 17.3261647,0.0749411765 C17.3261647,0.0749411765 18.3705882,5.12132353 17.3261647,8.31023529 C17.3261647,8.31023529 16.4088,13.1142941 9.27910588,13.9378235 C9.27910588,13.9378235 10.2674118,8.57191176 13.6558588,7 C13.6558588,7 11.6792471,6.86926471 10.3381412,8.65344118 Z" id="Shape" fill-rule="nonzero"></path>
                </g>
            </g>
        </g>
    </g>
</svg>