<?xml version="1.0" encoding="UTF-8"?>
<svg width="18px" height="24px" viewBox="0 0 18 24" version="1.1" xmlns="http://www.w3.org/2000/svg" xmlns:xlink="http://www.w3.org/1999/xlink">
    <!-- Generator: sketchtool 57.1 (101010) - https://sketch.com -->
    <title>19DEDC08-A37E-4453-865E-50F2C9B2E74D</title>
    <desc>Created with sketchtool.</desc>
    <g id="UI-Components" stroke="none" stroke-width="1" fill="none" fill-rule="evenodd">
        <g id="Icons" transform="translate(-672.000000, -1972.000000)" fill="#212121">
            <path d="M680.869565,1972 C685.769843,1972 689.73913,1976.09565 689.73913,1981.15235 C689.73913,1985.12174 684.27527,1992.50435 681.923165,1995.48765 C681.384104,1996.17113 680.355026,1996.17113 679.815965,1995.48765 C677.463861,1992.50435 672,1985.12174 672,1981.15235 C672,1976.09565 675.969287,1972 680.869565,1972 Z M680.869565,1985.12174 C683.001183,1985.12174 684.716348,1983.352 684.716348,1981.15235 C684.716348,1978.9527 683.001183,1977.18296 680.869565,1977.18296 C678.737948,1977.18296 677.022783,1978.9527 677.022783,1981.15235 C677.022783,1983.352 678.737948,1985.12174 680.869565,1985.12174 Z" id="location"></path>
        </g>
    </g>
</svg>