<?xml version="1.0" encoding="UTF-8"?>
<svg width="24px" height="19px" viewBox="0 0 24 19" version="1.1" xmlns="http://www.w3.org/2000/svg" xmlns:xlink="http://www.w3.org/1999/xlink">
    <!-- Generator: sketchtool 57.1 (101010) - https://sketch.com -->
    <title>E2490D81-6A8F-4541-AEDA-61EBBAD76512</title>
    <desc>Created with sketchtool.</desc>
    <g id="UI-Components" stroke="none" stroke-width="1" fill="none" fill-rule="evenodd">
        <g id="Icons" transform="translate(-528.000000, -1975.000000)" fill="#212121">
            <g id="mail" transform="translate(528.000000, 1975.000000)">
                <path d="M11.9800425,1.05693232e-13 C15.058866,1.05693232e-13 18.1353366,1.05693232e-13 21.2129836,0.00588235294 C21.5739955,0.0067520997 21.9338812,0.0461916294 22.2865131,0.123529412 C22.9829836,0.278235294 23.4629836,0.720588235 23.7571013,1.36235294 C24.0041601,1.89176471 23.9253366,2.19470588 23.4318072,2.50823529 C22.5223954,3.08647059 21.6041601,3.64941176 20.6947483,4.22705882 C18.0235719,5.92176471 15.3476895,7.60941176 12.6912189,9.32647059 C12.1547483,9.67411765 11.7329836,9.67058824 11.1941601,9.32647059 C7.63651305,7.03823529 4.05886599,4.77941176 0.487101288,2.51176471 C-0.042310477,2.17470588 -0.101134006,2.00470588 0.134160111,1.41941176 C0.493571876,0.510588235 1.25357188,0.0141176471 2.36474835,0.0111764706 C5.57004246,0.00235294118 8.77651305,0.0111764706 11.9800425,0.0111764706 L11.9800425,1.05693232e-13 Z" id="Path"></path>
                <path d="M11.9129836,18.3329412 C8.77651305,18.3329412 5.6406307,18.3423529 2.50121893,18.3223529 C2.06356446,18.3152843 1.63031074,18.233726 1.22004246,18.0811765 C0.595336582,17.85 0.235336582,17.3335294 0.0453365819,16.7023529 C-0.0605457711,16.3447059 0.0129836407,16.1517647 0.330042464,15.9523529 C3.18847384,14.1519608 6.04827776,12.3533333 8.90945423,10.5564706 C9.22474835,10.3576471 9.54592482,10.3741176 9.8506307,10.5564706 C10.3706307,10.8701961 10.8853366,11.1915686 11.3947483,11.5205882 C11.8594542,11.8229412 12.0223954,11.8276471 12.4882778,11.5264706 C13.0476895,11.1647059 13.6123954,10.8117647 14.1735719,10.4535294 C14.4635719,10.2682353 14.7282778,10.3458824 14.9935719,10.5158824 C16.1645523,11.2660784 17.3371013,12.0137255 18.5112189,12.7588235 C20.1335719,13.7847059 21.7578856,14.8070588 23.3841601,15.8258824 C23.9306307,16.17 24.0206307,16.4417647 23.7494542,17.03 C23.3300425,17.9382353 22.5512189,18.31 21.6129836,18.3188235 C18.9376895,18.3441176 16.2600425,18.3305882 13.5865131,18.3317647 L11.9129836,18.3317647 L11.9129836,18.3329412 Z" id="Path"></path>
                <polygon id="Path" points="7.69945423 9.17647059 0.0412189348 14.0505882 0.0412189348 4.30352941"></polygon>
                <polygon id="Path" points="16.2129836 9.17647059 23.8500425 4.31352941 23.8500425 14.0364706"></polygon>
            </g>
        </g>
    </g>
</svg>