<?xml version="1.0" encoding="UTF-8"?>
<svg width="72px" height="66px" viewBox="0 0 72 66" version="1.1" xmlns="http://www.w3.org/2000/svg" xmlns:xlink="http://www.w3.org/1999/xlink">
    <!-- Generator: Sketch 52.5 (67469) - http://www.bohemiancoding.com/sketch -->
    <title>SCL Icon</title>
    <desc>Created with Sketch.</desc>
    <g id="Program-Page-Layout" stroke="none" stroke-width="1" fill="none" fill-rule="evenodd">
        <g id="Service-Center-Locator-Copy-7" transform="translate(-80.000000, -418.000000)" fill="#212121" fill-rule="nonzero">
            <path d="M127.403469,418.000205 C122.730096,418.000205 118.67936,420.708632 116.613696,424.647932 L105.005741,421.324068 C104.605732,421.240941 104.366414,421.284795 104.085287,421.324068 L81.1761962,427.869523 C80.4984144,428.068177 79.993678,428.748495 80.0000598,429.45475 L80.0000598,481.818354 C80.0082417,482.827008 81.1286598,483.661554 82.0966508,483.377972 L104.545514,476.960399 L126.994378,483.377972 C127.292851,483.465435 127.61636,483.465435 127.914832,483.377972 L150.823923,476.832517 C151.493441,476.636235 151.995478,475.970645 152.00006,475.272899 L152.00006,422.909295 C152.00906,421.89205 150.879723,421.038032 149.903469,421.324068 L138.269987,424.647932 C136.101314,420.463259 131.763232,417.974023 127.403469,418.000205 Z M127.403469,421.272932 C132.367214,421.272932 136.429078,425.393705 136.429078,430.605277 C136.429078,431.686668 136.069814,433.359523 135.68756,434.389368 C132.953523,440.196086 130.184714,445.99999 127.429078,451.801308 C124.685469,445.994181 121.892769,440.20165 119.170514,434.389368 C118.788914,433.356495 118.429078,431.683886 118.429078,430.605277 C118.633132,424.661186 123.102696,421.315314 127.403469,421.272932 Z M102.909151,425.057023 L102.909151,474.020099 L83.272787,479.645099 L83.272787,430.682023 L102.909151,425.057023 Z M106.181878,425.057023 L115.463169,427.716114 C115.250605,428.644914 115.156351,429.612332 115.156351,430.605277 C115.156351,432.307668 115.572805,434.144814 116.102332,435.565586 C119.320487,442.38775 122.579305,449.221581 125.818241,456.045626 L125.818241,479.645099 L106.181878,474.020099 L106.181878,425.057023 Z M148.727332,425.057023 L148.727332,474.020099 L129.090969,479.645099 L129.090969,455.943354 C132.274432,449.136245 135.610405,442.378341 138.755741,435.565586 C139.289441,434.140886 139.701805,432.306114 139.701805,430.605277 C139.701723,429.604232 139.589469,428.644832 139.394987,427.741641 L148.727332,425.057023 Z M127.429078,425.363841 C124.73726,425.363841 122.519987,427.581114 122.519987,430.272932 C122.519987,432.96475 124.73726,435.182023 127.429078,435.182023 C130.120732,435.182023 132.338169,432.964832 132.338169,430.272932 C132.338169,427.581032 130.120732,425.363841 127.429078,425.363841 Z M127.429078,428.636568 C128.351987,428.636568 129.065441,429.349859 129.065441,430.272932 C129.065441,431.196005 128.351987,431.909295 127.429078,431.909295 C126.50576,431.909295 125.792714,431.196086 125.792714,430.272932 C125.792714,429.349777 126.50576,428.636568 127.429078,428.636568 Z" id="SCL-Icon"></path>
        </g>
    </g>
</svg>