<?xml version="1.0" encoding="UTF-8"?>
<svg width="81px" height="80px" viewBox="0 0 81 80" version="1.1" xmlns="http://www.w3.org/2000/svg" xmlns:xlink="http://www.w3.org/1999/xlink">
    <!-- Generator: sketchtool 57.1 (101010) - https://sketch.com -->
    <title>BBB0E6F2-774B-47BC-A5C3-036FE2A2239A</title>
    <desc>Created with sketchtool.</desc>
    <g id="UI-Components" stroke="none" stroke-width="1" fill="none" fill-rule="evenodd">
        <g id="Icons" transform="translate(-814.000000, -2794.000000)" fill="#212121" fill-rule="nonzero">
            <g id="mfp" transform="translate(814.000000, 2794.000000)">
                <path d="M1.177,80 L79.177,80 C79.729,80 80.177,79.552 80.177,79 C80.177,78.448 79.729,78 79.177,78 L70.134,78 L70.134,69.367 C71.798,69.302 75.068,68.879 77.22,66.661 C80.141,63.65 79.7,58.657 79.68,58.446 C79.633,57.958 79.239,57.575 78.75,57.543 C78.602,57.534 76.039,57.39 73.518,58.379 C73.765,57.623 73.922,56.816 73.93,55.97 C73.969,51.595 70.038,48.14 69.871,47.996 C69.5,47.675 68.951,47.671 68.575,47.984 C68.405,48.126 64.414,51.51 64.375,55.885 C64.366,56.865 64.563,57.794 64.866,58.654 C62.183,57.55 59.338,57.802 59.181,57.816 C58.693,57.863 58.31,58.257 58.278,58.746 C58.264,58.957 57.972,63.962 60.983,66.885 C63.195,69.031 66.463,69.359 68.133,69.376 L68.133,78 L41.446,78 L41.446,69.367 C43.111,69.302 46.38,68.879 48.532,66.661 C51.454,63.65 51.012,58.657 50.992,58.446 C50.945,57.958 50.551,57.575 50.062,57.543 C49.914,57.534 47.351,57.39 44.83,58.379 C45.077,57.623 45.234,56.816 45.242,55.97 C45.281,51.595 41.35,48.141 41.183,47.996 C40.812,47.675 40.263,47.67 39.887,47.984 C39.717,48.126 35.726,51.51 35.687,55.885 C35.678,56.865 35.875,57.794 36.178,58.654 C33.495,57.55 30.651,57.802 30.494,57.816 C30.006,57.863 29.623,58.257 29.591,58.746 C29.577,58.957 29.285,63.962 32.296,66.885 C34.508,69.031 37.776,69.359 39.446,69.376 L39.446,78 L12.758,78 L12.758,69.367 C14.423,69.302 17.692,68.879 19.844,66.661 C22.766,63.65 22.324,58.657 22.304,58.446 C22.257,57.958 21.863,57.575 21.374,57.543 C21.226,57.533 18.663,57.39 16.142,58.379 C16.389,57.623 16.546,56.816 16.554,55.97 C16.593,51.595 12.662,48.141 12.495,47.996 C12.124,47.675 11.575,47.67 11.199,47.984 C11.029,48.126 7.038,51.51 6.999,55.885 C6.99,56.865 7.187,57.794 7.49,58.654 C4.807,57.55 1.963,57.802 1.806,57.816 C1.318,57.863 0.935,58.257 0.903,58.746 C0.889,58.957 0.597,63.962 3.608,66.885 C5.82,69.031 9.088,69.359 10.758,69.376 L10.758,78 L1.177,78 C0.625,78 0.177,78.448 0.177,79 C0.177,79.552 0.625,80 1.177,80 Z M75.785,65.268 C74.161,66.941 71.523,67.297 70.134,67.363 L70.134,67.027 C70.195,65.58 70.537,63.196 72.047,61.64 C73.677,59.961 76.328,59.608 77.714,59.543 C77.693,60.927 77.423,63.58 75.785,65.268 Z M69.206,50.145 C70.19,51.2 71.953,53.443 71.931,55.952 C71.909,58.449 70.103,60.668 69.1,61.709 C68.116,60.654 66.353,58.411 66.376,55.902 C66.398,53.405 68.204,51.186 69.206,50.145 Z M62.377,65.449 C60.699,63.82 60.345,61.171 60.281,59.785 C61.668,59.808 64.326,60.082 66.005,61.711 C67.684,63.34 68.037,65.992 68.102,67.378 C66.718,67.357 64.064,67.087 62.377,65.449 Z M47.097,65.268 C45.473,66.941 42.836,67.297 41.447,67.363 L41.447,67.015 C41.509,65.567 41.854,63.191 43.36,61.64 C44.989,59.962 47.638,59.608 49.024,59.544 C49,60.931 48.726,63.589 47.097,65.268 Z M40.518,50.145 C41.502,51.2 43.265,53.443 43.242,55.952 C43.22,58.449 41.414,60.668 40.411,61.709 C39.427,60.654 37.664,58.411 37.687,55.902 C37.709,53.405 39.515,51.186 40.518,50.145 Z M33.688,65.449 C32.01,63.82 31.656,61.171 31.592,59.785 C32.979,59.808 35.637,60.082 37.316,61.711 C38.995,63.34 39.348,65.992 39.413,67.378 C38.029,67.357 35.376,67.087 33.688,65.449 Z M18.408,65.268 C16.784,66.941 14.147,67.297 12.758,67.363 L12.758,67.018 C12.82,65.57 13.165,63.193 14.671,61.64 C16.3,59.962 18.949,59.608 20.335,59.544 C20.312,60.931 20.037,63.589 18.408,65.268 Z M11.83,50.145 C12.814,51.2 14.577,53.443 14.554,55.952 C14.532,58.449 12.726,60.668 11.724,61.709 C10.74,60.654 8.977,58.411 8.999,55.902 C9.021,53.405 10.827,51.186 11.83,50.145 Z M5,65.449 C3.322,63.82 2.968,61.171 2.904,59.785 C4.291,59.808 6.95,60.082 8.628,61.711 C10.307,63.34 10.66,65.992 10.725,67.378 C9.341,67.357 6.687,67.087 5,65.449 Z" id="Shape"></path>
                <path d="M31.866,20.505 C31.866,25.559 35.978,29.672 41.033,29.672 C46.088,29.672 50.2,25.56 50.2,20.505 C50.2,15.45 46.088,11.338 41.033,11.338 C35.978,11.338 31.866,15.451 31.866,20.505 Z M48.199,20.505 C48.199,24.457 44.984,27.672 41.032,27.672 C37.08,27.672 33.865,24.457 33.865,20.505 C33.865,16.553 37.08,13.338 41.032,13.338 C44.984,13.338 48.199,16.554 48.199,20.505 Z" id="Shape"></path>
                <path d="M41.033,7.029 C41.585,7.029 42.033,6.581 42.033,6.029 L42.033,1 C42.033,0.448 41.585,0 41.033,0 C40.481,0 40.033,0.448 40.033,1 L40.033,6.029 C40.033,6.582 40.48,7.029 41.033,7.029 Z" id="Path"></path>
                <path d="M32.996,8.424 C33.18,8.748 33.518,8.929 33.866,8.929 C34.034,8.929 34.204,8.887 34.36,8.798 C34.84,8.525 35.007,7.914 34.734,7.434 L32.244,3.065 C31.971,2.585 31.359,2.416 30.88,2.691 C30.4,2.964 30.233,3.575 30.506,4.055 L32.996,8.424 Z" id="Path"></path>
                <path d="M23.74,11.426 L28.068,13.988 C28.228,14.083 28.403,14.128 28.576,14.128 C28.918,14.128 29.251,13.953 29.437,13.637 C29.719,13.162 29.562,12.549 29.086,12.267 L24.758,9.705 C24.284,9.424 23.67,9.58 23.388,10.056 C23.107,10.532 23.265,11.145 23.74,11.426 Z" id="Path"></path>
                <path d="M21.513,21.181 L26.541,21.264 C26.547,21.264 26.552,21.264 26.558,21.264 C27.102,21.264 27.548,20.827 27.558,20.281 C27.567,19.729 27.127,19.274 26.575,19.264 L21.547,19.181 C21.541,19.181 21.536,19.181 21.53,19.181 C20.986,19.181 20.54,19.618 20.53,20.164 C20.521,20.716 20.961,21.171 21.513,21.181 Z" id="Path"></path>
                <path d="M27.858,26.586 L23.448,29.003 C22.964,29.269 22.786,29.877 23.052,30.36 C23.234,30.692 23.576,30.88 23.93,30.88 C24.093,30.88 24.257,30.84 24.409,30.757 L28.819,28.34 C29.303,28.074 29.481,27.466 29.215,26.983 C28.95,26.499 28.34,26.32 27.858,26.586 Z" id="Path"></path>
                <path d="M30.291,37.973 C30.455,38.073 30.635,38.121 30.814,38.121 C31.15,38.121 31.478,37.952 31.667,37.645 L34.301,33.361 C34.59,32.89 34.443,32.275 33.973,31.985 C33.501,31.695 32.886,31.842 32.597,32.313 L29.963,36.597 C29.674,37.067 29.821,37.683 30.291,37.973 Z" id="Path"></path>
                <path d="M39.551,34.94 L39.384,39.966 C39.365,40.518 39.798,40.98 40.35,40.999 C40.361,40.999 40.372,40.999 40.384,40.999 C40.921,40.999 41.365,40.573 41.383,40.032 L41.55,35.006 C41.569,34.454 41.136,33.992 40.584,33.973 C40.031,33.954 39.569,34.389 39.551,34.94 Z" id="Path"></path>
                <path d="M47.312,32.429 C46.823,32.686 46.636,33.291 46.893,33.78 L49.236,38.23 C49.415,38.57 49.762,38.764 50.122,38.764 C50.279,38.764 50.438,38.727 50.587,38.649 C51.076,38.392 51.263,37.787 51.006,37.298 L48.663,32.848 C48.406,32.36 47.802,32.173 47.312,32.429 Z" id="Path"></path>
                <path d="M53.774,27.45 C53.308,27.153 52.69,27.29 52.393,27.755 C52.096,28.221 52.232,28.839 52.698,29.136 L56.937,31.842 C57.104,31.948 57.29,31.999 57.474,31.999 C57.804,31.999 58.127,31.836 58.318,31.537 C58.615,31.071 58.479,30.453 58.013,30.156 L53.774,27.45 Z" id="Path"></path>
                <path d="M54.492,21.179 C54.464,21.73 54.889,22.2 55.441,22.227 L60.464,22.478 C60.481,22.479 60.498,22.479 60.515,22.479 C61.044,22.479 61.486,22.063 61.513,21.529 C61.541,20.978 61.116,20.508 60.564,20.481 L55.541,20.23 C54.998,20.21 54.52,20.627 54.492,21.179 Z" id="Path"></path>
                <path d="M53.953,14.974 C54.104,14.974 54.259,14.939 54.403,14.867 L58.891,12.598 C59.384,12.348 59.581,11.747 59.332,11.254 C59.082,10.761 58.481,10.563 57.988,10.813 L53.5,13.082 C53.007,13.332 52.81,13.933 53.059,14.426 C53.235,14.773 53.587,14.974 53.953,14.974 Z" id="Path"></path>
                <path d="M48.471,9.268 C48.641,9.38 48.832,9.434 49.022,9.434 C49.346,9.434 49.665,9.277 49.857,8.986 L52.632,4.792 C52.937,4.332 52.81,3.711 52.35,3.406 C51.889,3.101 51.269,3.227 50.964,3.688 L48.189,7.882 C47.884,8.342 48.01,8.963 48.471,9.268 Z" id="Path"></path>
            </g>
        </g>
    </g>
</svg>