<?xml version="1.0" encoding="UTF-8"?>
<svg width="25px" height="24px" viewBox="0 0 25 24" version="1.1" xmlns="http://www.w3.org/2000/svg" xmlns:xlink="http://www.w3.org/1999/xlink">
    <!-- Generator: Sketch 52.5 (67469) - http://www.bohemiancoding.com/sketch -->
    <title>Group 273</title>
    <desc>Created with Sketch.</desc>
    <defs>
        <path d="M24.7435,20.167 C23.3274,23.427 20.0071,23.999 18.9221,23.999 C18.6035,23.999 13.6416,24.251 6.5088,17.754 C0.7686,12.526 0.0672,6.903 0.0061,5.835 C-0.0534,4.795 0.2569,2.184 3.9963,0.245 C4.4597,0.005 5.3783,-0.102 5.6155,0.126 C5.7208,0.227 8.8594,5.186 8.9419,5.351 C9.0244,5.515 9.0658,5.676 9.0658,5.835 C9.0658,6.061 8.8977,6.345 8.5613,6.684 C8.2252,7.024 7.8597,7.336 7.4644,7.619 C7.0691,7.902 6.7036,8.202 6.3672,8.519 C6.0311,8.836 5.863,9.097 5.863,9.301 C5.8858,9.83 6.3372,11.724 9.7758,14.626 C13.2149,17.528 14.8716,18.345 15.0308,18.402 C15.1902,18.458 15.3227,18.486 15.4288,18.486 C15.6413,18.486 15.9127,18.325 16.243,18.002 C16.573,17.679 17.6833,16.218 18.0371,15.895 C18.391,15.573 18.686,15.411 18.9221,15.411 C19.0871,15.411 19.2552,15.451 19.426,15.53 C19.5971,15.609 24.7685,18.515 24.8674,18.612 C25.1357,18.876 24.9463,19.701 24.7435,20.167 Z" id="path-1"></path>
    </defs>
    <g id="Program-Page-Layout" stroke="none" stroke-width="1" fill="none" fill-rule="evenodd">
        <g id="Service-Center-Locator-Copy-7" transform="translate(-237.000000, -1240.000000)">
            <g id="Group-273" transform="translate(237.000000, 1240.000000)">
                <mask id="mask-2" fill="white">
                    <use xlink:href="#path-1"></use>
                </mask>
                <g id="Clip-272"></g>
                <polygon id="Fill-271" fill="#000000" mask="url(#mask-2)" points="-5 29 30 29 30 -5 -5 -5"></polygon>
            </g>
        </g>
    </g>
</svg>