<?xml version="1.0" encoding="UTF-8"?>
<svg width="20px" height="20px" viewBox="0 0 20 20" version="1.1" xmlns="http://www.w3.org/2000/svg" xmlns:xlink="http://www.w3.org/1999/xlink">
    <!-- Generator: sketchtool 57.1 (101010) - https://sketch.com -->
    <title>4DDD3058-39DB-4A3E-91A7-F03EEB5F4649</title>
    <desc>Created with sketchtool.</desc>
    <g id="UI-Components" stroke="none" stroke-width="1" fill="none" fill-rule="evenodd">
        <g id="Icons" transform="translate(-495.000000, -1058.000000)">
            <g id="Icons/question" transform="translate(495.000000, 1058.000000)">
                <g>
                    <circle id="Oval" stroke="#212121" stroke-width="2" cx="10" cy="10" r="9"></circle>
                    <path d="M9.99267459,12.6957055 C10.5024705,12.6957055 10.9156442,13.1066177 10.9156442,13.6136233 C10.9156442,14.1206289 10.5024705,14.5315411 9.99267459,14.5315411 C9.48287866,14.5315411 9.06970501,14.1206289 9.06970501,13.6136233 C9.06970501,13.1066177 9.48287866,12.6957055 9.99267459,12.6957055 Z M9.96319942,5.53154111 C12.2680072,5.53154111 12.9999997,6.93842531 12.9999997,7.87178049 C12.9999997,9.04849143 12.4999705,9.52150009 11.9753498,9.92131122 C11.4507292,10.3096744 10.890006,10.625187 10.7803031,11.3403372 L10.7803031,11.8017244 L9.1340616,11.8017244 L9.1340616,11.2560386 C9.20696433,10.2003985 9.70699339,9.72773672 10.1948139,9.35168876 C10.6704257,8.97598772 11.0849946,8.69724738 11.0849946,8.04193872 C11.0849946,7.30198458 10.6950173,6.95039362 10.048834,6.95039362 C9.17103619,6.95039362 8.80512724,7.66589077 8.79256983,8.52708915 L6.99999968,8.52708915 C7.03679987,6.79289753 8.18301227,5.53154111 9.96319942,5.53154111 Z" id="Combined-Shape" fill="#212121" fill-rule="nonzero"></path>
                </g>
            </g>
        </g>
    </g>
</svg>