<?xml version="1.0" encoding="UTF-8"?>
<svg width="24px" height="24px" viewBox="0 0 24 24" version="1.1" xmlns="http://www.w3.org/2000/svg" xmlns:xlink="http://www.w3.org/1999/xlink">
    <!-- Generator: sketchtool 57.1 (101010) - https://sketch.com -->
    <title>8BFD784D-09FE-4669-BB40-4F6BDCAF1B39</title>
    <desc>Created with sketchtool.</desc>
    <g id="UI-Components" stroke="none" stroke-width="1" fill="none" fill-rule="evenodd">
        <g id="Icons" transform="translate(-600.000000, -1972.000000)" fill="#212121" fill-rule="nonzero">
            <g id="print" transform="translate(600.000000, 1972.000000)">
                <path d="M20.5714286,1.71428571 C20.5714286,0.768 19.8034286,6.52811138e-14 18.8571429,6.52811138e-14 L5.14285714,6.52811138e-14 C4.19657143,6.52811138e-14 3.42857143,0.768 3.42857143,1.71428571 L3.42857143,3.42857143 L20.5714286,3.42857143 L20.5714286,1.71428571 Z" id="Shape"></path>
                <path d="M22.2857143,5.14285714 L1.71428571,5.14285714 C0.768,5.14285714 0,5.91085714 0,6.85714286 L0,17.1428571 C0,18.0891429 0.768,18.8571429 1.71428571,18.8571429 L3.42857143,18.8571429 L3.42857143,22.2857143 C3.42857143,23.232 4.19657143,24 5.14285714,24 L18.8571429,24 C19.8034286,24 20.5714286,23.232 20.5714286,22.2857143 L20.5714286,18.8571429 L22.2857143,18.8571429 C23.232,18.8571429 24,18.0891429 24,17.1428571 L24,6.85714286 C24,5.91085714 23.232,5.14285714 22.2857143,5.14285714 Z M18.8571429,22.2857143 L5.14285714,22.2857143 L5.14285714,13.7142857 L18.8571429,13.7142857 L18.8571429,22.2857143 Z M20.5714286,10.2857143 L17.1428571,10.2857143 L17.1428571,8.57142857 L20.5714286,8.57142857 L20.5714286,10.2857143 Z" id="Shape"></path>
                <rect id="Rectangle-path" x="6.85714286" y="18.8571429" width="5.14285714" height="1.71428571"></rect>
                <rect id="Rectangle-path" x="6.85714286" y="15.4285714" width="10.2857143" height="1.71428571"></rect>
            </g>
        </g>
    </g>
</svg>