<?xml version="1.0" encoding="UTF-8"?>
<svg width="16px" height="16px" viewBox="0 0 16 16" version="1.1" xmlns="http://www.w3.org/2000/svg" xmlns:xlink="http://www.w3.org/1999/xlink">
    <!-- Generator: sketchtool 57.1 (101010) - https://sketch.com -->
    <title>2D59A018-1483-4E2C-9F76-227B5A9AC918</title>
    <desc>Created with sketchtool.</desc>
    <defs>
        <path d="M11.0769229,6.76923068 C11.0769229,4.39423074 9.14423063,2.46153847 6.76923068,2.46153847 C4.39423074,2.46153847 2.46153847,4.39423074 2.46153847,6.76923068 C2.46153847,9.14423063 4.39423074,11.0769229 6.76923068,11.0769229 C9.14423063,11.0769229 11.0769229,9.14423063 11.0769229,6.76923068 Z M16,14.7692308 C16,15.4423077 15.4423077,16 14.7692308,16 C14.4423077,16 14.125,15.8653846 13.9038462,15.6346154 L10.6057692,12.3461538 C9.48076923,13.125 8.13461538,13.5384615 6.76923077,13.5384615 C3.02884615,13.5384615 0,10.5096154 0,6.76923077 C0,3.02884615 3.02884615,0 6.76923077,0 C10.5096154,0 13.5384615,3.02884615 13.5384615,6.76923077 C13.5384615,8.13461538 13.125,9.48076923 12.3461538,10.6057692 L15.6442308,13.9038462 C15.8653846,14.125 16,14.4423077 16,14.7692308 Z" id="path-1"></path>
    </defs>
    <g id="UI-Components" stroke="none" stroke-width="1" fill="none" fill-rule="evenodd">
        <g id="Icons" transform="translate(-497.000000, -668.000000)">
            <g id="Icons/search" transform="translate(497.000000, 668.000000)">
                <g>
                    <mask id="mask-2" fill="white">
                        <use xlink:href="#path-1"></use>
                    </mask>
                    <g id="shape"></g>
                    <rect id="fill" fill="#212121" mask="url(#mask-2)" x="0" y="0" width="16" height="16"></rect>
                </g>
            </g>
        </g>
    </g>
</svg>