<?xml version="1.0" encoding="UTF-8"?>
<svg width="40px" height="40px" viewBox="0 0 40 40" version="1.1" xmlns="http://www.w3.org/2000/svg" xmlns:xlink="http://www.w3.org/1999/xlink">
    <!-- Generator: Sketch 52.5 (67469) - http://www.bohemiancoding.com/sketch -->
    <title>spinner</title>
    <desc>Created with Sketch.</desc>
    <g id="Initial-Desktop-Designs" stroke="none" stroke-width="1" fill="none" fill-rule="evenodd">
        <g id="Tag-View-Desktop" transform="translate(-547.000000, -3606.000000)" fill="#49A564">
            <g id="spinner" transform="translate(547.000000, 3606.000000)">
                <path d="M20,0 C17.790861,0 16,1.790861 16,4 C16,6.209139 17.790861,8 20,8 C22.209139,8 24,6.209139 24,4 C24,1.790861 22.209139,0 20,0 Z M8.744141,4.6875 C7.66335333,4.67142126 6.6220653,5.09343173 5.8574219,5.8574219 C5.10686373,6.60762218 4.68517444,7.62532694 4.68517444,8.68652345 C4.68517444,9.74771996 5.10686373,10.7654247 5.8574219,11.515625 C6.60762218,12.2661832 7.62532694,12.6878725 8.68652345,12.6878725 C9.74771996,12.6878725 10.7654247,12.2661832 11.515625,11.515625 C12.2661832,10.7654247 12.6878725,9.74771996 12.6878725,8.68652345 C12.6878725,7.62532694 12.2661832,6.60762218 11.515625,5.8574219 C10.779222,5.12167664 9.78500628,4.70199002 8.744141,4.6875 Z M4,16 C1.790861,16 0,17.790861 0,20 C0,22.209139 1.790861,24 4,24 C6.209139,24 8,22.209139 8,20 C8,17.790861 6.209139,16 4,16 Z M36,16 C33.790861,16 32,17.790861 32,20 C32,22.209139 33.790861,24 36,24 C38.209139,24 40,22.209139 40,20 C40,17.790861 38.209139,16 36,16 Z M8.744141,27.314453 C7.66335331,27.2983743 6.62206528,27.7203848 5.8574219,28.484375 C5.10686376,29.2345753 4.68517449,30.25228 4.68517449,31.3134765 C4.68517449,32.374673 5.10686376,33.3923777 5.8574219,34.142578 C6.60762218,34.8931362 7.62532694,35.3148255 8.68652345,35.3148255 C9.74771996,35.3148255 10.7654247,34.8931362 11.515625,34.142578 C12.2661831,33.3923777 12.6878724,32.374673 12.6878724,31.3134765 C12.6878724,30.25228 12.2661831,29.2345753 11.515625,28.484375 C10.779222,27.7486297 9.78500629,27.328943 8.744141,27.314453 Z M31.373047,27.314453 C30.2915853,27.297844 29.249493,27.7198949 28.484375,28.484375 C27.7338169,29.2345753 27.3121276,30.25228 27.3121276,31.3134765 C27.3121276,32.374673 27.7338169,33.3923777 28.484375,34.142578 C29.2345753,34.8931361 30.25228,35.3148254 31.3134765,35.3148254 C32.374673,35.3148254 33.3923777,34.8931361 34.142578,34.142578 C34.8931361,33.3923777 35.3148254,32.374673 35.3148254,31.3134765 C35.3148254,30.25228 34.8931361,29.2345753 34.142578,28.484375 C33.4066576,27.7490972 32.4132332,27.3294489 31.373047,27.314453 Z M20,32 C17.790861,32 16,33.790861 16,36 C16,38.209139 17.790861,40 20,40 C22.209139,40 24,38.209139 24,36 C24,33.790861 22.209139,32 20,32 Z" id="Shape"></path>
            </g>
        </g>
    </g>
</svg>