<?xml version="1.0" encoding="UTF-8"?>
<svg width="16px" height="20px" viewBox="0 0 16 20" version="1.1" xmlns="http://www.w3.org/2000/svg" xmlns:xlink="http://www.w3.org/1999/xlink">
    <!-- Generator: sketchtool 57.1 (101010) - https://sketch.com -->
    <title>741252EC-45BE-4B61-AEBC-EE3FD5052641</title>
    <desc>Created with sketchtool.</desc>
    <g id="UI-Components" stroke="none" stroke-width="1" fill="none" fill-rule="evenodd">
        <g id="Stepper" transform="translate(-468.000000, -2372.000000)" fill="#FFFFFF">
            <g id="Steppers/vertical/last-step" transform="translate(456.000000, 2362.000000)">
                <path d="M27.8070386,15.5273012 C27.2351288,14.95656 26.6632189,14.3858187 26.093634,13.8173975 C25.1334765,12.8592019 24.1733189,11.9010062 23.2131614,10.9428105 C22.9620791,10.6922412 22.7086719,10.4393518 22.4575895,10.1887825 C22.3483222,10.0797384 22.2158065,10.0078157 22.0577176,10.0054956 C21.9507751,10.0031755 21.8461575,10.0008555 21.739215,10.0008555 L14.5322215,10.0008555 C14.169547,10.0008555 13.799898,9.98461485 13.4488477,10.0936589 C12.5793588,10.3627889 12.0027993,11.1724991 12.0004745,12.0750127 C11.9981496,12.6503941 12.0051241,13.2257755 12.0051241,13.8011569 L12.0051241,27.7912778 C12.0051241,28.227454 12.063245,28.6543499 12.3003784,29.032524 C12.6002823,29.5127819 13.1001222,29.8723952 13.6627326,29.9675188 C13.8184967,29.9930397 13.9696111,30 14.1253751,30 L25.6588895,30 C26.0634111,30 26.449334,29.9767991 26.8282823,29.8051127 C27.5675804,29.4687002 28,28.7053918 28,27.9119223 L28,15.9008351 C28,15.7569898 27.9232804,15.6131444 27.8070386,15.5273012 Z M20.9185477,26.5175504 L15.5900222,26.5175504 C15.1994496,26.5175504 14.9088451,26.1973784 14.8925712,25.8215244 C14.8762973,25.4456704 15.2250228,25.1254985 15.5900222,25.1254985 L20.9185477,25.1254985 C21.3091202,25.1254985 21.5997248,25.4456704 21.6159987,25.8215244 C21.6345974,26.1973784 21.283547,26.5175504 20.9185477,26.5175504 Z M24.3965033,23.3158312 C24.3918536,23.3158312 24.3848791,23.3158312 24.3802294,23.3158312 C24.0222046,23.3251115 23.6641797,23.3158312 23.3084797,23.3158312 L15.5900222,23.3158312 C15.1994496,23.3158312 14.9088451,22.9956592 14.8925712,22.6198052 C14.8762973,22.2439513 15.2250228,21.9237793 15.5900222,21.9237793 C15.5946719,21.9237793 15.6016464,21.9237793 15.606296,21.9237793 C15.9643209,21.9168191 16.3223457,21.9237793 16.6780457,21.9237793 L24.3965033,21.9237793 C24.7870758,21.9237793 25.0776804,22.2416312 25.0939542,22.6198052 C25.1102281,22.9956592 24.7591778,23.3158312 24.3965033,23.3158312 Z M24.3965033,20.1094718 C24.3918536,20.1094718 24.3848791,20.1117919 24.3802294,20.1117919 C24.0222046,20.1187521 23.6641797,20.114112 23.3084797,20.114112 L15.5900222,20.114112 C15.1994496,20.114112 14.9088451,19.79394 14.8925712,19.415766 C14.8762973,19.039912 15.2250228,18.71742 15.5900222,18.71742 C15.5946719,18.71742 15.6016464,18.7197401 15.606296,18.7197401 C15.9643209,18.7104597 16.3223457,18.7220601 16.6780457,18.7220601 L24.3965033,18.7220601 C24.7870758,18.7220601 25.0776804,19.039912 25.0939542,19.415766 C25.1102281,19.79162 24.7591778,20.1094718 24.3965033,20.1094718 Z M23.2875562,15.6595461 C23.2154863,15.6595461 23.1457412,15.6665064 23.0736712,15.6641863 C23.0690216,15.6641863 23.0643719,15.6665064 23.062047,15.6665064 C23.0457732,15.6665064 23.0294993,15.6665064 23.0132255,15.6665064 C22.9969516,15.6665064 22.9830026,15.6641863 22.9667287,15.6641863 C22.9016333,15.6479457 22.8365379,15.6317051 22.7737673,15.6108243 C22.7667928,15.6085042 22.7574934,15.6038641 22.7505189,15.5992239 C22.7133216,15.5806632 22.678449,15.5597824 22.6435765,15.5389016 C22.6412516,15.5365815 22.6273026,15.5273012 22.6133536,15.5203409 C22.6133536,15.5203409 22.6133536,15.5203409 22.6156784,15.522661 C22.6249778,15.5319414 22.6319523,15.5365815 22.6342771,15.5412217 C22.6273026,15.5342615 22.6133536,15.522661 22.6040542,15.5157008 C22.6063791,15.5180209 22.6110287,15.5203409 22.6133536,15.522661 C22.5877804,15.4994602 22.5622072,15.4762593 22.536634,15.4530584 C22.5133856,15.4298576 22.4924621,15.4066567 22.4715385,15.3834558 C22.4761882,15.3904161 22.4808379,15.3950563 22.4808379,15.3973764 C22.4785131,15.3950563 22.4738634,15.388096 22.4622392,15.3741755 C22.4622392,15.3741755 22.4622392,15.3741755 22.4622392,15.3718554 C22.4552647,15.3648952 22.4529399,15.3579349 22.450615,15.3532947 C22.4482902,15.3509746 22.4459653,15.3486545 22.4459653,15.3463345 C22.4273666,15.3161733 22.408768,15.2860122 22.3924941,15.253531 C22.3855196,15.2396105 22.3785451,15.22569 22.3715706,15.2117695 C22.3622712,15.1932088 22.3576215,15.1839284 22.3552967,15.1816083 C22.3552967,15.1816083 22.3808699,15.2349703 22.3808699,15.2372904 C22.3576215,15.2349703 22.3320483,15.0864848 22.322749,15.0308027 C22.322749,15.0331228 22.322749,15.037763 22.322749,15.0424031 C22.3250738,15.1073656 22.3041503,14.9519198 22.3180993,15.0145621 C22.3180993,15.0168822 22.3204242,15.0238425 22.3204242,15.0331228 C22.3204242,15.0215224 22.3180993,15.0076019 22.3180993,14.9960014 C22.3180993,14.9728006 22.3157745,14.9519198 22.3157745,14.931039 C22.3157745,14.9263988 22.3204242,14.9217587 22.3204242,14.9171185 C22.3204242,14.8915975 22.3250738,14.8660766 22.3250738,14.8405556 L22.3250738,12.7060762 C22.3250738,12.4183855 22.3273987,12.1306947 22.3297235,11.843004 C22.6737993,12.1863768 23.0178751,12.5297496 23.361951,12.8731224 C24.2942104,13.803477 25.2264699,14.7338317 26.1587294,15.6641863 L23.2875562,15.6641863 L23.2875562,15.6595461 Z" id="Stepper-Doc-Icon"></path>
            </g>
        </g>
    </g>
</svg>