<?xml version="1.0" encoding="UTF-8"?>
<svg width="80px" height="80px" viewBox="0 0 80 80" version="1.1" xmlns="http://www.w3.org/2000/svg" xmlns:xlink="http://www.w3.org/1999/xlink">
    <title>tractor-equipment-icon</title>
    <g id="tractor-equipment-icon" stroke="none" stroke-width="1" fill="none" fill-rule="evenodd">
        <rect id="Rectangle" x="0" y="0" width="80" height="80"></rect>
        <path d="M64.8432293,10 C66.2182293,10 67.2182293,11.125 67.2182293,12.375 L67.2182293,12.375 L67.2182293,43.875 C74.8432293,46.375 79.9682293,53.5 79.9682293,61.5 C79.9682293,71.75 71.7182293,80 61.4682293,80 C54.9682293,80 48.9682293,76.5 45.5932293,70.875 L45.5932293,70.875 L24.9682293,70.875 C23.7182293,76.125 19.0932293,80 13.5932293,80 C7.21822934,80 1.96822934,74.75 1.96822934,68.375 C1.96822934,66.25 2.59322934,64.25 3.71822934,62.375 L3.71822934,62.375 L0.343229345,49.125 C-1.03177066,43.75 1.84322934,37.5 6.84322934,37.5 L6.84322934,37.5 L11.2182293,37.5 L9.09322934,30.875 C8.96822934,30.5 8.96822934,30.125 9.21822934,29.75 C9.46822934,29.5 9.84322934,29.25 10.2182293,29.25 L10.2182293,29.25 L13.0932293,29.25 L13.0932293,19.625 L9.71822934,16.25 C9.21822934,15.75 9.21822934,15 9.71822934,14.5 C10.2182293,14 10.9682293,14 11.4682293,14.5 L11.4682293,14.5 L15.2182293,18.25 C15.4682293,18.5 15.5932293,18.75 15.5932293,19.125 L15.5932293,19.125 L15.5932293,29.375 L18.3432293,29.375 C18.7182293,29.375 19.0932293,29.5 19.3432293,29.875 C19.5932293,30.25 19.5932293,30.625 19.4682293,31 L19.4682293,31 L17.2182293,37.5 L30.3432293,37.5 L32.7182293,17.5 C33.3432293,13.25 36.9682293,10 41.2182293,10 L41.2182293,10 Z M13.5932293,59.25 C10.5932293,59.25 7.84322934,60.75 6.09322934,63.25 C4.96822934,64.75 4.46822934,66.5 4.46822934,68.375 C4.46822934,73.375 8.59322934,77.5 13.5932293,77.5 C18.5932293,77.5 22.5932293,73.375 22.7182293,68.375 C22.7182293,63.375 18.5932293,59.25 13.5932293,59.25 Z M61.4682293,45.5 C52.5932293,45.5 45.4682293,52.625 45.4682293,61.5 C45.4682293,70.375 52.5932293,77.5 61.4682293,77.5 C70.3432293,77.5 77.4682293,70.375 77.4682293,61.5 C77.4682293,52.875 70.4682293,45.5 61.4682293,45.5 Z M13.5932293,63.75 C16.0932293,63.75 18.2182293,65.875 18.2182293,68.375 C18.2182293,71 16.0932293,73 13.5932293,73 C10.9682293,73 8.96822934,70.875 8.96822934,68.375 C8.96822934,65.875 11.0932293,63.75 13.5932293,63.75 Z M13.5932293,66.25 C12.4682293,66.25 11.4682293,67.25 11.4682293,68.375 C11.4682293,69.5 12.3432293,70.5 13.5932293,70.5 C14.7182293,70.5 15.7182293,69.5 15.7182293,68.375 C15.7182293,67.25 14.7182293,66.25 13.5932293,66.25 Z M64.7182293,40.125 L6.71822934,40.125 C3.59322934,40.125 1.71822934,44.875 2.71822934,48.625 L2.71822934,48.625 L5.59322934,59.875 C7.59322934,58 10.4682293,56.75 13.4682293,56.75 C19.8432293,56.75 25.0932293,62 25.0932293,68.375 L25.0932293,68.375 L44.3432293,68.375 C43.4682293,66.5 42.9682293,63.875 42.9682293,61.5 C42.9682293,51.375 51.3432293,43 61.4682293,43 C62.5932293,43 63.8432293,43.125 64.7182293,43.25 L64.7182293,43.25 L64.7182293,40.125 L64.7182293,40.125 Z M61.4682293,54.75 C65.0932293,54.75 68.2182293,57.75 68.2182293,61.5 C68.2182293,65.25 65.0932293,68.25 61.4682293,68.25 C57.7182293,68.25 54.7182293,65.25 54.7182293,61.5 C54.7182293,57.75 57.7182293,54.75 61.4682293,54.75 Z M37.9682293,64.125 C38.7182293,64.125 39.2182293,64.75 39.2182293,65.375 C39.2182293,66.125 38.7182293,66.625 37.9682293,66.625 L37.9682293,66.625 L30.5932293,66.625 C29.8432293,66.625 29.3432293,66.125 29.3432293,65.375 C29.3432293,64.625 29.8432293,64.125 30.5932293,64.125 L30.5932293,64.125 Z M61.4682293,57.25 C59.0932293,57.25 57.2182293,59.125 57.2182293,61.5 C57.2182293,63.875 59.0932293,65.75 61.4682293,65.75 C63.7182293,65.75 65.7182293,63.875 65.7182293,61.5 C65.7182293,59.125 63.7182293,57.25 61.4682293,57.25 Z M37.9682293,59.25 C38.7182293,59.25 39.2182293,59.75 39.2182293,60.5 C39.2182293,61.25 38.7182293,61.75 37.9682293,61.75 L37.9682293,61.75 L30.5932293,61.75 C29.8432293,61.75 29.3432293,61.25 29.3432293,60.5 C29.3432293,59.75 29.8432293,59.25 30.5932293,59.25 L30.5932293,59.25 Z M8.71822934,42.125 C9.34322934,42.125 9.96822934,42.75 9.96822934,43.375 L9.96822934,43.375 L9.96822934,47.5 C9.96822934,48.25 9.46822934,48.75 8.71822934,48.75 C7.96822934,48.75 7.46822934,48.25 7.46822934,47.5 L7.46822934,47.5 L7.46822934,43.375 C7.46822934,42.625 7.96822934,42.125 8.71822934,42.125 Z M13.5932293,42.125 C14.2182293,42.125 14.8432293,42.75 14.8432293,43.375 L14.8432293,43.375 L14.8432293,47.5 C14.8432293,48.25 14.3432293,48.75 13.5932293,48.75 C12.8432293,48.75 12.3432293,48.25 12.3432293,47.5 L12.3432293,47.5 L12.3432293,43.375 C12.3432293,42.625 12.8432293,42.125 13.5932293,42.125 Z M18.4682293,42.125 C19.2182293,42.125 19.7182293,42.75 19.7182293,43.375 L19.7182293,43.375 L19.7182293,47.5 C19.7182293,48.25 19.2182293,48.75 18.4682293,48.75 C17.7182293,48.75 17.2182293,48.25 17.2182293,47.5 L17.2182293,47.5 L17.2182293,43.375 C17.2182293,42.625 17.7182293,42.125 18.4682293,42.125 Z M57.5932293,12.5 L41.2182293,12.5 C38.2182293,12.5 35.7182293,14.75 35.3432293,17.75 L35.3432293,17.75 L32.9682293,37.5 L40.0932293,27.875 L38.7182293,26.75 C38.2182293,26.375 38.0932293,25.5 38.5932293,25 C38.9682293,24.5 39.8432293,24.375 40.3432293,24.875 C40.0932293,24.625 44.2182293,28 44.3432293,28.125 C44.8432293,28.5 44.9682293,29.375 44.4682293,29.875 C44.0932293,30.375 43.2182293,30.5 42.7182293,30 L42.7182293,30 L41.9682293,29.375 L36.0932293,37.5 L50.2182293,37.5 L50.2182293,32 L46.5932293,32.75 L46.5932293,32.75 L46.3432293,32.75 C45.7182293,32.75 45.2182293,32.375 45.0932293,31.75 C44.9682293,31 45.4682293,30.375 46.0932293,30.25 L46.0932293,30.25 L52.3432293,29 L53.4682293,22.25 C53.5932293,21.625 54.3432293,21.125 54.9682293,21.25 C55.5932293,21.375 56.0932293,22.125 55.9682293,22.75 L55.9682293,22.75 L54.7182293,30.375 C54.5932293,30.875 54.2182293,31.25 53.7182293,31.375 L53.7182293,31.375 L52.7182293,31.625 L52.7182293,37.5 L57.5932293,37.5 L57.5932293,12.5 Z M64.7182293,12.375 L60.0932293,12.375 L60.0932293,37.5 L64.7182293,37.5 L64.7182293,12.375 Z M16.5932293,31.875 L11.9682293,31.875 L13.8432293,37.5 L14.5932293,37.5 L16.5932293,31.875 Z" fill="#212121" fill-rule="nonzero"></path>
    </g>
</svg>