<svg id="Layer_1" data-name="Layer 1" xmlns="http://www.w3.org/2000/svg" viewBox="0 0 48.47 44.13"><defs><style>.cls-1{fill:#212121;}</style></defs><title>wildfire-1</title><polygon class="cls-1" points="11.91 11.21 0 26.93 6.25 26.93 0 37.66 7.76 37.66 7.76 44.13 16.06 44.13 16.06 37.66 23.83 37.66 17.58 26.93 23.83 26.93 11.91 11.21"/><polygon class="cls-1" points="48.47 22.93 36.56 7.21 24.64 22.93 30.89 22.93 24.64 33.66 32.41 33.66 32.41 40.13 40.71 40.13 40.71 33.66 48.47 33.66 42.22 22.93 48.47 22.93"/><path class="cls-1" d="M37.32,17.84c0-.2,0-0.4,0-0.6,0.21-5.54-6.11-9.73-6.11-9.73-1.87,7-4.48,8.79-4.48,8.79a7.18,7.18,0,0,0-2.08-2.92,12.44,12.44,0,0,1-2.61,6.49L21.94,20l4.34,5.71,0.12-.14A46.79,46.79,0,0,0,32,18a9.52,9.52,0,0,1,1.29,4.55,5.88,5.88,0,0,1,0,.6Z" transform="translate(-6 -7.5)"/></svg>