<svg id="Layer_1" data-name="Layer 1" xmlns="http://www.w3.org/2000/svg" viewBox="0 0 30 30"><defs><style>.cls-1{fill:#faa41a;}.cls-2{fill:#fff;}.cls-3{fill:none;}</style></defs><title>rss-color</title><path class="cls-1" d="M15,29A14,14,0,1,0,1,15,14,14,0,0,0,15,29"/><path class="cls-2" d="M10.1,21.74a1.84,1.84,0,1,1,1.84-1.84,1.84,1.84,0,0,1-1.84,1.84m6.57-.2a.58.58,0,0,1-.45.2H14.93a.6.6,0,0,1-.6-.55,6.12,6.12,0,0,0-5.51-5.51.6.6,0,0,1-.56-.6V13.78a.58.58,0,0,1,.2-.45.59.59,0,0,1,.41-.16h0a8.66,8.66,0,0,1,7.91,7.91.61.61,0,0,1-.16.46m4.89,0a.59.59,0,0,1-.44.19H19.75a.61.61,0,0,1-.61-.57A11,11,0,0,0,8.84,10.85a.61.61,0,0,1-.57-.6V8.88a.62.62,0,0,1,.61-.61h0A13.6,13.6,0,0,1,21.74,21.1a.59.59,0,0,1-.17.45"/><circle class="cls-3" cx="15" cy="15" r="14"/></svg>