<svg id="Layer_1" data-name="Layer 1" xmlns="http://www.w3.org/2000/svg" xmlns:xlink="http://www.w3.org/1999/xlink" viewBox="0 0 30 30"><defs><style>.cls-1{fill:none;}.cls-2{fill:#c42026;}.cls-3{clip-path:url(#clip-path);}.cls-4{fill:#fff;}.cls-5{fill:#c32127;}</style><clipPath id="clip-path"><rect class="cls-1" x="7.71" y="7.69" width="14.58" height="14.63"/></clipPath></defs><title>govdelivery-color</title><path class="cls-2" d="M15,29A14,14,0,1,0,1,15,14,14,0,0,0,15,29"/><g class="cls-3"><g class="cls-3"><path class="cls-4" d="M20.34,7.69H9.66a2,2,0,0,0-2,2V16a2,2,0,0,0,2,2h1.21l-1.69,3.7a.49.49,0,0,0,.24.66l0,0a.48.48,0,0,0,.46-.05l6.19-4.32h4.21a2,2,0,0,0,2-2V9.64a2,2,0,0,0-2-2m.15,1.93-3.42,2.59,3.38,4a.28.28,0,1,1-.43.36l-3.4-4.06-1.36,1-.07,0h0l-.07,0h-.21l-.07,0h0l-.07,0-1.36-1L10,16.61a.28.28,0,0,1-.43-.36l3.38-4L9.52,9.62A.42.42,0,1,1,10,8.94l5,3.77,5-3.77a.42.42,0,1,1,.51.68"/><path class="cls-5" d="M14.91,13.65h0"/><path class="cls-5" d="M14.83,13.62h0"/><path class="cls-5" d="M15,13.66h0"/><path class="cls-5" d="M15.17,13.62l-.07,0,.07,0"/><path class="cls-5" d="M15,13.66h0"/><path class="cls-5" d="M15.11,13.65h0"/><path class="cls-5" d="M14.89,13.65l-.07,0,.07,0"/><path class="cls-5" d="M15.19,13.62h0"/></g></g></svg>