<svg id="Layer_1" data-name="Layer 1" xmlns="http://www.w3.org/2000/svg" viewBox="0 0 30 30"><defs><style>.cls-1{fill:#de4b38;}.cls-2{fill:none;}.cls-3{fill:#fff;}</style></defs><title>google-color</title><path class="cls-1" d="M15,29A14,14,0,1,0,1,15,14,14,0,0,0,15,29"/><circle class="cls-2" cx="15" cy="15" r="14"/><path class="cls-3" d="M5.74,14.68a6.32,6.32,0,0,1,6.31-6,6.41,6.41,0,0,1,4.23,1.56,22.54,22.54,0,0,1-1.6,1.66,4.18,4.18,0,0,0-4.92-.13,4.05,4.05,0,0,0-.17,6.32c1.93,1.75,5.56.88,6.1-1.8-1.21,0-2.41,0-3.62,0,0-.72,0-1.44,0-2.16,2,0,4,0,6.05,0A7.26,7.26,0,0,1,17,19a6.25,6.25,0,0,1-7.2,1.91A6.33,6.33,0,0,1,5.74,14.68Z"/><path class="cls-3" d="M22,12.28h1.8c0,.6,0,1.21,0,1.81h1.81v1.8l-1.81,0q0,.91,0,1.81H22c0-.6,0-1.2,0-1.8l-1.81,0V14.1H22Q22,13.18,22,12.28Z"/></svg>